{"asset":{"version":"2.0","generator":"babylon.js glTF exporter for 3dsmax 2022 v20210811.2"},"scene":0,"scenes":[{"nodes":[0]}],"nodes":[{"mesh":0,"name":"Cylinder012"}],"meshes":[{"primitives":[{"attributes":{"POSITION":1,"NORMAL":2,"TEXCOORD_0":3},"indices":0,"material":0}],"name":"Cylinder012"}],"accessors":[{"bufferView":0,"componentType":5123,"count":90,"type":"SCALAR","name":"accessorIndices"},{"bufferView":1,"componentType":5126,"count":43,"max":[0.245333523,0.06928358,0.212514177],"min":[-0.245475754,-0.06928358,-0.212539569],"type":"VEC3","name":"accessorPositions"},{"bufferView":1,"byteOffset":516,"componentType":5126,"count":43,"type":"VEC3","name":"accessorNormals"},{"bufferView":2,"componentType":5126,"count":43,"type":"VEC2","name":"accessorUVs"}],"bufferViews":[{"buffer":0,"byteLength":180,"name":"bufferViewScalar"},{"buffer":0,"byteOffset":180,"byteLength":1032,"byteStride":12,"name":"bufferViewFloatVec3"},{"buffer":0,"byteOffset":1212,"byteLength":344,"byteStride":8,"name":"bufferViewFloatVec2"}],"buffers":[{"uri":"Cell.bin","byteLength":1556}],"materials":[{"pbrMetallicRoughness":{"baseColorTexture":{"index":0},"metallicFactor":0.0,"roughnessFactor":0.0},"doubleSided":true,"name":"Material__24","extras":{"babylonSeparateCullingPass":false}}],"textures":[{"sampler":0,"source":0,"name":"MAP.png"}],"images":[{"uri":"MAP.png"}],"samplers":[{"magFilter":9729,"minFilter":9987}]}