# 3ds Max Wavefront OBJ Exporter v0.99 - (c)2007 guruware
# File Created: 02.09.2021 16:06:33

mtllib Cell.mtl

#
# object Cylinder012
#

v  9.6588 -2.7277 -0.0005
v  4.8280 -2.7277 -8.3677
v  4.8280 2.3065 -8.3677
v  9.6588 2.3065 -0.0005
v  -4.8336 -2.7277 -8.3677
v  -4.8336 2.3065 -8.3677
v  -9.6644 -2.7277 -0.0005
v  -9.6644 2.3065 -0.0005
v  -4.8336 -2.7277 8.3667
v  -4.8336 2.3065 8.3667
v  4.8280 -2.7277 8.3667
v  4.8280 2.3065 8.3667
v  4.2885 2.7277 -7.4332
v  8.5798 2.7277 -0.0005
v  -4.2941 2.7277 -7.4332
v  -8.5854 2.7277 -0.0005
v  -4.2941 2.7277 7.4323
v  4.2885 2.7277 7.4323
v  -0.0028 2.7277 -0.0005
# 19 vertices

vn 1.0000 0.0000 -0.0000
vn 0.5000 0.0000 -0.8660
vn -0.5000 0.0000 -0.8660
vn -1.0000 0.0000 0.0000
vn -0.5000 0.0000 0.8660
vn 0.5000 0.0000 0.8660
vn 0.2976 0.9391 -0.1718
vn 0.0000 0.9391 -0.3437
vn -0.2976 0.9391 -0.1718
vn -0.2976 0.9391 0.1718
vn 0.0000 0.9391 0.3437
vn 0.2976 0.9391 0.1718
vn -0.0000 1.0000 0.0000
vn 0.0000 1.0000 0.0000
vn 0.0000 1.0000 -0.0000
vn -0.0000 1.0000 -0.0000
# 16 vertex normals

vt 0.0004 0.8227 0.0000
vt 0.0004 0.8816 0.0000
vt 0.0253 0.8816 0.0000
vt 0.0253 0.8227 0.0000
vt 0.0004 0.9406 0.0000
vt 0.0253 0.9406 0.0000
vt 0.0004 0.9995 0.0000
vt 0.0253 0.9995 0.0000
vt 0.0267 0.9551 0.0000
vt 0.0267 0.8672 0.0000
vt 0.0356 0.8723 0.0000
vt 0.0356 0.9500 0.0000
vt 0.1029 0.8232 0.0000
vt 0.1029 0.8334 0.0000
vt 0.1791 0.8672 0.0000
vt 0.1702 0.8723 0.0000
vt 0.1791 0.9551 0.0000
vt 0.1702 0.9500 0.0000
vt 0.1029 0.9991 0.0000
vt 0.1029 0.9889 0.0000
vt 0.1029 0.9111 0.0000
# 21 texture coords

o Cylinder012
g Cylinder012
usemtl Material__24
s 8
f 1/1/1 2/2/2 3/3/2 
f 3/3/2 4/4/1 1/1/1 
f 2/2/2 5/5/3 6/6/3 
f 6/6/3 3/3/2 2/2/2 
f 5/5/3 7/7/4 8/8/4 
f 8/8/4 6/6/3 5/5/3 
f 7/7/4 9/5/5 10/6/5 
f 10/6/5 8/8/4 7/7/4 
f 9/5/5 11/2/6 12/3/6 
f 12/3/6 10/6/5 9/5/5 
f 11/2/6 1/1/1 4/4/1 
f 4/4/1 12/3/6 11/2/6 
s off
f 4/9/7 3/10/7 13/11/7 
f 13/11/7 14/12/7 4/9/7 
f 3/10/8 6/13/8 15/14/8 
f 15/14/8 13/11/8 3/10/8 
f 6/13/9 8/15/9 16/16/9 
f 16/16/9 15/14/9 6/13/9 
f 8/15/10 10/17/10 17/18/10 
f 17/18/10 16/16/10 8/15/10 
f 10/17/11 12/19/11 18/20/11 
f 18/20/11 17/18/11 10/17/11 
f 12/19/12 4/9/12 14/12/12 
f 14/12/12 18/20/12 12/19/12 
f 14/12/13 13/11/13 19/21/13 
f 13/11/14 15/14/14 19/21/14 
f 15/14/14 16/16/14 19/21/14 
f 16/16/15 17/18/15 19/21/15 
f 17/18/15 18/20/15 19/21/15 
f 18/20/16 14/12/16 19/21/16 
# 30 faces

