# 3ds Max Wavefront OBJ Exporter v0.99 - (c)2007 guruware
# File Created: 23.09.2021 15:21:14

mtllib Cloud2.mtl

#
# object Object002
#

v  197.9411 120.1194 464.1483
v  185.0067 120.1194 424.6342
v  196.9640 77.0544 419.3729
v  210.6951 77.0544 461.3209
v  164.6121 120.1194 388.4027
v  175.3131 77.0544 380.9097
v  137.5408 120.1194 356.8462
v  146.5745 77.0544 347.4095
v  104.8334 120.1194 331.1773
v  111.8525 77.0544 320.1595
v  67.7467 120.1194 312.3826
v  72.4815 77.0544 300.2072
v  27.7064 120.1194 301.1844
v  29.9749 77.0544 288.3192
v  -45.9520 120.1194 718.9223
v  -48.2205 77.0544 731.7875
v  -90.7275 77.0544 719.8994
v  -85.9927 120.1194 707.7239
v  -130.0984 77.0544 699.9469
v  -123.0794 120.1194 688.9291
v  -164.8203 77.0544 672.6970
v  -155.7867 120.1194 663.2603
v  -193.5589 77.0544 639.1967
v  -182.8578 120.1194 631.7037
v  -215.2097 77.0544 600.7335
v  -203.2524 120.1194 595.4722
v  -228.9407 77.0544 558.7855
v  -216.1867 120.1194 555.9580
# 28 vertices

vn -0.9098 -0.2890 0.2978
vn -0.8759 -0.2903 0.3854
vn -0.7839 -0.2903 0.5489
vn -0.6617 -0.2903 0.6913
vn -0.5142 -0.2903 0.8071
vn -0.3468 -0.2903 0.8919
vn -0.2578 -0.2890 0.9220
vn -0.2578 -0.2890 0.9219
vn 0.2578 -0.2890 -0.9219
vn 0.3468 -0.2903 -0.8919
vn 0.5142 -0.2903 -0.8071
vn 0.6617 -0.2903 -0.6913
vn 0.7839 -0.2903 -0.5489
vn 0.8759 -0.2903 -0.3854
vn 0.9098 -0.2890 -0.2978
# 15 vertex normals

vt 0.6097 0.6013 0.0000
vt 0.6395 0.6013 0.0000
vt 0.6395 0.5415 0.0000
vt 0.6097 0.5415 0.0000
vt 0.6694 0.6013 0.0000
vt 0.6694 0.5415 0.0000
vt 0.6993 0.6013 0.0000
vt 0.6993 0.5415 0.0000
vt 0.7292 0.6013 0.0000
vt 0.7292 0.5415 0.0000
vt 0.7591 0.6013 0.0000
vt 0.7591 0.5415 0.0000
vt 0.7890 0.6013 0.0000
vt 0.7890 0.5415 0.0000
# 14 texture coords

o Object002
g Object002
usemtl 02___Default
s 1
f 1/1/1 2/2/2 3/3/2 4/4/1 
f 2/2/2 5/5/3 6/6/3 3/3/2 
f 5/5/3 7/7/4 8/8/4 6/6/3 
f 7/7/4 9/9/5 10/10/5 8/8/4 
f 9/9/5 11/11/6 12/12/6 10/10/5 
f 11/11/6 13/13/7 14/14/8 12/12/6 
f 15/13/9 16/14/9 17/12/10 18/11/10 
f 18/11/10 17/12/10 19/10/11 20/9/11 
f 20/9/11 19/10/11 21/8/12 22/7/12 
f 22/7/12 21/8/12 23/6/13 24/5/13 
f 24/5/13 23/6/13 25/3/14 26/2/14 
f 26/2/14 25/3/14 27/4/15 28/1/15 
# 12 polygons

