# 3ds Max Wavefront OBJ Exporter v0.99 - (c)2007 guruware
# File Created: 23.09.2021 23:59:37

mtllib Cloud1.mtl

#
# object Object003
#

v  -0.4784 13.6792 22.2950
v  -2.0111 13.6792 22.4459
v  -2.4291 11.9206 20.3443
v  -0.4784 11.9206 20.1522
v  -3.4848 13.6792 22.8930
v  -4.3048 11.9206 20.9133
v  -4.8430 13.6792 23.6190
v  -6.0335 11.9206 21.8373
v  -6.0335 13.6792 24.5960
v  -7.5487 11.9206 23.0808
v  -7.0105 13.6792 25.7865
v  -8.7922 11.9206 24.5960
v  -7.7365 13.6792 27.1447
v  -9.7162 11.9206 26.3247
v  6.7796 13.6792 27.1447
v  6.0536 13.6792 25.7864
v  7.8353 11.9206 24.5960
v  8.7593 11.9206 26.3246
v  5.0766 13.6792 24.5960
v  6.5918 11.9206 23.0808
v  3.8861 13.6792 23.6190
v  5.0766 11.9206 21.8373
v  2.5279 13.6792 22.8930
v  3.3479 11.9206 20.9133
v  1.0542 13.6792 22.4459
v  1.4722 11.9206 20.3443
v  -2.7722 9.7778 18.6196
v  -0.4784 9.7778 18.3936
v  -4.9778 9.7778 19.2886
v  -7.0105 9.7778 20.3751
v  -8.7922 9.7778 21.8373
v  -10.2544 9.7778 23.6190
v  -11.3409 9.7778 25.6517
v  9.2975 9.7778 23.6190
v  10.3840 9.7778 25.6517
v  7.8353 9.7778 21.8373
v  6.0536 9.7778 20.3751
v  4.0209 9.7778 19.2886
v  1.8153 9.7778 18.6195
v  -3.0271 7.3331 17.3379
v  -0.4784 7.3331 17.0869
v  -5.4779 7.3331 18.0814
v  -7.7365 7.3331 19.2886
v  -9.7162 7.3331 20.9133
v  -11.3409 7.3331 22.8930
v  -12.5481 7.3331 25.1516
v  10.3840 7.3331 22.8930
v  11.5912 7.3331 25.1516
v  8.7593 7.3331 20.9133
v  6.7796 7.3331 19.2886
v  4.5210 7.3331 18.0814
v  2.0702 7.3331 17.3379
v  -0.4784 13.6792 38.0071
v  -0.4784 11.9206 40.1499
v  -2.4291 11.9206 39.9577
v  -2.0111 13.6792 37.8561
v  -4.3048 11.9206 39.3887
v  -3.4848 13.6792 37.4090
v  -6.0335 11.9206 38.4648
v  -4.8430 13.6792 36.6831
v  -7.5487 11.9206 37.2213
v  -6.0335 13.6792 35.7061
v  -8.7922 11.9206 35.7061
v  -7.0105 13.6792 34.5156
v  -9.7162 11.9206 33.9774
v  -7.7365 13.6792 33.1574
v  6.7796 13.6792 33.1574
v  8.7593 11.9206 33.9774
v  7.8353 11.9206 35.7061
v  6.0536 13.6792 34.5156
v  6.5918 11.9206 37.2213
v  5.0766 13.6792 35.7061
v  5.0766 11.9206 38.4648
v  3.8861 13.6792 36.6831
v  3.3479 11.9206 39.3888
v  2.5279 13.6792 37.4091
v  1.4722 11.9206 39.9577
v  1.0542 13.6792 37.8561
v  -0.4784 9.7778 41.9084
v  -2.7722 9.7778 41.6825
v  -4.9778 9.7778 41.0134
v  -7.0105 9.7778 39.9269
v  -8.7922 9.7778 38.4648
v  -10.2544 9.7778 36.6831
v  -11.3409 9.7778 34.6504
v  10.3840 9.7778 34.6504
v  9.2975 9.7778 36.6831
v  7.8353 9.7778 38.4648
v  6.0536 9.7778 39.9270
v  4.0209 9.7778 41.0134
v  1.8153 9.7778 41.6825
v  -0.4784 7.3331 43.2151
v  -3.0271 7.3331 42.9641
v  -5.4779 7.3331 42.2207
v  -7.7365 7.3331 41.0134
v  -9.7162 7.3331 39.3887
v  -11.3409 7.3331 37.4090
v  -12.5481 7.3331 35.1504
v  11.5912 7.3331 35.1505
v  10.3840 7.3331 37.4091
v  8.7593 7.3331 39.3888
v  6.7796 7.3331 41.0135
v  4.5210 7.3331 42.2207
v  2.0702 7.3331 42.9641
# 104 vertices

vn 0.0000 -0.7730 0.6344
vn 0.1238 -0.7730 0.6222
vn 0.1385 -0.7041 0.6965
vn 0.0000 -0.7041 0.7101
vn 0.2428 -0.7730 0.5861
vn 0.2718 -0.7041 0.6561
vn 0.3524 -0.7730 0.5275
vn 0.3945 -0.7041 0.5905
vn 0.4486 -0.7730 0.4486
vn 0.5021 -0.7041 0.5021
vn 0.5275 -0.7730 0.3525
vn 0.5905 -0.7041 0.3945
vn 0.5611 -0.7715 0.2999
vn 0.6278 -0.7023 0.3356
vn -0.5611 -0.7715 0.2999
vn -0.5275 -0.7730 0.3525
vn -0.5905 -0.7041 0.3945
vn -0.6278 -0.7023 0.3356
vn -0.4486 -0.7730 0.4486
vn -0.5021 -0.7041 0.5021
vn -0.3524 -0.7730 0.5275
vn -0.3945 -0.7041 0.5905
vn -0.2428 -0.7730 0.5861
vn -0.2718 -0.7041 0.6561
vn -0.1238 -0.7730 0.6222
vn -0.1385 -0.7041 0.6965
vn 0.1626 -0.5528 0.8173
vn 0.0000 -0.5528 0.8333
vn 0.3189 -0.5528 0.7699
vn 0.4630 -0.5528 0.6929
vn 0.5893 -0.5528 0.5893
vn 0.6929 -0.5528 0.4630
vn 0.7360 -0.5509 0.3934
vn -0.6929 -0.5528 0.4630
vn -0.7360 -0.5509 0.3934
vn -0.5893 -0.5528 0.5893
vn -0.4630 -0.5528 0.6929
vn -0.3189 -0.5528 0.7699
vn -0.1626 -0.5528 0.8173
vn 0.1721 -0.4714 0.8650
vn 0.0000 -0.4714 0.8819
vn 0.3375 -0.4714 0.8148
vn 0.4900 -0.4714 0.7333
vn 0.6236 -0.4714 0.6236
vn 0.7333 -0.4714 0.4900
vn 0.7786 -0.4696 0.4162
vn -0.7333 -0.4714 0.4900
vn -0.7786 -0.4696 0.4162
vn -0.6236 -0.4714 0.6236
vn -0.4900 -0.4714 0.7333
vn -0.3375 -0.4714 0.8148
vn -0.1721 -0.4714 0.8650
vn 0.0000 -0.7730 -0.6344
vn 0.0000 -0.7041 -0.7101
vn 0.1385 -0.7041 -0.6965
vn 0.1238 -0.7730 -0.6222
vn 0.2718 -0.7041 -0.6561
vn 0.2428 -0.7730 -0.5861
vn 0.3945 -0.7041 -0.5905
vn 0.3525 -0.7730 -0.5275
vn 0.5021 -0.7041 -0.5021
vn 0.4486 -0.7730 -0.4486
vn 0.5905 -0.7041 -0.3945
vn 0.5275 -0.7730 -0.3525
vn 0.6278 -0.7023 -0.3356
vn 0.5611 -0.7715 -0.2999
vn -0.5611 -0.7715 -0.2999
vn -0.6278 -0.7023 -0.3356
vn -0.5905 -0.7041 -0.3945
vn -0.5275 -0.7730 -0.3525
vn -0.5021 -0.7041 -0.5021
vn -0.4486 -0.7730 -0.4486
vn -0.3945 -0.7041 -0.5905
vn -0.3524 -0.7730 -0.5275
vn -0.2718 -0.7041 -0.6561
vn -0.2428 -0.7730 -0.5861
vn -0.1385 -0.7041 -0.6965
vn -0.1238 -0.7730 -0.6222
vn 0.0000 -0.5528 -0.8333
vn 0.1626 -0.5528 -0.8173
vn 0.3189 -0.5528 -0.7699
vn 0.4630 -0.5528 -0.6929
vn 0.5893 -0.5528 -0.5893
vn 0.6929 -0.5528 -0.4630
vn 0.7360 -0.5509 -0.3934
vn -0.7360 -0.5509 -0.3934
vn -0.6929 -0.5528 -0.4630
vn -0.5893 -0.5528 -0.5893
vn -0.4630 -0.5528 -0.6929
vn -0.3189 -0.5528 -0.7699
vn -0.1626 -0.5528 -0.8173
vn 0.0000 -0.4714 -0.8819
vn 0.1721 -0.4714 -0.8650
vn 0.3375 -0.4714 -0.8148
vn 0.4900 -0.4714 -0.7333
vn 0.6236 -0.4714 -0.6236
vn 0.7333 -0.4714 -0.4900
vn 0.7786 -0.4696 -0.4162
vn -0.7786 -0.4696 -0.4162
vn -0.7333 -0.4714 -0.4900
vn -0.6236 -0.4714 -0.6236
vn -0.4900 -0.4714 -0.7333
vn -0.3375 -0.4714 -0.8148
vn -0.1721 -0.4714 -0.8650
# 104 vertex normals

vt 0.8034 0.8082 0.0000
vt 0.8357 0.8082 0.0000
vt 0.8357 0.7437 0.0000
vt 0.8034 0.7437 0.0000
vt 0.8680 0.8082 0.0000
vt 0.8680 0.7437 0.0000
vt 0.9002 0.8082 0.0000
vt 0.9002 0.7437 0.0000
vt 0.9325 0.8082 0.0000
vt 0.9325 0.7437 0.0000
vt 0.9648 0.8082 0.0000
vt 0.9648 0.7437 0.0000
vt 0.9970 0.8082 0.0000
vt 0.9970 0.7437 0.0000
vt 0.6098 0.8082 0.0000
vt 0.6421 0.8082 0.0000
vt 0.6421 0.7437 0.0000
vt 0.6098 0.7437 0.0000
vt 0.6744 0.8082 0.0000
vt 0.6744 0.7437 0.0000
vt 0.7066 0.8082 0.0000
vt 0.7066 0.7437 0.0000
vt 0.7389 0.8082 0.0000
vt 0.7389 0.7437 0.0000
vt 0.7712 0.8082 0.0000
vt 0.7712 0.7437 0.0000
vt 0.8357 0.6792 0.0000
vt 0.8034 0.6792 0.0000
vt 0.8680 0.6792 0.0000
vt 0.9002 0.6792 0.0000
vt 0.9325 0.6792 0.0000
vt 0.9648 0.6792 0.0000
vt 0.9970 0.6792 0.0000
vt 0.6421 0.6792 0.0000
vt 0.6098 0.6792 0.0000
vt 0.6744 0.6792 0.0000
vt 0.7066 0.6792 0.0000
vt 0.7389 0.6792 0.0000
vt 0.7712 0.6792 0.0000
vt 0.8357 0.6146 0.0000
vt 0.8034 0.6146 0.0000
vt 0.8680 0.6146 0.0000
vt 0.9002 0.6146 0.0000
vt 0.9325 0.6146 0.0000
vt 0.9648 0.6146 0.0000
vt 0.9970 0.6146 0.0000
vt 0.6421 0.6146 0.0000
vt 0.6098 0.6146 0.0000
vt 0.6744 0.6146 0.0000
vt 0.7066 0.6146 0.0000
vt 0.7389 0.6146 0.0000
vt 0.7712 0.6146 0.0000
# 52 texture coords

o Object003
g Object003
usemtl 02___Default
s 1
f 1/1/1 2/2/2 3/3/3 4/4/4 
f 2/2/2 5/5/5 6/6/6 3/3/3 
f 5/5/5 7/7/7 8/8/8 6/6/6 
f 7/7/7 9/9/9 10/10/10 8/8/8 
f 9/9/9 11/11/11 12/12/12 10/10/10 
f 11/11/11 13/13/13 14/14/14 12/12/12 
f 15/15/15 16/16/16 17/17/17 18/18/18 
f 16/16/16 19/19/19 20/20/20 17/17/17 
f 19/19/19 21/21/21 22/22/22 20/20/20 
f 21/21/21 23/23/23 24/24/24 22/22/22 
f 23/23/23 25/25/25 26/26/26 24/24/24 
f 25/25/25 1/1/1 4/4/4 26/26/26 
f 4/4/4 3/3/3 27/27/27 28/28/28 
f 3/3/3 6/6/6 29/29/29 27/27/27 
f 6/6/6 8/8/8 30/30/30 29/29/29 
f 8/8/8 10/10/10 31/31/31 30/30/30 
f 10/10/10 12/12/12 32/32/32 31/31/31 
f 12/12/12 14/14/14 33/33/33 32/32/32 
f 18/18/18 17/17/17 34/34/34 35/35/35 
f 17/17/17 20/20/20 36/36/36 34/34/34 
f 20/20/20 22/22/22 37/37/37 36/36/36 
f 22/22/22 24/24/24 38/38/38 37/37/37 
f 24/24/24 26/26/26 39/39/39 38/38/38 
f 26/26/26 4/4/4 28/28/28 39/39/39 
f 28/28/28 27/27/27 40/40/40 41/41/41 
f 27/27/27 29/29/29 42/42/42 40/40/40 
f 29/29/29 30/30/30 43/43/43 42/42/42 
f 30/30/30 31/31/31 44/44/44 43/43/43 
f 31/31/31 32/32/32 45/45/45 44/44/44 
f 32/32/32 33/33/33 46/46/46 45/45/45 
f 35/35/35 34/34/34 47/47/47 48/48/48 
f 34/34/34 36/36/36 49/49/49 47/47/47 
f 36/36/36 37/37/37 50/50/50 49/49/49 
f 37/37/37 38/38/38 51/51/51 50/50/50 
f 38/38/38 39/39/39 52/52/52 51/51/51 
f 39/39/39 28/28/28 41/41/41 52/52/52 
f 53/1/53 54/4/54 55/26/55 56/25/56 
f 56/25/56 55/26/55 57/24/57 58/23/58 
f 58/23/58 57/24/57 59/22/59 60/21/60 
f 60/21/60 59/22/59 61/20/61 62/19/62 
f 62/19/62 61/20/61 63/17/63 64/16/64 
f 64/16/64 63/17/63 65/18/65 66/15/66 
f 67/13/67 68/14/68 69/12/69 70/11/70 
f 70/11/70 69/12/69 71/10/71 72/9/72 
f 72/9/72 71/10/71 73/8/73 74/7/74 
f 74/7/74 73/8/73 75/6/75 76/5/76 
f 76/5/76 75/6/75 77/3/77 78/2/78 
f 78/2/78 77/3/77 54/4/54 53/1/53 
f 54/4/54 79/28/79 80/39/80 55/26/55 
f 55/26/55 80/39/80 81/38/81 57/24/57 
f 57/24/57 81/38/81 82/37/82 59/22/59 
f 59/22/59 82/37/82 83/36/83 61/20/61 
f 61/20/61 83/36/83 84/34/84 63/17/63 
f 63/17/63 84/34/84 85/35/85 65/18/65 
f 68/14/68 86/33/86 87/32/87 69/12/69 
f 69/12/69 87/32/87 88/31/88 71/10/71 
f 71/10/71 88/31/88 89/30/89 73/8/73 
f 73/8/73 89/30/89 90/29/90 75/6/75 
f 75/6/75 90/29/90 91/27/91 77/3/77 
f 77/3/77 91/27/91 79/28/79 54/4/54 
f 79/28/79 92/41/92 93/52/93 80/39/80 
f 80/39/80 93/52/93 94/51/94 81/38/81 
f 81/38/81 94/51/94 95/50/95 82/37/82 
f 82/37/82 95/50/95 96/49/96 83/36/83 
f 83/36/83 96/49/96 97/47/97 84/34/84 
f 84/34/84 97/47/97 98/48/98 85/35/85 
f 86/33/86 99/46/99 100/45/100 87/32/87 
f 87/32/87 100/45/100 101/44/101 88/31/88 
f 88/31/88 101/44/101 102/43/102 89/30/89 
f 89/30/89 102/43/102 103/42/103 90/29/90 
f 90/29/90 103/42/103 104/40/104 91/27/91 
f 91/27/91 104/40/104 92/41/92 79/28/79 
# 72 polygons

