# 3ds Max Wavefront OBJ Exporter v0.99 - (c)2007 guruware
# File Created: 23.09.2021 15:21:44

mtllib Cloud4.mtl

#
# object Object004
#

v  -9.1229 74.5194 282.7817
v  -53.4614 74.5194 287.1487
v  -54.3301 29.3122 282.7817
v  -9.1229 29.3122 278.3292
v  -96.0961 74.5194 300.0817
v  -97.8000 29.3122 295.9681
v  -135.3884 74.5194 321.0839
v  -137.8621 29.3122 317.3818
v  -169.8284 74.5194 349.3481
v  -172.9768 29.3122 346.1997
v  -198.0926 74.5194 383.7881
v  -201.7947 29.3122 381.3145
v  -219.0948 74.5194 423.0805
v  -223.2084 29.3122 421.3766
v  -232.0279 74.5194 465.7152
v  -236.3948 29.3122 464.8465
v  -236.3948 74.5194 510.0533
v  -240.8474 29.3122 510.0533
v  218.1491 74.5194 510.0533
v  213.7821 74.5194 465.7148
v  218.1491 29.3122 464.8461
v  222.6017 29.3122 510.0533
v  200.8490 74.5194 423.0801
v  204.9626 29.3122 421.3762
v  179.8467 74.5194 383.7878
v  183.5488 29.3122 381.3141
v  151.5824 74.5194 349.3478
v  154.7308 29.3122 346.1994
v  117.1423 74.5194 321.0837
v  119.6161 29.3122 317.3816
v  77.8500 74.5194 300.0815
v  79.5538 29.3122 295.9680
v  35.2152 74.5194 287.1486
v  36.0839 29.3122 282.7816
v  -9.1229 74.5194 737.3250
v  -9.1229 29.3122 741.7775
v  -54.3301 29.3122 737.3250
v  -53.4614 74.5194 732.9580
v  -97.8000 29.3122 724.1385
v  -96.0961 74.5194 720.0250
v  -137.8621 29.3122 702.7250
v  -135.3884 74.5194 699.0228
v  -172.9768 29.3122 673.9070
v  -169.8284 74.5194 670.7585
v  -201.7947 29.3122 638.7922
v  -198.0926 74.5194 636.3185
v  -223.2084 29.3122 598.7301
v  -219.0948 74.5194 597.0262
v  -236.3948 29.3122 555.2602
v  -232.0279 74.5194 554.3915
v  218.1491 29.3122 555.2606
v  213.7821 74.5194 554.3920
v  204.9626 29.3122 598.7305
v  200.8490 74.5194 597.0266
v  183.5488 29.3122 638.7926
v  179.8467 74.5194 636.3189
v  154.7308 29.3122 673.9073
v  151.5824 74.5194 670.7589
v  119.6161 29.3122 702.7252
v  117.1423 74.5194 699.0230
v  79.5538 29.3122 724.1388
v  77.8500 74.5194 720.0251
v  36.0839 29.3122 737.3251
v  35.2152 74.5194 732.9581
# 64 vertices

vn 0.0000 -0.0980 0.9952
vn 0.1942 -0.0980 0.9761
vn 0.3808 -0.0980 0.9194
vn 0.5529 -0.0980 0.8275
vn 0.7037 -0.0980 0.7037
vn 0.8275 -0.0980 0.5529
vn 0.9194 -0.0980 0.3808
vn 0.9761 -0.0980 0.1942
vn 0.9952 -0.0980 -0.0000
vn -0.9952 -0.0980 -0.0000
vn -0.9761 -0.0980 0.1942
vn -0.9194 -0.0980 0.3808
vn -0.8275 -0.0980 0.5529
vn -0.7037 -0.0980 0.7037
vn -0.5529 -0.0980 0.8275
vn -0.3808 -0.0980 0.9194
vn -0.1941 -0.0980 0.9761
vn 0.0000 -0.0980 -0.9952
vn 0.1942 -0.0980 -0.9761
vn 0.3808 -0.0980 -0.9194
vn 0.5529 -0.0980 -0.8275
vn 0.7037 -0.0980 -0.7037
vn 0.8275 -0.0980 -0.5529
vn 0.9194 -0.0980 -0.3808
vn 0.9761 -0.0980 -0.1942
vn -0.9761 -0.0980 -0.1942
vn -0.9194 -0.0980 -0.3808
vn -0.8275 -0.0980 -0.5529
vn -0.7037 -0.0980 -0.7037
vn -0.5529 -0.0980 -0.8275
vn -0.3808 -0.0980 -0.9194
vn -0.1941 -0.0980 -0.9761
# 32 vertex normals

vt 0.7971 0.5222 0.0000
vt 0.8222 0.5222 0.0000
vt 0.8222 0.4718 0.0000
vt 0.7971 0.4718 0.0000
vt 0.8474 0.5222 0.0000
vt 0.8474 0.4718 0.0000
vt 0.8726 0.5222 0.0000
vt 0.8726 0.4718 0.0000
vt 0.8978 0.5222 0.0000
vt 0.8978 0.4718 0.0000
vt 0.9230 0.5222 0.0000
vt 0.9230 0.4718 0.0000
vt 0.9482 0.5222 0.0000
vt 0.9482 0.4718 0.0000
vt 0.9734 0.5222 0.0000
vt 0.9734 0.4718 0.0000
vt 0.9986 0.5222 0.0000
vt 0.9986 0.4718 0.0000
vt 0.5955 0.5222 0.0000
vt 0.6207 0.5222 0.0000
vt 0.6207 0.4718 0.0000
vt 0.5955 0.4718 0.0000
vt 0.6459 0.5222 0.0000
vt 0.6459 0.4718 0.0000
vt 0.6711 0.5222 0.0000
vt 0.6711 0.4718 0.0000
vt 0.6963 0.5222 0.0000
vt 0.6963 0.4718 0.0000
vt 0.7215 0.5222 0.0000
vt 0.7215 0.4718 0.0000
vt 0.7467 0.5222 0.0000
vt 0.7467 0.4718 0.0000
vt 0.7719 0.5222 0.0000
vt 0.7719 0.4718 0.0000
# 34 texture coords

o Object004
g Object004
usemtl 02___Default
s 1
f 1/1/1 2/2/2 3/3/2 4/4/1 
f 2/2/2 5/5/3 6/6/3 3/3/2 
f 5/5/3 7/7/4 8/8/4 6/6/3 
f 7/7/4 9/9/5 10/10/5 8/8/4 
f 9/9/5 11/11/6 12/12/6 10/10/5 
f 11/11/6 13/13/7 14/14/7 12/12/6 
f 13/13/7 15/15/8 16/16/8 14/14/7 
f 15/15/8 17/17/9 18/18/9 16/16/8 
f 19/19/10 20/20/11 21/21/11 22/22/10 
f 20/20/11 23/23/12 24/24/12 21/21/11 
f 23/23/12 25/25/13 26/26/13 24/24/12 
f 25/25/13 27/27/14 28/28/14 26/26/13 
f 27/27/14 29/29/15 30/30/15 28/28/14 
f 29/29/15 31/31/16 32/32/16 30/30/15 
f 31/31/16 33/33/17 34/34/17 32/32/16 
f 33/33/17 1/1/1 4/4/1 34/34/17 
f 35/1/18 36/4/18 37/34/19 38/33/19 
f 38/33/19 37/34/19 39/32/20 40/31/20 
f 40/31/20 39/32/20 41/30/21 42/29/21 
f 42/29/21 41/30/21 43/28/22 44/27/22 
f 44/27/22 43/28/22 45/26/23 46/25/23 
f 46/25/23 45/26/23 47/24/24 48/23/24 
f 48/23/24 47/24/24 49/21/25 50/20/25 
f 50/20/25 49/21/25 18/22/9 17/19/9 
f 19/17/10 22/18/10 51/16/26 52/15/26 
f 52/15/26 51/16/26 53/14/27 54/13/27 
f 54/13/27 53/14/27 55/12/28 56/11/28 
f 56/11/28 55/12/28 57/10/29 58/9/29 
f 58/9/29 57/10/29 59/8/30 60/7/30 
f 60/7/30 59/8/30 61/6/31 62/5/31 
f 62/5/31 61/6/31 63/3/32 64/2/32 
f 64/2/32 63/3/32 36/4/18 35/1/18 
# 32 polygons

