# 3ds Max Wavefront OBJ Exporter v0.99 - (c)2007 guruware
# File Created: 23.09.2021 15:06:29

mtllib Flower1.mtl

#
# object Plane018
#

v  29.6803 5.5946 440.6542
v  29.3748 4.9429 442.1258
v  31.6382 5.3344 442.1166
v  30.9135 6.6341 440.3669
v  31.0975 5.6628 444.3248
v  32.3307 6.7022 444.0375
v  32.6361 7.3540 442.5659
v  29.8218 4.8475 443.6989
v  32.1891 7.4494 440.9927
# 9 vertices

vn -0.5991 0.7707 0.2170
vn -0.1644 0.9562 0.2423
vn -0.5112 0.5750 0.6388
vn -0.5527 0.7939 -0.2534
vn -0.8996 0.4127 0.1431
# 5 vertex normals

vt 0.0937 0.6191 0.0000
vt 0.0558 0.6311 0.0000
vt 0.0561 0.5810 0.0000
vt 0.1061 0.5813 0.0000
vt 0.0060 0.5807 0.0000
vt 0.0184 0.5430 0.0000
vt 0.0564 0.5310 0.0000
vt 0.0180 0.6187 0.0000
vt 0.0941 0.5434 0.0000
# 9 texture coords

o Plane018
g Plane018
usemtl 02___Default
s 1
f 1/1/1 2/2/2 3/3/1 4/4/3 
f 5/5/4 6/6/1 7/7/5 3/3/1 
f 2/2/2 8/8/1 5/5/4 3/3/1 
f 7/7/5 9/9/1 4/4/3 3/3/1 
# 4 polygons

#
# object Plane019
#

v  32.8526 3.8540 436.5017
v  31.3757 3.5453 437.1396
v  32.6915 4.0864 438.9430
v  33.9308 4.8835 437.1810
v  30.6353 4.8835 439.5855
v  31.7135 5.9129 440.2648
v  33.1904 6.2217 439.6268
v  30.3174 3.8540 438.3514
v  34.2487 5.9129 438.4150
# 9 vertices

vn -0.3867 0.7547 -0.5300
vn -0.1388 0.9719 -0.1903
vn -0.7148 0.6702 -0.1996
vn 0.0281 0.6702 -0.7417
vn -0.5479 0.3685 -0.7510
# 5 vertex normals

vt 0.0937 0.6191 0.0000
vt 0.0558 0.6311 0.0000
vt 0.0561 0.5810 0.0000
vt 0.1061 0.5813 0.0000
vt 0.0060 0.5807 0.0000
vt 0.0184 0.5430 0.0000
vt 0.0564 0.5310 0.0000
vt 0.0180 0.6187 0.0000
vt 0.0941 0.5434 0.0000
# 9 texture coords

o Plane019
g Plane019
usemtl 02___Default
s 1
f 10/10/6 11/11/7 12/12/6 13/13/8 
f 14/14/9 15/15/6 16/16/10 12/12/6 
f 11/11/7 17/17/6 14/14/9 12/12/6 
f 16/16/10 18/18/6 13/13/8 12/12/6 
# 4 polygons

#
# object Plane050
#

v  33.7988 4.6443 444.2632
v  34.4627 3.9926 445.6116
v  36.2421 4.3841 444.2126
v  34.5946 5.6838 443.2784
v  37.1734 4.7125 446.2865
v  37.9692 5.7519 445.3017
v  37.3052 6.4036 443.9533
v  35.7826 3.8972 446.5773
v  35.9854 6.4991 442.9875
# 9 vertices

vn -0.3390 0.7707 0.5395
vn 0.0193 0.9562 0.2922
vn -0.0104 0.5750 0.8181
vn -0.5917 0.7939 0.1400
vn -0.6214 0.4127 0.6660
# 5 vertex normals

vt 0.0937 0.6191 0.0000
vt 0.0558 0.6311 0.0000
vt 0.0561 0.5810 0.0000
vt 0.1061 0.5813 0.0000
vt 0.0060 0.5807 0.0000
vt 0.0184 0.5430 0.0000
vt 0.0564 0.5310 0.0000
vt 0.0180 0.6187 0.0000
vt 0.0941 0.5434 0.0000
# 9 texture coords

o Plane050
g Plane050
usemtl 02___Default
s 1
f 19/19/11 20/20/12 21/21/11 22/22/13 
f 23/23/14 24/24/11 25/25/15 21/21/11 
f 20/20/12 26/26/11 23/23/14 21/21/11 
f 25/25/15 27/27/11 22/22/13 21/21/11 
# 4 polygons

#
# object Plane137
#

v  32.7264 3.8254 440.2193
v  33.7089 3.7098 440.0228
v  33.1208 2.9330 439.1438
v  32.0151 3.2756 439.7620
v  34.0628 3.3465 438.3292
v  33.2566 3.2351 437.7580
v  32.1998 2.8115 437.8216
v  34.2364 3.8183 439.1870
v  31.7594 3.1833 438.8057
# 9 vertices

vn -0.0643 0.6860 -0.7247
vn -0.3319 0.8059 -0.4902
vn -0.2200 0.9379 -0.2680
vn 0.0367 0.9004 -0.4335
vn -0.4444 0.8938 -0.0601
vn -0.3385 0.8904 0.3041
vn -0.0663 0.9968 -0.0454
vn -0.6056 0.7426 -0.2859
vn 0.3598 0.9146 -0.1845
# 9 vertex normals

vt 0.2055 0.8182 0.0000
vt 0.2055 0.7813 0.0000
vt 0.2413 0.7813 0.0000
vt 0.2413 0.8182 0.0000
vt 0.2413 0.7444 0.0000
vt 0.2771 0.7444 0.0000
vt 0.2771 0.7813 0.0000
vt 0.2055 0.7444 0.0000
vt 0.2771 0.8182 0.0000
# 9 texture coords

o Plane137
g Plane137
usemtl 02___Default
s 1
f 28/28/16 29/29/17 30/30/18 31/31/19 
f 32/32/20 33/33/21 34/34/22 30/30/18 
f 29/29/17 35/35/23 32/32/20 30/30/18 
f 34/34/22 36/36/24 31/31/19 30/30/18 
# 4 polygons

#
# object Plane138
#

v  33.0383 3.9050 443.1239
v  33.1127 3.7716 441.9692
v  31.9564 2.8744 442.3625
v  32.3156 3.2701 443.7806
v  31.3293 3.3520 441.0683
v  30.4512 3.2234 441.7968
v  30.2063 2.7342 442.9947
v  32.3380 3.8968 441.1310
v  31.1723 3.1635 443.7800
# 9 vertices

vn -0.7167 0.6860 -0.1255
vn -0.5594 0.8059 0.1937
vn -0.3159 0.9379 0.1432
vn -0.4092 0.9004 -0.1476
vn -0.1731 0.8938 0.4137
vn 0.2062 0.8904 0.4057
vn -0.0610 0.9968 0.0523
vn -0.4329 0.7426 0.5110
vn -0.0851 0.9146 -0.3953
# 9 vertex normals

vt 0.2055 0.8182 0.0000
vt 0.2055 0.7813 0.0000
vt 0.2413 0.7813 0.0000
vt 0.2413 0.8182 0.0000
vt 0.2413 0.7444 0.0000
vt 0.2771 0.7444 0.0000
vt 0.2771 0.7813 0.0000
vt 0.2055 0.7444 0.0000
vt 0.2771 0.8182 0.0000
# 9 texture coords

o Plane138
g Plane138
usemtl 02___Default
s 1
f 37/37/25 38/38/26 39/39/27 40/40/28 
f 41/41/29 42/42/30 43/43/31 39/39/27 
f 38/38/26 44/44/32 41/41/29 39/39/27 
f 43/43/31 45/45/33 40/40/28 39/39/27 
# 4 polygons

#
# object Plane139
#

v  37.7158 3.9625 444.0504
v  37.3224 3.8161 442.8438
v  36.3043 2.8322 443.7144
v  37.2464 3.2661 445.0130
v  35.1396 3.3560 442.6507
v  34.5411 3.2149 443.7496
v  34.7783 2.6784 445.0694
v  36.1927 3.9535 442.3047
v  36.0815 3.1492 445.4769
# 9 vertices

vn -0.7122 0.6860 0.1490
vn -0.4478 0.8059 0.3872
vn -0.2403 0.9379 0.2500
vn -0.4348 0.9004 0.0145
vn -0.0075 0.8938 0.4483
vn 0.3418 0.8904 0.3005
vn -0.0373 0.9968 0.0711
vn -0.2127 0.7426 0.6350
vn -0.2255 0.9146 -0.3356
# 9 vertex normals

vt 0.2055 0.8182 0.0000
vt 0.2055 0.7813 0.0000
vt 0.2413 0.7813 0.0000
vt 0.2413 0.8182 0.0000
vt 0.2413 0.7444 0.0000
vt 0.2771 0.7444 0.0000
vt 0.2771 0.7813 0.0000
vt 0.2055 0.7444 0.0000
vt 0.2771 0.8182 0.0000
# 9 texture coords

o Plane139
g Plane139
usemtl 02___Default
s 1
f 46/46/34 47/47/35 48/48/36 49/49/37 
f 50/50/38 51/51/39 52/52/40 48/48/36 
f 47/47/35 53/53/41 50/50/38 48/48/36 
f 52/52/40 54/54/42 49/49/37 48/48/36 
# 4 polygons

#
# object Cylinder113
#

v  31.9476 2.6393 442.0237
v  31.8064 2.6465 441.9417
v  31.9887 4.0430 441.9804
v  32.1299 4.0358 442.0624
v  31.8061 2.6420 442.1054
v  31.9884 4.0385 442.1441
v  31.6360 5.3043 442.0183
v  31.7389 5.4012 442.1003
v  31.6390 5.3009 442.1820
# 9 vertices

vn 1.0033 -0.0772 -0.0001
vn -0.5176 0.0634 -0.8553
vn -0.4830 0.0442 -0.8748
vn 1.0000 -0.0406 0.0009
vn -0.5210 0.0165 0.8553
vn -0.4867 -0.0042 0.8738
vn -0.0552 0.0283 -0.9981
vn 0.9954 -0.0038 -0.0114
vn 0.0236 -0.0281 0.9993
# 9 vertex normals

vt 0.1865 0.6476 0.0000
vt 0.2028 0.6476 0.0000
vt 0.2028 0.7307 0.0000
vt 0.1865 0.7307 0.0000
vt 0.1866 0.6476 0.0000
vt 0.2029 0.6476 0.0000
vt 0.2029 0.7307 0.0000
vt 0.1867 0.7307 0.0000
vt 0.2028 0.8138 0.0000
vt 0.1865 0.8138 0.0000
vt 0.2029 0.8138 0.0000
vt 0.1867 0.8138 0.0000
# 12 texture coords

o Cylinder113
g Cylinder113
usemtl 02___Default
s 8
f 55/55/43 56/56/44 57/57/45 58/58/46 
f 56/55/44 59/56/47 60/57/48 57/58/45 
f 59/59/47 55/60/43 58/61/46 60/62/48 
f 58/58/46 57/57/45 61/63/49 62/64/50 
f 57/58/45 60/57/48 63/63/51 61/64/49 
f 60/62/48 58/61/46 62/65/50 63/66/51 
# 6 polygons

#
# object Cylinder114
#

v  36.1444 1.7141 443.8223
v  36.0290 1.7213 443.9377
v  36.1131 3.1178 443.7714
v  36.2286 3.1106 443.6560
v  36.1872 1.7168 443.9799
v  36.2713 3.1133 443.8137
v  36.0382 4.2906 444.1891
v  36.1439 4.3875 444.1107
v  36.1973 4.2872 444.2282
# 9 vertices

vn 0.2570 -0.0772 -0.9698
vn -0.9593 0.0634 0.2811
vn -0.9702 0.0407 0.2388
vn 0.2571 -0.0341 -0.9657
vn 0.6933 0.0165 0.7228
vn 0.7224 -0.0077 0.6914
vn -0.9842 0.0271 -0.1748
vn 0.2439 0.0095 -0.9630
vn 0.9643 -0.0280 0.2635
# 9 vertex normals

vt 0.1865 0.6476 0.0000
vt 0.2028 0.6476 0.0000
vt 0.2028 0.7307 0.0000
vt 0.1865 0.7307 0.0000
vt 0.1866 0.6476 0.0000
vt 0.2029 0.6476 0.0000
vt 0.2029 0.7307 0.0000
vt 0.1867 0.7307 0.0000
vt 0.2028 0.8138 0.0000
vt 0.1865 0.8138 0.0000
vt 0.2029 0.8138 0.0000
vt 0.1867 0.8138 0.0000
# 12 texture coords

o Cylinder114
g Cylinder114
usemtl 02___Default
s 8
f 64/67/52 65/68/53 66/69/54 67/70/55 
f 65/67/53 68/68/56 69/69/57 66/70/54 
f 68/71/56 64/72/52 67/73/55 69/74/57 
f 67/70/55 66/69/54 70/75/58 71/76/59 
f 66/70/54 69/69/57 72/75/60 70/76/58 
f 69/74/57 67/73/55 71/77/59 72/78/60 
# 6 polygons

#
# object Cylinder115
#

v  32.9522 1.3539 439.1524
v  32.8856 1.3610 439.0034
v  33.0109 2.7575 439.1413
v  33.0776 2.7504 439.2903
v  32.7896 1.3565 439.1361
v  32.9150 2.7530 439.2740
v  32.6353 4.1051 438.9177
v  32.6709 4.2020 439.0444
v  32.5421 4.1018 439.0524
# 9 vertices

vn 0.8144 -0.0772 0.5860
vn 0.0795 0.0634 -0.9965
vn 0.1210 0.0422 -0.9919
vn 0.8108 -0.0371 0.5848
vn -0.9225 0.0165 0.3899
vn -0.9044 -0.0060 0.4268
vn 0.5260 0.0274 -0.8500
vn 0.8136 0.0033 0.5717
vn -0.5796 -0.0277 0.8144
# 9 vertex normals

vt 0.1865 0.6476 0.0000
vt 0.2028 0.6476 0.0000
vt 0.2028 0.7307 0.0000
vt 0.1865 0.7307 0.0000
vt 0.1866 0.6476 0.0000
vt 0.2029 0.6476 0.0000
vt 0.2029 0.7307 0.0000
vt 0.1867 0.7307 0.0000
vt 0.2028 0.8138 0.0000
vt 0.1865 0.8138 0.0000
vt 0.2029 0.8138 0.0000
vt 0.1867 0.8138 0.0000
# 12 texture coords

o Cylinder115
g Cylinder115
usemtl 02___Default
s 8
f 73/79/61 74/80/62 75/81/63 76/82/64 
f 74/79/62 77/80/65 78/81/66 75/82/63 
f 77/83/65 73/84/61 76/85/64 78/86/66 
f 76/82/64 75/81/63 79/87/67 80/88/68 
f 75/82/63 78/81/66 81/87/69 79/88/67 
f 78/86/66 76/85/64 80/89/68 81/90/69 
# 6 polygons

