# 3ds Max Wavefront OBJ Exporter v0.99 - (c)2007 guruware
# File Created: 23.09.2021 23:58:37

mtllib Flower_Bush1.mtl

#
# object Plane136
#

v  1.1911 0.4350 0.4565
v  1.2790 0.3485 0.5857
v  1.4314 0.4148 0.4253
v  1.2557 0.5048 0.3053
v  1.5978 0.3926 0.5839
v  1.6557 0.5125 0.4612
v  1.6119 0.5743 0.2678
v  1.4395 0.3659 0.6676
v  1.4055 0.5945 0.2574
# 9 vertices

vn 0.1636 0.8674 0.4699
vn -0.0374 0.9355 0.3513
vn -0.1059 0.8706 0.4804
vn -0.0156 0.7890 0.6142
vn -0.2428 0.8927 0.3797
vn -0.6392 0.6787 0.3615
vn -0.2042 0.7952 0.5709
vn -0.1366 0.9890 0.0575
vn 0.0015 0.4687 0.8834
# 9 vertex normals

vt 0.2055 0.8182 0.0000
vt 0.2055 0.7813 0.0000
vt 0.2413 0.7813 0.0000
vt 0.2413 0.8182 0.0000
vt 0.2413 0.7444 0.0000
vt 0.2771 0.7444 0.0000
vt 0.2771 0.7813 0.0000
vt 0.2055 0.7444 0.0000
vt 0.2771 0.8182 0.0000
# 9 texture coords

o Plane136
g Plane136
usemtl 02___Default
s 1
f 1/1/1 2/2/2 3/3/3 4/4/4 
f 5/5/5 6/6/6 7/7/7 3/3/3 
f 2/2/2 8/8/8 5/5/5 3/3/3 
f 7/7/7 9/9/9 4/4/4 3/3/3 
# 4 polygons

#
# object Plane140
#

v  1.4182 0.5341 0.3559
v  1.3366 0.5028 0.3915
v  1.4335 0.4268 0.4389
v  1.5055 0.5262 0.3905
v  1.3490 0.4200 0.5400
v  1.4363 0.4122 0.5746
v  1.5178 0.4434 0.5390
v  1.3029 0.4559 0.4660
v  1.5516 0.4904 0.4646
# 9 vertices

vn -0.1168 0.8634 0.4909
vn 0.1992 0.6884 0.6975
vn -0.3709 0.6094 0.7007
vn 0.1576 0.9678 0.1960
vn -0.4125 0.8889 0.1993
# 5 vertex normals

vt 0.2131 0.6198 0.0000
vt 0.1761 0.6341 0.0000
vt 0.1755 0.5831 0.0000
vt 0.2265 0.5824 0.0000
vt 0.1245 0.5837 0.0000
vt 0.1379 0.5463 0.0000
vt 0.1749 0.5321 0.0000
vt 0.1388 0.6207 0.0000
vt 0.2122 0.5455 0.0000
# 9 texture coords

o Plane140
g Plane140
usemtl 02___Default
s 1
f 10/10/10 11/11/11 12/12/10 13/13/12 
f 14/14/13 15/15/10 16/16/14 12/12/10 
f 11/11/11 17/17/10 14/14/13 12/12/10 
f 16/16/14 18/18/10 13/13/12 12/12/10 
# 4 polygons

#
# object Plane141
#

v  1.0045 0.3596 0.2919
v  1.0685 0.3223 0.4276
v  1.2052 0.4178 0.3172
v  1.0695 0.4306 0.1708
v  1.3048 0.4582 0.4859
v  1.3432 0.5684 0.3813
v  1.3358 0.5973 0.2040
v  1.1696 0.3899 0.5265
v  1.1712 0.5483 0.1509
# 9 vertices

vn -0.2735 0.8867 0.3728
vn -0.4460 0.8719 0.2021
vn -0.5204 0.7921 0.3191
vn -0.4472 0.7546 0.4801
vn -0.6242 0.7586 0.1869
vn -0.9039 0.4146 0.1051
vn -0.6077 0.6900 0.3932
vn -0.4747 0.8731 -0.1113
vn -0.3952 0.4742 0.7867
# 9 vertex normals

vt 0.2055 0.8182 0.0000
vt 0.2055 0.7813 0.0000
vt 0.2413 0.7813 0.0000
vt 0.2413 0.8182 0.0000
vt 0.2413 0.7444 0.0000
vt 0.2771 0.7444 0.0000
vt 0.2771 0.7813 0.0000
vt 0.2055 0.7444 0.0000
vt 0.2771 0.8182 0.0000
# 9 texture coords

o Plane141
g Plane141
usemtl 02___Default
s 1
f 19/19/15 20/20/16 21/21/17 22/22/18 
f 23/23/19 24/24/20 25/25/21 21/21/17 
f 20/20/16 26/26/22 23/23/19 21/21/17 
f 25/25/21 27/27/23 22/22/18 21/21/17 
# 4 polygons

#
# object Plane142
#

v  1.1759 0.5072 0.2426
v  1.1132 0.4577 0.2593
v  1.2002 0.4286 0.3276
v  1.2384 0.5296 0.2902
v  1.1127 0.4003 0.3954
v  1.1751 0.4227 0.4430
v  1.2378 0.4723 0.4263
v  1.0834 0.4120 0.3201
v  1.2677 0.5180 0.3655
# 9 vertices

vn -0.5305 0.7819 0.3275
vn -0.2417 0.7426 0.6245
vn -0.7296 0.4620 0.5041
vn -0.2395 0.9663 0.0942
vn -0.7274 0.6857 -0.0262
# 5 vertex normals

vt 0.2131 0.6198 0.0000
vt 0.1761 0.6341 0.0000
vt 0.1755 0.5831 0.0000
vt 0.2265 0.5824 0.0000
vt 0.1245 0.5837 0.0000
vt 0.1379 0.5463 0.0000
vt 0.1749 0.5321 0.0000
vt 0.1388 0.6207 0.0000
vt 0.2122 0.5455 0.0000
# 9 texture coords

o Plane142
g Plane142
usemtl 02___Default
s 1
f 28/28/24 29/29/25 30/30/24 31/31/26 
f 32/32/27 33/33/24 34/34/28 30/30/24 
f 29/29/25 35/35/24 32/32/27 30/30/24 
f 34/34/28 36/36/24 31/31/26 30/30/24 
# 4 polygons

#
# object Plane143
#

v  1.4371 0.3742 -0.1886
v  1.3057 0.4383 -0.0677
v  1.5165 0.4115 0.0570
v  1.6175 0.3297 -0.1518
v  1.4335 0.5611 0.2273
v  1.6272 0.5667 0.2356
v  1.8007 0.4542 0.1699
v  1.3059 0.5563 0.0813
v  1.7618 0.3974 -0.0417
# 9 vertices

vn 0.3179 0.9137 -0.2228
vn 0.3910 0.8176 -0.4357
vn 0.2398 0.8471 -0.4749
vn 0.1171 0.9141 -0.3597
vn 0.2866 0.7526 -0.6092
vn 0.0449 0.4945 -0.8875
vn 0.0998 0.8349 -0.5367
vn 0.6013 0.6196 -0.5438
vn -0.2815 0.9050 -0.2152
# 9 vertex normals

vt 0.2055 0.8182 0.0000
vt 0.2055 0.7813 0.0000
vt 0.2413 0.7813 0.0000
vt 0.2413 0.8182 0.0000
vt 0.2413 0.7444 0.0000
vt 0.2771 0.7444 0.0000
vt 0.2771 0.7813 0.0000
vt 0.2055 0.7444 0.0000
vt 0.2771 0.8182 0.0000
# 9 texture coords

o Plane143
g Plane143
usemtl 02___Default
s 1
f 37/37/29 38/38/30 39/39/31 40/40/32 
f 41/41/33 42/42/34 43/43/35 39/39/31 
f 38/38/30 44/44/36 41/41/33 39/39/31 
f 43/43/35 45/45/37 40/40/32 39/39/31 
# 4 polygons

#
# object Plane144
#

v  1.6497 0.4334 -0.0054
v  1.5769 0.4145 -0.0730
v  1.5158 0.4294 0.0538
v  1.6445 0.4795 0.0833
v  1.4117 0.4720 -0.0284
v  1.4065 0.5182 0.0602
v  1.4794 0.5371 0.1278
v  1.4783 0.4279 -0.0877
v  1.5779 0.5237 0.1425
# 9 vertices

vn 0.2248 0.8467 -0.4822
vn 0.0495 0.9693 -0.1196
vn -0.1614 0.7616 -0.6165
vn 0.5721 0.7852 -0.2644
vn 0.3611 0.5775 -0.7614
# 5 vertex normals

vt 0.2131 0.6198 0.0000
vt 0.1761 0.6341 0.0000
vt 0.1755 0.5831 0.0000
vt 0.2265 0.5824 0.0000
vt 0.1245 0.5837 0.0000
vt 0.1379 0.5463 0.0000
vt 0.1749 0.5321 0.0000
vt 0.1388 0.6207 0.0000
vt 0.2122 0.5455 0.0000
# 9 texture coords

o Plane144
g Plane144
usemtl 02___Default
s 1
f 46/46/38 47/47/39 48/48/38 49/49/40 
f 50/50/41 51/51/38 52/52/42 48/48/38 
f 47/47/39 53/53/38 50/50/41 48/48/38 
f 52/52/42 54/54/38 49/49/40 48/48/38 
# 4 polygons

#
# object Plane145
#

v  1.0058 0.3629 0.0708
v  1.0640 0.4586 0.2238
v  1.2625 0.4059 0.0878
v  1.1117 0.2908 -0.0688
v  1.3847 0.5812 0.2001
v  1.4694 0.5536 0.0277
v  1.4789 0.4077 -0.1325
v  1.2000 0.5867 0.2590
v  1.2697 0.3412 -0.1689
# 9 vertices

vn -0.0837 0.8229 -0.5491
vn -0.2493 0.6982 -0.6793
vn -0.3457 0.7503 -0.5641
vn -0.2893 0.8469 -0.4216
vn -0.4496 0.6383 -0.6403
vn -0.7995 0.4043 -0.4814
vn -0.4580 0.7576 -0.4597
vn -0.2634 0.4584 -0.8727
vn -0.3154 0.9193 -0.0046
# 9 vertex normals

vt 0.2055 0.8182 0.0000
vt 0.2055 0.7813 0.0000
vt 0.2413 0.7813 0.0000
vt 0.2413 0.8182 0.0000
vt 0.2413 0.7444 0.0000
vt 0.2771 0.7444 0.0000
vt 0.2771 0.7813 0.0000
vt 0.2055 0.7444 0.0000
vt 0.2771 0.8182 0.0000
# 9 texture coords

o Plane145
g Plane145
usemtl 02___Default
s 1
f 55/55/43 56/56/44 57/57/45 58/58/46 
f 59/59/47 60/60/48 61/61/49 57/57/45 
f 56/56/44 62/62/50 59/59/47 57/57/45 
f 61/61/49 63/63/51 58/58/46 57/57/45 
# 4 polygons

#
# object Plane146
#

v  1.2582 0.3991 -0.0607
v  1.1673 0.3876 -0.0178
v  1.2592 0.4233 0.0837
v  1.3371 0.4525 -0.0304
v  1.1420 0.4765 0.1372
v  1.2210 0.5300 0.1675
v  1.3119 0.5414 0.1246
v  1.1145 0.4167 0.0627
v  1.3647 0.5123 0.0441
# 9 vertices

vn -0.3583 0.7519 -0.5533
vn -0.0962 0.9327 -0.2778
vn -0.6347 0.7246 -0.2414
vn -0.0199 0.6491 -0.7695
vn -0.5584 0.4410 -0.7330
# 5 vertex normals

vt 0.2131 0.6198 0.0000
vt 0.1761 0.6341 0.0000
vt 0.1755 0.5831 0.0000
vt 0.2265 0.5824 0.0000
vt 0.1245 0.5837 0.0000
vt 0.1379 0.5463 0.0000
vt 0.1749 0.5321 0.0000
vt 0.1388 0.6207 0.0000
vt 0.2122 0.5455 0.0000
# 9 texture coords

o Plane146
g Plane146
usemtl 02___Default
s 1
f 64/64/52 65/65/53 66/66/52 67/67/54 
f 68/68/55 69/69/52 70/70/56 66/66/52 
f 65/65/53 71/71/52 68/68/55 66/66/52 
f 70/70/56 72/72/52 67/67/54 66/66/52 
# 4 polygons

#
# object Plane147
#

v  1.1455 0.5346 0.2426
v  1.2197 0.5298 0.4170
v  1.4020 0.4894 0.2563
v  1.2339 0.5061 0.0774
v  1.5631 0.5518 0.4249
v  1.6463 0.5817 0.2522
v  1.6224 0.5278 0.0435
v  1.3848 0.5830 0.4947
v  1.4056 0.5483 -0.0018
# 9 vertices

vn 0.1945 0.9668 -0.1141
vn 0.0080 0.9679 -0.2725
vn -0.0758 0.9877 -0.1389
vn -0.0024 0.9889 0.0268
vn -0.2031 0.9574 -0.2485
vn -0.6152 0.7888 -0.1835
vn -0.1872 0.9792 -0.0336
vn -0.0640 0.8565 -0.5510
vn -0.0315 0.8697 0.4327
# 9 vertex normals

vt 0.2055 0.8182 0.0000
vt 0.2055 0.7813 0.0000
vt 0.2413 0.7813 0.0000
vt 0.2413 0.8182 0.0000
vt 0.2413 0.7444 0.0000
vt 0.2771 0.7444 0.0000
vt 0.2771 0.7813 0.0000
vt 0.2055 0.7444 0.0000
vt 0.2771 0.8182 0.0000
# 9 texture coords

o Plane147
g Plane147
usemtl 02___Default
s 1
f 73/73/57 74/74/58 75/75/59 76/76/60 
f 77/77/61 78/78/62 79/79/63 75/75/59 
f 74/74/58 80/80/64 77/77/61 75/75/59 
f 79/79/63 81/81/65 76/76/60 75/75/59 
# 4 polygons

#
# object Plane148
#

v  1.4049 0.5518 0.1213
v  1.3122 0.5490 0.1617
v  1.4042 0.5069 0.2607
v  1.4940 0.5606 0.1659
v  1.3046 0.5615 0.3416
v  1.3938 0.5703 0.3862
v  1.4865 0.5731 0.3458
v  1.2654 0.5525 0.2506
v  1.5333 0.5696 0.2568
# 9 vertices

vn -0.0880 0.9879 -0.1275
vn 0.1982 0.9410 0.1776
vn -0.3788 0.9039 0.1603
vn 0.2179 0.9009 -0.3933
vn -0.3591 0.8638 -0.4106
# 5 vertex normals

vt 0.2131 0.6198 0.0000
vt 0.1761 0.6341 0.0000
vt 0.1755 0.5831 0.0000
vt 0.2265 0.5824 0.0000
vt 0.1245 0.5837 0.0000
vt 0.1379 0.5463 0.0000
vt 0.1749 0.5321 0.0000
vt 0.1388 0.6207 0.0000
vt 0.2122 0.5455 0.0000
# 9 texture coords

o Plane148
g Plane148
usemtl 02___Default
s 1
f 82/82/66 83/83/67 84/84/66 85/85/68 
f 86/86/69 87/87/66 88/88/70 84/84/66 
f 83/83/67 89/89/66 86/86/69 84/84/66 
f 88/88/70 90/90/66 85/85/68 84/84/66 
# 4 polygons

#
# object Plane149
#

v  1.7805 0.4070 0.0454
v  1.6136 0.4942 0.0234
v  1.6271 0.4147 0.2562
v  1.8475 0.3208 0.2003
v  1.4550 0.5721 0.3188
v  1.5577 0.5328 0.4786
v  1.6984 0.3866 0.5553
v  1.5027 0.6027 0.1333
v  1.8447 0.3491 0.3920
# 9 vertices

vn 0.4501 0.8254 0.3189
vn 0.6567 0.7242 0.2355
vn 0.6067 0.7891 0.0992
vn 0.4496 0.8774 0.0815
vn 0.7342 0.6921 0.0400
vn 0.8018 0.5081 -0.3650
vn 0.5775 0.8118 -0.0498
vn 0.8446 0.4881 0.2992
vn 0.1058 0.9536 -0.1549
# 9 vertex normals

vt 0.2055 0.8182 0.0000
vt 0.2055 0.7813 0.0000
vt 0.2413 0.7813 0.0000
vt 0.2413 0.8182 0.0000
vt 0.2413 0.7444 0.0000
vt 0.2771 0.7444 0.0000
vt 0.2771 0.7813 0.0000
vt 0.2055 0.7444 0.0000
vt 0.2771 0.8182 0.0000
# 9 texture coords

o Plane149
g Plane149
usemtl 02___Default
s 1
f 91/91/71 92/92/72 93/93/73 94/94/74 
f 95/95/75 96/96/76 97/97/77 93/93/73 
f 92/92/72 98/98/78 95/95/75 93/93/73 
f 97/97/77 99/99/79 94/94/74 93/93/73 
# 4 polygons

#
# object Plane150
#

v  1.7554 0.4082 0.3311
v  1.7681 0.4093 0.2308
v  1.6311 0.4325 0.2576
v  1.6841 0.4505 0.3872
v  1.6442 0.5012 0.1371
v  1.5729 0.5435 0.1931
v  1.5602 0.5424 0.2935
v  1.7260 0.4455 0.1469
v  1.6023 0.5062 0.3773
# 9 vertices

vn 0.6042 0.7925 0.0831
vn 0.2197 0.9365 0.1762
vn 0.4891 0.8036 -0.3182
vn 0.6148 0.6441 0.4700
vn 0.8841 0.5112 -0.0244
# 5 vertex normals

vt 0.2131 0.6198 0.0000
vt 0.1761 0.6341 0.0000
vt 0.1755 0.5831 0.0000
vt 0.2265 0.5824 0.0000
vt 0.1245 0.5837 0.0000
vt 0.1379 0.5463 0.0000
vt 0.1749 0.5321 0.0000
vt 0.1388 0.6207 0.0000
vt 0.2122 0.5455 0.0000
# 9 texture coords

o Plane150
g Plane150
usemtl 02___Default
s 1
f 100/100/80 101/101/81 102/102/80 103/103/82 
f 104/104/83 105/105/80 106/106/84 102/102/80 
f 101/101/81 107/107/80 104/104/83 102/102/80 
f 106/106/84 108/108/80 103/103/82 102/102/80 
# 4 polygons

#
# object Plane151
#

v  1.5572 0.3062 -0.1530
v  1.7760 0.3692 0.0557
v  1.4197 0.4425 0.2251
v  1.2516 0.3371 -0.1231
v  1.5857 0.4179 0.5807
v  1.2785 0.3526 0.6162
v  0.9710 0.3878 0.4457
v  1.8011 0.3405 0.3629
v  1.0342 0.2935 0.1016
# 9 vertices

vn -0.1085 -0.9344 0.3173
vn -0.1871 -0.9838 0.0909
vn -0.0311 -0.9978 0.0641
vn 0.0958 -0.9662 0.1896
vn -0.0883 -1.0013 -0.0967
vn 0.1109 -0.8877 -0.4838
vn 0.1068 -0.9918 -0.0031
vn -0.4271 -0.9221 -0.0928
vn 0.4746 -0.7997 0.2823
# 9 vertex normals

vt 0.2055 0.8182 0.0000
vt 0.2055 0.7813 0.0000
vt 0.2413 0.7813 0.0000
vt 0.2413 0.8182 0.0000
vt 0.2413 0.7444 0.0000
vt 0.2771 0.7444 0.0000
vt 0.2771 0.7813 0.0000
vt 0.2055 0.7444 0.0000
vt 0.2771 0.8182 0.0000
# 9 texture coords

o Plane151
g Plane151
usemtl 02___Default
s 1
f 109/109/85 110/110/86 111/111/87 112/112/88 
f 113/113/89 114/114/90 115/115/91 111/111/87 
f 110/110/86 116/116/92 113/113/89 111/111/87 
f 115/115/91 117/117/93 112/112/88 111/111/87 
# 4 polygons

#
# object Plane152
#

v  1.6757 0.3281 0.5010
v  1.4153 0.3771 0.5889
v  1.4171 0.4029 0.2271
v  1.7723 0.3333 0.2393
v  1.0649 0.3550 0.2235
v  1.1639 0.2734 -0.0317
v  1.4228 0.3028 -0.2163
v  1.1590 0.3216 0.4911
v  1.6811 0.2575 -0.0201
# 9 vertices

vn -0.1694 -0.9696 -0.1296
vn 0.0712 -0.9984 -0.0956
vn 0.0267 -0.9983 0.0570
vn -0.1440 -0.9723 0.1121
vn 0.1960 -0.9876 0.0764
vn 0.4451 -0.8173 0.4102
vn 0.0250 -0.9751 0.2088
vn 0.3376 -0.9334 -0.2367
vn -0.4070 -0.7912 0.3911
# 9 vertex normals

vt 0.2055 0.8182 0.0000
vt 0.2055 0.7813 0.0000
vt 0.2413 0.7813 0.0000
vt 0.2413 0.8182 0.0000
vt 0.2413 0.7444 0.0000
vt 0.2771 0.7444 0.0000
vt 0.2771 0.7813 0.0000
vt 0.2055 0.7444 0.0000
vt 0.2771 0.8182 0.0000
# 9 texture coords

o Plane152
g Plane152
usemtl 02___Default
s 1
f 118/118/94 119/119/95 120/120/96 121/121/97 
f 122/122/98 123/123/99 124/124/100 120/120/96 
f 119/119/95 125/125/101 122/122/98 120/120/96 
f 124/124/100 126/126/102 121/121/97 120/120/96 
# 4 polygons

