# 3ds Max Wavefront OBJ Exporter v0.99 - (c)2007 guruware
# File Created: 23.09.2021 15:17:32

mtllib Shell3.mtl

#
# object Plane168
#

v  13.9922 1.0975 31.3149
v  13.9922 1.4579 34.8149
v  17.4922 2.0284 34.8149
v  17.4922 1.4579 31.3149
v  13.9922 1.0975 38.3149
v  17.4922 1.4579 38.3149
v  20.9922 1.4579 34.8149
v  20.9922 1.0975 31.3149
v  20.9922 1.0975 38.3149
# 9 vertices

vn -0.1019 0.9896 -0.1019
vn -0.1609 0.9870 -0.0000
vn 0.0000 1.0000 -0.0000
vn 0.0000 0.9870 -0.1609
vn -0.1019 0.9896 0.1019
vn 0.0000 0.9870 0.1609
vn 0.1609 0.9870 -0.0000
vn 0.1019 0.9896 -0.1019
vn 0.1019 0.9896 0.1019
# 9 vertex normals

vt 0.0974 0.8136 0.0000
vt 0.0974 0.7807 0.0000
vt 0.1303 0.7807 0.0000
vt 0.1303 0.8136 0.0000
vt 0.0974 0.7477 0.0000
vt 0.1303 0.7477 0.0000
vt 0.1633 0.7807 0.0000
vt 0.1633 0.8136 0.0000
vt 0.1633 0.7477 0.0000
# 9 texture coords

o Plane168
g Plane168
usemtl 02___Default
s 1
f 1/1/1 2/2/2 3/3/3 4/4/4 
f 2/2/2 5/5/5 6/6/6 3/3/3 
f 3/3/3 7/7/7 8/8/8 4/4/4 
f 6/6/6 9/9/9 7/7/7 3/3/3 
# 4 polygons

