{"accessors":[{"bufferView":0,"componentType":5121,"count":6,"max":[3],"min":[0],"type":"SCALAR"},{"bufferView":1,"componentType":5126,"count":4,"max":[10.524999618530273,2.7688000202178955,8.32699966430664],"min":[-4.732699871063232,2.7688000202178955,-6.930600166320801],"type":"VEC3"},{"bufferView":2,"componentType":5126,"count":4,"max":[0.0,1.0,0.0],"min":[0.0,1.0,0.0],"type":"VEC3"},{"bufferView":3,"componentType":5126,"count":4,"max":[0.16329999268054962,0.2523000240325928],"min":[0.09740000218153,0.18639999628067017],"type":"VEC2"},{"bufferView":4,"componentType":5121,"count":6,"max":[3],"min":[0],"type":"SCALAR"},{"bufferView":5,"componentType":5126,"count":4,"max":[1.251099944114685,2.7688000202178955,7.488999843597412],"min":[-8.64490032196045,2.7688000202178955,-2.4070000648498535],"type":"VEC3"},{"bufferView":6,"componentType":5126,"count":4,"max":[0.0,1.0,0.0],"min":[0.0,1.0,0.0],"type":"VEC3"},{"bufferView":7,"componentType":5126,"count":4,"max":[0.07729999721050262,0.2523000240325928],"min":[0.01140000019222498,0.18639999628067017],"type":"VEC2"},{"bufferView":8,"componentType":5121,"count":6,"max":[3],"min":[0],"type":"SCALAR"},{"bufferView":9,"componentType":5126,"count":4,"max":[2.1923000812530518,2.7688000202178955,0.06440000236034393],"min":[-7.507900238037109,2.7688000202178955,-9.635700225830078],"type":"VEC3"},{"bufferView":10,"componentType":5126,"count":4,"max":[0.0,1.0,0.0],"min":[0.0,1.0,0.0],"type":"VEC3"},{"bufferView":11,"componentType":5126,"count":4,"max":[0.17139999568462372,0.31800001859664917],"min":[0.09300000220537186,0.25209999084472656],"type":"VEC2"}],"asset":{"generator":"Soft8Soft Verge3D for 3ds Max plug-in","version":"2.0"},"bufferViews":[{"buffer":0,"byteLength":6,"byteOffset":0,"target":34963},{"buffer":0,"byteLength":48,"byteOffset":8,"target":34962},{"buffer":0,"byteLength":48,"byteOffset":56,"target":34962},{"buffer":0,"byteLength":32,"byteOffset":104,"target":34962},{"buffer":0,"byteLength":6,"byteOffset":136,"target":34963},{"buffer":0,"byteLength":48,"byteOffset":144,"target":34962},{"buffer":0,"byteLength":48,"byteOffset":192,"target":34962},{"buffer":0,"byteLength":32,"byteOffset":240,"target":34962},{"buffer":0,"byteLength":6,"byteOffset":272,"target":34963},{"buffer":0,"byteLength":48,"byteOffset":280,"target":34962},{"buffer":0,"byteLength":48,"byteOffset":328,"target":34962},{"buffer":0,"byteLength":32,"byteOffset":376,"target":34962}],"buffers":[{"byteLength":408,"uri":"glass.bin"}],"cameras":[{"extensions":{"S8S_v3d_camera_data":{"controls":"ORBIT","enablePan":true,"moveSpeed":1,"orbitMaxDistance":10000,"orbitMaxPolarAngle":3.141592653589793,"orbitMinDistance":0,"orbitMinPolarAngle":0,"orbitTarget":[0,0,0],"rotateSpeed":1,"viewportFitInitialAspect":1.7777777777777777,"viewportFitType":"VERTICAL"}},"name":"__DEFAULT__","perspective":{"aspectRatio":1.7777777777777777,"yfov":0.4578223347944152,"zfar":1000,"znear":0.1},"type":"perspective"}],"extensions":{"S8S_v3d_data":{"lights":[{"color":[1,1,1],"intensity":1,"name":"__DEFAULT__","profile":"max","type":"point"},{"color":[0.0,0.0,0.0],"intensity":1,"name":"__AMBIENT__","profile":"max","type":"ambient"}]}},"extensionsUsed":["S8S_v3d_texture_data","S8S_v3d_material_data","S8S_v3d_camera_data","S8S_v3d_data","S8S_v3d_node_data","S8S_v3d_scene_data"],"images":[{"uri":"MAP.png"},{"uri":"MAP_MASK.png"}],"materials":[{"alphaMode":"BLEND","doubleSided":false,"extensions":{"S8S_v3d_material_data":{"nodeGraph":{"edges":[{"fromNode":1,"fromOutput":0,"toInput":0,"toNode":0},{"fromNode":1,"fromOutput":1,"toInput":1,"toNode":0},{"fromNode":2,"fromOutput":0,"toInput":0,"toNode":1},{"fromNode":3,"fromOutput":0,"toInput":1,"toNode":1},{"fromNode":4,"fromOutput":0,"toInput":6,"toNode":1}],"nodes":[{"inputs":[[1,1,1,1]],"is_active_output":true,"name":"MaxOutput","outputs":[],"type":"OUTPUT_MX"},{"IOR":1.5,"inputFactors":[1.0,1.0,0,0,0,0,1.0,0,0,0,0,0],"inputs":[[0.5881999894684437,0.5881999894684437,0.5881999894684437,1.0],[0.5881999894684437,0.5881999894684437,0.5881999894684437,1.0],[0.9,0.9,0.9,1.0],0.1,0.0,[0.0,0.0,0.0,1.0],1.0,[0,0,0,0],[0,0,0],[0,0,0,0],[0,0,0,0],0],"is_active_output":false,"name":"02___Default","outputs":[[0,0,0,0]],"selfIllumColorOn":false,"type":"MATERIAL_MX"},{"alphaAsMono":false,"alphaAsRGB":false,"alphaSource":"FILE","axis":"XY","clampToEdgeNoExtend":[false,false],"inputs":[0.0,0.0,1.0,1.0,0.0],"is_active_output":false,"mapping":"EXPLICIT_MAP_CHANNEL","name":"Map #1","outputs":[[0,0,0,0]],"texture":0,"type":"BITMAP_MX","uvIndex":0},{"alphaAsMono":false,"alphaAsRGB":false,"alphaSource":"FILE","axis":"XY","clampToEdgeNoExtend":[false,false],"inputs":[0.0,0.0,1.0,1.0,0.0],"is_active_output":false,"mapping":"EXPLICIT_MAP_CHANNEL","name":"Map #2","outputs":[[0,0,0,0]],"texture":1,"type":"BITMAP_MX","uvIndex":0},{"alphaAsMono":false,"alphaAsRGB":false,"alphaSource":"FILE","axis":"XY","clampToEdgeNoExtend":[false,false],"inputs":[0.0,0.0,1.0,1.0,0.0],"is_active_output":false,"mapping":"EXPLICIT_MAP_CHANNEL","name":"Map #3","outputs":[[0,0,0,0]],"texture":2,"type":"BITMAP_MX","uvIndex":0}]},"profile":"max"}},"name":"02___Default"},{"extensions":{"S8S_v3d_material_data":{"nodeGraph":{"edges":[],"nodes":[{"inputs":[[0.0,0.0,0.0,1]],"is_active_output":true,"name":"World Output","outputs":[],"type":"OUTPUT_MX"}]},"profile":"max"}},"name":"Verge3D_Environment"}],"meshes":[{"name":"Plane115","primitives":[{"attributes":{"NORMAL":2,"POSITION":1,"TEXCOORD_0":3},"indices":0,"material":0,"mode":4}]},{"name":"Plane116","primitives":[{"attributes":{"NORMAL":6,"POSITION":5,"TEXCOORD_0":7},"indices":4,"material":0,"mode":4}]},{"name":"Plane117","primitives":[{"attributes":{"NORMAL":10,"POSITION":9,"TEXCOORD_0":11},"indices":8,"material":0,"mode":4}]}],"nodes":[{"extensions":{"S8S_v3d_node_data":{"frustumCulling":true,"hidden":false,"renderOrder":0,"useCastShadows":true,"useShadows":true}},"extras":{"customProps":{"babylonjs_GUID":"080fe001-ccf4-4af2-bcd5-8c7e980ebe51"}},"mesh":0,"name":"Plane115"},{"extensions":{"S8S_v3d_node_data":{"frustumCulling":true,"hidden":false,"renderOrder":0,"useCastShadows":true,"useShadows":true}},"extras":{"customProps":{"babylonjs_GUID":"0d003131-93d9-47d1-a7bc-0bde480fb71b"}},"mesh":1,"name":"Plane116"},{"extensions":{"S8S_v3d_node_data":{"frustumCulling":true,"hidden":false,"renderOrder":0,"useCastShadows":true,"useShadows":true}},"extras":{"customProps":{"babylonjs_GUID":"1cce8607-1e03-4a64-8a65-25be2b709651"}},"mesh":2,"name":"Plane117"},{"camera":0,"children":[4],"name":"__DEFAULT_CAMERA__","rotation":[0.8923990726470947,-0.36964383721351624,-0.0990457609295845,-0.2391175776720047],"scale":[1.0,0.9999998211860657,1.0],"translation":[-21.8642520904541,21.38848304748535,22.149951934814453]},{"extensions":{"S8S_v3d_node_data":{"light":0}},"name":"__DEFAULT_LIGHT__","rotation":[3.774895063202166e-08,-0.0,-0.0,1.0],"scale":[1.0,1.0,1.0],"translation":[47.924747467041016,71.88711547851562,95.84949493408203]}],"samplers":[{}],"scene":0,"scenes":[{"extensions":{"S8S_v3d_scene_data":{"aaMethod":"AUTO","iblEnvironmentMode":"PMREM","light":1,"pmremMaxTileSize":256,"postprocessing":[],"shadowMap":{"esmDistanceScale":0.30000001192092896,"renderReverseSided":false,"renderSingleSided":true,"type":"PCFPOISSON"},"worldMaterial":1}},"extras":{"animFrameRate":30,"coordSystem":"Z_UP_RIGHT"},"name":"Scene","nodes":[0,1,2,3]}],"textures":[{"extensions":{"S8S_v3d_texture_data":{"colorSpace":"srgb"}},"name":"Map #1","sampler":0,"source":0},{"extensions":{"S8S_v3d_texture_data":{"colorSpace":"srgb"}},"name":"Map #2","sampler":0,"source":0},{"extensions":{"S8S_v3d_texture_data":{"colorSpace":"srgb"}},"name":"Map #3","sampler":0,"source":1}]}
