# 3ds Max Wavefront OBJ Exporter v0.99 - (c)2007 guruware
# File Created: 26.01.2022 16:42:00

mtllib Leaf_3.mtl

#
# object Plane007
#

v  2.7264 1.0369 8.6843
v  2.6557 1.0810 8.7689
v  2.9111 1.0163 8.9332
v  2.3831 0.7392 8.2560
v  2.2592 0.4553 8.1339
v  1.9990 0.4986 8.3464
v  2.1686 0.8083 8.4555
v  2.0760 0.7392 8.7334
v  2.3469 0.9479 8.8072
v  2.4296 1.0191 8.6234
v  1.9183 0.0471 8.2944
v  1.8400 0.0471 8.6240
v  1.9135 0.4553 8.6713
v  2.5626 0.9479 8.4720
v  2.6080 1.0369 8.8683
v  2.1858 0.0471 8.0866
v  0.7535 1.0369 8.8125
v  0.7151 1.0810 8.7092
v  0.4459 1.0163 8.8495
v  1.2957 0.7392 8.7268
v  1.4631 0.4553 8.6797
v  1.4076 0.4986 8.3484
v  1.2287 0.8083 8.4416
v  1.0333 0.7392 8.2233
v  0.8349 0.9479 8.4220
v  0.9536 1.0191 8.5850
v  1.4927 0.0471 8.3040
v  1.2453 0.0471 8.0727
v  1.1678 0.4553 8.1130
v  1.0191 0.9479 8.7756
v  0.6524 1.0369 8.6186
v  1.5406 0.0471 8.6393
v  1.5828 1.0369 7.4068
v  1.6925 1.0810 7.4174
v  1.6841 1.0163 7.1139
v  1.4226 0.7392 7.9318
v  1.3917 0.4553 8.1029
v  1.7139 0.4986 8.1980
v  1.7084 0.8083 7.9964
v  1.9901 0.7392 7.9162
v  1.8983 0.9479 7.6508
v  1.6998 1.0191 7.6862
v  1.7165 0.0471 8.2940
v  2.0328 0.0471 8.1727
v  2.0304 0.4553 8.0854
v  1.4998 0.9479 7.6618
v  1.8014 1.0369 7.4007
v  1.3941 0.0471 8.1903
v  1.8958 1.1186 9.2912
v  1.7774 1.1664 9.2739
v  1.7707 1.0962 9.6036
v  2.0968 0.7953 8.7301
v  2.1392 0.4870 8.5460
v  1.7947 0.5340 8.4262
v  1.7902 0.8703 8.6451
v  1.4804 0.7953 8.7175
v  1.5663 1.0219 9.0101
v  1.7833 1.0992 8.9820
v  1.7968 0.0437 8.3219
v  1.4474 0.0437 8.4370
v  1.4455 0.4870 8.5319
v  1.9991 1.0219 9.0189
v  1.6583 1.1186 9.2864
v  2.1412 0.0437 8.4511
v  0.6201 1.1186 7.5979
v  0.6938 1.1664 7.5036
v  0.4109 1.0962 7.3344
v  1.0078 0.7953 8.0506
v  1.1466 0.4870 8.1788
v  1.4215 0.5340 7.9389
v  1.2335 0.8703 7.8265
v  1.3242 0.7953 7.5216
v  1.0276 1.0219 7.4511
v  0.9444 1.0992 7.6536
v  1.5109 0.0437 7.9925
v  1.5842 0.0437 7.6320
v  1.5028 0.4870 7.5833
v  0.8054 1.0219 7.8226
v  0.7420 1.1186 7.3941
v  1.2280 0.0437 8.2275
v  2.6087 1.1186 7.3259
v  2.6612 1.1664 7.4334
v  2.9373 1.0962 7.2531
v  2.0320 0.7953 7.4763
v  1.8561 0.4870 7.5451
v  1.9514 0.5340 7.8972
v  2.1347 0.8703 7.7774
v  2.3692 0.7953 7.9924
v  2.5624 1.0219 7.7565
v  2.4168 1.0992 7.5931
v  1.8641 0.0437 7.9542
v  2.1562 0.0437 8.1778
v  2.2356 0.4870 8.1259
v  2.3256 1.0219 7.3941
v  2.7386 1.1186 7.5247
v  1.7766 0.0437 7.5970
# 96 vertices

vn 0.1844 0.9265 -0.3281
vn -0.0190 0.9997 -0.0122
vn 0.1751 0.9781 0.1126
vn -0.3938 0.6511 -0.6488
vn -0.5547 0.3564 -0.7518
vn -0.7767 0.3834 -0.4997
vn -0.6008 0.6997 -0.3865
vn -0.7537 0.6511 -0.0895
vn -0.5172 0.8504 0.0969
vn -0.3359 0.9167 -0.2161
vn -0.8226 0.2080 -0.5292
vn -0.9537 0.1979 -0.2264
vn -0.9141 0.3564 -0.1932
vn -0.1262 0.8504 -0.5108
vn -0.2222 0.9265 0.3038
vn -0.6014 0.1979 -0.7741
vn 0.1935 0.9265 0.3228
vn 0.0200 0.9997 -0.0104
vn -0.1846 0.9781 0.0962
vn 0.7587 0.6511 -0.0204
vn 0.9279 0.3564 -0.1090
vn 0.8191 0.3834 -0.4268
vn 0.6335 0.6997 -0.3301
vn 0.4513 0.6511 -0.6102
vn 0.1722 0.8504 -0.4972
vn 0.3542 0.9167 -0.1846
vn 0.8674 0.2080 -0.4520
vn 0.6695 0.1979 -0.7160
vn 0.6210 0.3564 -0.6981
vn 0.5062 0.8504 0.1436
vn -0.1537 0.9265 -0.3435
vn 0.9704 0.1979 -0.1385
vn -0.3749 0.9265 0.0328
vn 0.0006 0.9997 0.0226
vn -0.0057 0.9781 -0.2081
vn -0.3137 0.6511 0.6911
vn -0.3081 0.3564 0.8821
vn 0.0253 0.3834 0.9232
vn 0.0196 0.6997 0.7141
vn 0.3511 0.6511 0.6729
vn 0.3716 0.8504 0.3724
vn 0.0110 0.9167 0.3993
vn 0.0268 0.2080 0.9778
vn 0.3508 0.1979 0.9153
vn 0.3560 0.3564 0.8639
vn -0.3507 0.8504 0.3923
vn 0.3761 0.9265 0.0122
vn -0.3001 0.1979 0.9332
vn 0.3760 0.9265 -0.0148
vn 0.0005 0.9997 -0.0226
vn -0.0042 0.9781 0.2081
vn 0.3464 0.6511 -0.6753
vn 0.3499 0.3564 -0.8663
vn 0.0188 0.3834 -0.9234
vn 0.0146 0.6997 -0.7142
vn -0.3186 0.6511 -0.6889
vn -0.3534 0.8504 -0.3898
vn 0.0081 0.9167 -0.3994
vn 0.0199 0.2080 -0.9779
vn -0.3067 0.1979 -0.9310
vn -0.3143 0.3564 -0.8799
vn 0.3690 0.8504 -0.3750
vn -0.3751 0.9265 -0.0301
vn 0.3444 0.1979 -0.9177
vn -0.1736 0.9265 0.3339
vn 0.0194 0.9997 0.0116
vn -0.1786 0.9781 -0.1069
vn 0.4148 0.6511 0.6356
vn 0.5789 0.3564 0.7334
vn 0.7926 0.3834 0.4741
vn 0.6131 0.6997 0.3667
vn 0.7562 0.6511 0.0649
vn 0.5137 0.8504 -0.1137
vn 0.3428 0.9167 0.2051
vn 0.8394 0.2080 0.5021
vn 0.9606 0.1979 0.1952
vn 0.9200 0.3564 0.1633
vn 0.1428 0.8504 0.5064
vn 0.2121 0.9265 -0.3109
vn 0.6263 0.1979 0.7540
vn -0.2243 0.9265 -0.3022
vn -0.0189 0.9997 0.0124
vn 0.1743 0.9781 -0.1139
vn -0.7530 0.6511 0.0948
vn -0.9128 0.3564 0.1996
vn -0.7732 0.3834 0.5052
vn -0.5981 0.6997 0.3908
vn -0.3893 0.6511 0.6516
vn -0.1226 0.8504 0.5117
vn -0.3344 0.9167 0.2185
vn -0.8188 0.2080 0.5350
vn -0.5959 0.1979 0.7783
vn -0.5494 0.3564 0.7557
vn -0.5178 0.8504 -0.0932
vn 0.1867 0.9265 0.3268
vn -0.9521 0.1979 0.2332
# 96 vertex normals

vt 0.0000 1.0000 0.0000
vt 0.5000 0.9495 0.0000
vt 0.5000 1.0000 0.0000
vt 0.0000 0.5000 0.0000
vt 0.0000 0.2500 0.0000
vt 0.5000 0.2500 0.0000
vt 0.5000 0.5000 0.0000
vt 1.0000 0.5000 0.0000
vt 1.0000 0.7500 0.0000
vt 0.5000 0.7500 0.0000
vt 0.5000 0.0000 0.0000
vt 1.0000 0.0000 0.0000
vt 1.0000 0.2500 0.0000
vt 0.0000 0.7500 0.0000
vt 1.0000 1.0000 0.0000
vt 0.0000 0.0000 0.0000
# 16 texture coords

o Plane007
g Plane007
usemtl wire_086086086
s 1
f 1/1/1 2/2/2 3/3/3 
f 4/4/4 5/5/5 6/6/6 7/7/7 
f 7/7/7 8/8/8 9/9/9 10/10/10 
f 11/11/11 12/12/12 13/13/13 6/6/6 
f 14/14/14 4/4/4 7/7/7 10/10/10 
f 15/15/15 3/3/3 2/2/2 
f 5/5/5 16/16/16 11/11/11 6/6/6 
f 13/13/13 8/8/8 7/7/7 6/6/6 
f 1/1/1 14/14/14 10/10/10 2/2/2 
f 2/2/2 10/10/10 9/9/9 15/15/15 
f 17/1/17 18/2/18 19/3/19 
f 20/4/20 21/5/21 22/6/22 23/7/23 
f 23/7/23 24/8/24 25/9/25 26/10/26 
f 27/11/27 28/12/28 29/13/29 22/6/22 
f 30/14/30 20/4/20 23/7/23 26/10/26 
f 31/15/31 19/3/19 18/2/18 
f 21/5/21 32/16/32 27/11/27 22/6/22 
f 29/13/29 24/8/24 23/7/23 22/6/22 
f 17/1/17 30/14/30 26/10/26 18/2/18 
f 18/2/18 26/10/26 25/9/25 31/15/31 
f 33/1/33 34/2/34 35/3/35 
f 36/4/36 37/5/37 38/6/38 39/7/39 
f 39/7/39 40/8/40 41/9/41 42/10/42 
f 43/11/43 44/12/44 45/13/45 38/6/38 
f 46/14/46 36/4/36 39/7/39 42/10/42 
f 47/15/47 35/3/35 34/2/34 
f 37/5/37 48/16/48 43/11/43 38/6/38 
f 45/13/45 40/8/40 39/7/39 38/6/38 
f 33/1/33 46/14/46 42/10/42 34/2/34 
f 34/2/34 42/10/42 41/9/41 47/15/47 
f 49/1/49 50/2/50 51/3/51 
f 52/4/52 53/5/53 54/6/54 55/7/55 
f 55/7/55 56/8/56 57/9/57 58/10/58 
f 59/11/59 60/12/60 61/13/61 54/6/54 
f 62/14/62 52/4/52 55/7/55 58/10/58 
f 63/15/63 51/3/51 50/2/50 
f 53/5/53 64/16/64 59/11/59 54/6/54 
f 61/13/61 56/8/56 55/7/55 54/6/54 
f 49/1/49 62/14/62 58/10/58 50/2/50 
f 50/2/50 58/10/58 57/9/57 63/15/63 
f 65/1/65 66/2/66 67/3/67 
f 68/4/68 69/5/69 70/6/70 71/7/71 
f 71/7/71 72/8/72 73/9/73 74/10/74 
f 75/11/75 76/12/76 77/13/77 70/6/70 
f 78/14/78 68/4/68 71/7/71 74/10/74 
f 79/15/79 67/3/67 66/2/66 
f 69/5/69 80/16/80 75/11/75 70/6/70 
f 77/13/77 72/8/72 71/7/71 70/6/70 
f 65/1/65 78/14/78 74/10/74 66/2/66 
f 66/2/66 74/10/74 73/9/73 79/15/79 
f 81/1/81 82/2/82 83/3/83 
f 84/4/84 85/5/85 86/6/86 87/7/87 
f 87/7/87 88/8/88 89/9/89 90/10/90 
f 91/11/91 92/12/92 93/13/93 86/6/86 
f 94/14/94 84/4/84 87/7/87 90/10/90 
f 95/15/95 83/3/83 82/2/82 
f 85/5/85 96/16/96 91/11/91 86/6/86 
f 93/13/93 88/8/88 87/7/87 86/6/86 
f 81/1/81 94/14/94 90/10/90 82/2/82 
f 82/2/82 90/10/90 89/9/89 95/15/95 
# 48 polygons - 12 triangles

