# 3ds Max Wavefront OBJ Exporter v0.99 - (c)2007 guruware
# File Created: 26.01.2022 16:41:40

mtllib Leaf_1.mtl

#
# object Plane009
#

v  -0.6785 0.4063 8.8049
v  -0.9246 0.4528 8.8454
v  -0.9274 0.3008 8.9823
v  -0.9106 0.6519 8.2525
v  -1.0218 0.7117 8.1713
v  -0.9140 0.6664 8.3749
v  -0.5707 0.4822 8.6735
v  -0.4783 0.5575 8.4982
v  -0.6855 0.6095 8.5152
v  -0.7583 0.5401 8.7025
v  -1.2712 0.4822 8.6593
v  -1.1688 0.4063 8.7949
v  -1.0850 0.5401 8.6958
v  -1.3686 0.6005 8.3427
v  -1.3564 0.5575 8.4803
v  -1.1500 0.6095 8.5057
v  -1.1666 0.6488 8.3591
v  -0.4605 0.6005 8.3612
v  -0.4969 0.6330 8.2414
v  -0.6630 0.6488 8.3694
v  -1.1194 0.7035 8.1216
v  -1.2041 0.6752 8.1224
v  -0.9218 0.5659 8.7097
v  -0.9182 0.6316 8.5299
v  -0.7004 0.7035 8.1302
v  -0.7981 0.7117 8.1759
v  -0.6158 0.6752 8.1344
v  -1.3274 0.6330 8.2245
v  -0.9665 0.6265 8.1835
v  -0.8534 0.6265 8.1858
v  -0.9093 0.5852 8.1789
v  -0.9077 0.4590 8.1071
v  -0.9547 0.4605 8.0869
v  -0.8607 0.4605 8.0888
v  -0.9069 0.2388 8.0686
v  -0.9539 0.2402 8.0484
v  -0.8600 0.2402 8.0503
v  -0.9069 0.0111 8.0665
v  -0.9539 0.0125 8.0463
v  -0.8599 0.0125 8.0482
# 40 vertices

vn 0.2429 0.7193 0.6508
vn -0.0145 0.7033 0.7107
vn -0.0151 0.6695 0.7426
vn 0.0006 0.9074 -0.4202
vn 0.1145 0.9932 0.0234
vn -0.0031 0.9836 0.1804
vn 0.3220 0.7619 0.5620
vn 0.2538 0.8850 0.3903
vn 0.1868 0.9200 0.3444
vn 0.2478 0.7832 0.5703
vn -0.3446 0.7619 0.5484
vn -0.2692 0.7193 0.6404
vn -0.2709 0.7832 0.5597
vn -0.2445 0.9372 0.2488
vn -0.2695 0.8850 0.3797
vn -0.2007 0.9200 0.3365
vn -0.1791 0.9557 0.2334
vn 0.2342 0.9372 0.2585
vn 0.2209 0.9607 0.1681
vn 0.1698 0.9556 0.2406
vn -0.2442 0.9545 0.1713
vn -0.2716 0.9508 0.1492
vn -0.0101 0.8678 0.4968
vn -0.0060 0.9589 0.2838
vn 0.2388 0.9541 0.1807
vn -0.1156 0.9931 0.0192
vn 0.2653 0.9508 0.1602
vn -0.2276 0.9607 0.1589
vn 0.5170 0.4957 -0.6979
vn -0.4943 0.4970 -0.7132
vn 0.0144 0.5806 -0.8141
vn 0.0159 0.3494 -0.9368
vn 0.3827 0.3207 -0.8664
vn -0.3527 0.3194 -0.8795
vn 0.0172 0.0913 -0.9957
vn 0.3961 0.0840 -0.9144
vn -0.3641 0.0838 -0.9276
vn 0.0174 0.0090 -0.9998
vn 0.3955 0.0084 -0.9184
vn -0.3634 0.0083 -0.9316
# 40 vertex normals

vt 0.0000 0.7500 0.0000
vt 0.7500 0.7500 0.0000
vt 1.0000 1.0000 0.0000
vt 0.5000 0.0000 0.0000
vt 0.6250 0.0000 0.0000
vt 0.5000 0.1250 0.0000
vt 0.0000 0.5000 0.0000
vt 0.0000 0.3750 0.0000
vt 0.2500 0.3750 0.0000
vt 0.2500 0.5000 0.0000
vt 1.0000 0.5000 0.0000
vt 1.0000 0.7500 0.0000
vt 0.7500 0.5000 0.0000
vt 1.0000 0.2500 0.0000
vt 1.0000 0.3750 0.0000
vt 0.7500 0.3750 0.0000
vt 0.7500 0.2500 0.0000
vt 0.0000 0.2500 0.0000
vt 0.0000 0.1250 0.0000
vt 0.2500 0.2500 0.0000
vt 0.7500 0.0000 0.0000
vt 0.8750 0.0000 0.0000
vt 0.5000 0.5000 0.0000
vt 0.5000 0.3750 0.0000
vt 0.2500 0.0000 0.0000
vt 0.3750 0.0000 0.0000
vt 0.0000 0.0000 0.0000
vt 1.0000 0.1250 0.0000
# 28 texture coords

o Plane009
g Plane009
usemtl wire_115115115
s 1
f 1/1/1 2/2/2 3/3/3 
f 4/4/4 5/5/5 6/6/6 
f 7/7/7 8/8/8 9/9/9 10/10/10 
f 11/11/11 12/12/12 2/2/2 13/13/13 
f 1/1/1 7/7/7 10/10/10 2/2/2 
f 12/12/12 3/3/3 2/2/2 
f 14/14/14 15/15/15 16/16/16 17/17/17 
f 18/18/18 19/19/19 20/20/20 
f 21/21/21 22/22/22 17/17/17 
f 2/2/2 23/23/23 13/13/13 
f 13/13/13 23/23/23 24/24/24 16/16/16 
f 20/20/20 6/6/6 24/24/24 9/9/9 
f 10/10/10 23/23/23 2/2/2 
f 25/25/25 26/26/26 20/20/20 
f 5/5/5 17/17/17 6/6/6 
f 26/26/26 4/4/4 6/6/6 
f 26/26/26 6/6/6 20/20/20 
f 5/5/5 21/21/21 17/17/17 
f 8/8/8 18/18/18 20/20/20 9/9/9 
f 15/15/15 11/11/11 13/13/13 16/16/16 
f 24/24/24 6/6/6 17/17/17 16/16/16 
f 24/24/24 23/23/23 10/10/10 9/9/9 
f 27/27/27 25/25/25 20/20/20 
f 19/19/19 27/27/27 20/20/20 
f 28/28/28 14/14/14 17/17/17 
f 22/22/22 28/28/28 17/17/17 
s off
f 5/5/5 4/4/4 29/5/29 
f 4/4/4 30/26/30 31/4/31 
f 29/5/29 31/4/31 32/4/32 33/5/33 
f 31/4/31 30/26/30 34/26/34 32/4/32 
f 33/5/33 32/4/32 35/4/35 36/5/36 
f 32/4/32 34/26/34 37/26/37 35/4/35 
f 36/5/36 35/4/35 38/4/38 39/5/39 
f 35/4/35 37/26/37 40/26/40 38/4/38 
f 4/4/4 31/4/31 29/5/29 
f 4/4/4 26/26/26 30/26/30 
# 16 polygons - 20 triangles

