# 3ds Max Wavefront OBJ Exporter v0.99 - (c)2007 guruware
# File Created: 26.01.2022 16:39:33

mtllib Log_1.mtl

#
# object Cylinder005
#

v  -3.0227 1.8723 -0.0679
v  -2.9951 1.7594 -0.1391
v  -2.9253 1.5281 0.9154
v  -3.0143 1.8602 0.9136
v  -2.9325 1.5257 -0.1378
v  -2.6774 1.2705 -0.1326
v  -2.6823 1.2850 0.9204
v  -2.3288 1.2029 -0.1255
v  -2.3503 1.2201 0.9272
v  -1.9803 1.2705 -0.1184
v  -2.0183 1.2850 0.9339
v  -1.6882 1.4971 -0.1124
v  -1.6875 1.5281 0.9407
v  -1.6318 1.8743 -0.1113
v  -1.5985 1.8602 0.9425
v  -1.7252 2.2229 -0.1132
v  -1.6875 2.1922 0.9407
v  -1.9803 2.4781 -0.1184
v  -2.0183 2.4353 0.9339
v  -2.3288 2.5715 -0.1255
v  -2.3503 2.5243 0.9272
v  -2.6619 2.4512 -0.1323
v  -2.5035 2.5027 0.9240
v  -2.9325 2.2229 -0.1378
v  -2.9253 2.1922 0.9154
v  -2.8300 2.3142 0.9174
v  -2.9952 1.9890 -0.1391
v  -3.0366 1.5426 1.9459
v  -3.1305 1.8931 1.9440
v  -2.7218 1.2860 1.9523
v  -2.3714 1.1920 1.9594
v  -2.0209 1.2860 1.9666
v  -1.7643 1.5426 1.9718
v  -1.6704 1.8931 1.9737
v  -1.7643 2.2436 1.9718
v  -2.0192 2.5002 1.8815
v  -2.3714 2.5942 1.9594
v  -2.7283 2.5151 2.0660
v  -3.0366 2.2436 1.9459
v  -2.7482 1.6342 0.0962
v  -2.8124 1.8738 0.0949
v  -2.3379 1.8738 0.3304
v  -2.7482 2.1135 0.0962
v  -2.5622 2.2704 0.1000
v  -2.3333 2.3531 0.1046
v  -2.0937 2.2889 0.1095
v  -1.9183 2.1135 0.1131
v  -1.8541 1.8738 0.1144
v  -1.8814 1.6056 0.1138
v  -2.0937 1.4588 0.1095
v  -2.3333 1.4185 0.1046
v  -2.5728 1.4588 0.0997
v  -2.8131 1.9387 3.5245
v  -2.7403 1.6862 3.5260
v  -2.3982 1.9387 3.4817
v  -2.6711 1.5013 3.5274
v  -2.3993 1.4337 3.5330
v  -2.1275 1.5013 3.5385
v  -1.9286 1.6862 3.5426
v  -1.8558 1.9387 3.5441
v  -1.9286 2.1912 3.5426
v  -2.0021 2.2595 3.5411
v  -2.2176 2.2333 3.6063
v  -2.2988 2.4187 3.5350
v  -2.3993 2.4437 3.5330
v  -2.6711 2.3761 3.5274
v  -2.7403 2.1912 3.5260
v  -1.8170 2.4112 3.8752
v  -1.9974 2.5852 3.5309
v  -2.1368 2.3720 3.8687
v  -2.2602 2.6489 3.8662
v  -2.7646 2.9354 0.7879
v  -2.8634 2.8776 0.7134
v  -2.8878 2.9242 0.8722
v  -2.9651 2.8197 0.7838
v  -2.6653 2.4084 0.8483
v  -2.6910 2.4551 1.0720
v  -2.6774 2.6957 0.8573
v  -2.7880 2.6857 0.9898
v  -2.7651 2.6443 0.7911
v  -2.8555 2.5929 0.8536
v  -3.0314 1.5570 2.9787
v  -2.9835 1.5549 3.8514
v  -3.0922 1.9320 3.8492
v  -3.1303 1.9260 2.9767
v  -2.7613 1.2869 2.9842
v  -2.6864 1.2788 3.8575
v  -2.3924 1.1880 2.9917
v  -2.4102 1.1778 3.8631
v  -2.0235 1.2869 2.9992
v  -2.0043 1.2788 3.8714
v  -1.7953 1.5570 3.0039
v  -1.7072 1.5549 3.8775
v  -1.6964 1.9260 3.0059
v  -1.5985 1.9320 3.8797
v  -1.7953 2.2950 3.0039
v  -1.7072 2.3091 3.8775
v  -2.0200 2.5652 2.8290
v  -2.3924 2.6640 2.9917
v  -2.4102 2.6862 3.8631
v  -2.7657 2.5751 3.0600
v  -2.8034 2.5655 3.8551
v  -3.0314 2.2950 2.9787
v  -2.9835 2.3091 3.8514
v  -2.8438 1.6282 3.8543
v  -2.9307 1.9296 3.8525
v  -2.7360 1.4076 3.8565
v  -2.4117 1.3268 3.8631
v  -2.0873 1.4076 3.8697
v  -1.8499 1.6282 3.8746
v  -1.7630 1.9296 3.8763
v  -1.8499 2.2310 3.8746
v  -1.9376 2.3125 3.8728
v  -2.1932 2.2813 3.8675
v  -2.2918 2.5025 3.8655
v  -2.4117 2.5324 3.8631
v  -2.7360 2.4516 3.8565
v  -2.8438 2.2310 3.8543
v  -2.8792 1.7593 -0.1367
v  -2.8321 1.5835 -0.1357
v  -2.8321 2.1648 -0.1357
v  -2.8792 1.9889 -0.1367
v  -2.6064 2.3552 -0.1311
v  -2.3288 2.4554 -0.1255
v  -2.0382 2.3776 -0.1196
v  -1.8254 2.1648 -0.1152
v  -1.7476 1.8741 -0.1136
v  -1.7885 1.5549 -0.1145
v  -2.0382 1.3707 -0.1196
v  -2.3288 1.3169 -0.1255
v  -2.6193 1.3707 -0.1314
v  -2.8268 1.8739 -0.0366
# 132 vertices

vn -0.8256 0.0037 -0.5643
vn -0.6654 0.0293 -0.7459
vn -0.8613 -0.5061 -0.0456
vn -0.9981 -0.0048 -0.0611
vn -0.6522 -0.3820 -0.6548
vn -0.3497 -0.6798 -0.6446
vn -0.4676 -0.8840 -0.0018
vn 0.0134 -0.7523 -0.6587
vn 0.0001 -1.0000 -0.0070
vn 0.3284 -0.6922 -0.6427
vn 0.3994 -0.9166 0.0163
vn 0.6760 -0.3983 -0.6199
vn 0.8285 -0.5578 0.0497
vn 0.7383 0.0430 -0.6730
vn 0.9998 -0.0047 0.0188
vn 0.6528 0.3789 -0.6559
vn 0.8351 0.5500 0.0088
vn 0.3992 0.6713 -0.6245
vn 0.4342 0.9008 -0.0084
vn -0.0200 0.7809 -0.6244
vn 0.0618 0.9980 -0.0134
vn -0.3608 0.6497 -0.6691
vn -0.0695 0.9952 -0.0693
vn -0.6437 0.4194 -0.6401
vn -0.8939 0.4445 -0.0589
vn -0.8030 0.5910 -0.0769
vn -0.6700 -0.0233 -0.7420
vn -0.8426 -0.5369 -0.0410
vn -0.9979 -0.0002 -0.0655
vn -0.4550 -0.8903 -0.0187
vn 0.0004 -0.9998 -0.0199
vn 0.5001 -0.8660 -0.0003
vn 0.8629 -0.5016 0.0621
vn 0.9985 0.0001 0.0552
vn 0.8654 0.5006 0.0196
vn 0.4989 0.8631 -0.0783
vn 0.0050 0.9962 -0.0866
vn -0.4526 0.8875 -0.0870
vn -0.8445 0.5285 -0.0866
vn 0.6009 0.3385 -0.7241
vn 0.7716 0.0001 -0.6361
vn 0.0257 -0.0018 -0.9997
vn 0.5889 -0.3663 -0.7204
vn 0.3545 -0.5882 -0.7269
vn 0.0451 -0.6803 -0.7315
vn -0.3233 -0.5857 -0.7432
vn -0.5711 -0.3382 -0.7480
vn -0.6514 -0.0547 -0.7567
vn -0.5757 0.3502 -0.7389
vn -0.2364 0.6268 -0.7425
vn 0.0150 0.6723 -0.7401
vn 0.3258 0.6076 -0.7244
vn 0.6265 -0.0038 0.7794
vn 0.5525 0.1875 0.8121
vn -0.0210 -0.0174 0.9996
vn 0.4422 0.4920 0.7500
vn -0.0178 0.6356 0.7718
vn -0.3214 0.5614 0.7625
vn -0.5650 0.3355 0.7538
vn -0.6654 -0.0039 0.7465
vn -0.5724 -0.3477 0.7426
vn -0.1624 -0.7003 0.6951
vn -0.3229 -0.5498 0.7704
vn -0.5301 -0.4949 0.6886
vn -0.0174 -0.6600 0.7510
vn 0.4467 -0.5113 0.7342
vn 0.5596 -0.1907 0.8065
vn 0.3543 0.6286 0.6924
vn 0.4800 0.8649 0.1467
vn 0.1028 0.2128 0.9717
vn 0.3144 0.6445 0.6970
vn 0.6152 0.7753 -0.1426
vn -0.1630 0.3521 -0.9217
vn -0.4037 0.7725 0.4901
vn -0.9818 -0.0323 -0.1871
vn -0.3744 0.6403 -0.6707
vn -0.4714 0.7718 0.4267
vn 0.8500 0.4846 -0.2064
vn -0.1504 0.2560 0.9549
vn 0.1155 -0.1737 -0.9780
vn -0.9221 -0.2718 -0.2754
vn -0.8675 -0.4956 0.0420
vn -0.6338 -0.3894 0.6683
vn -0.7469 0.0012 0.6649
vn -0.9994 0.0027 0.0336
vn -0.5103 -0.8599 0.0144
vn -0.3839 -0.6255 0.6792
vn 0.0002 -0.9999 -0.0101
vn -0.0539 -0.7664 0.6401
vn 0.5344 -0.8451 -0.0143
vn 0.3567 -0.6723 0.6487
vn 0.8837 -0.4662 -0.0421
vn 0.6741 -0.4102 0.6143
vn 0.9980 0.0026 -0.0624
vn 0.7987 0.0012 0.6017
vn 0.8892 0.4519 -0.0720
vn 0.6753 0.4132 0.6110
vn 0.5277 0.8466 -0.0691
vn 0.0010 0.9983 -0.0579
vn -0.0336 0.7687 0.6388
vn -0.4924 0.8691 -0.0471
vn -0.4702 0.6197 0.6284
vn -0.8719 0.4894 0.0158
vn -0.6562 0.3126 0.6868
vn 0.4738 0.1913 0.8596
vn 0.4555 0.0025 0.8902
vn 0.2463 0.3350 0.9094
vn -0.0164 0.4897 0.8717
vn -0.2503 0.4313 0.8668
vn -0.4317 0.2561 0.8649
vn -0.5062 0.0026 0.8624
vn -0.4447 -0.2591 0.8574
vn -0.1843 -0.4425 0.8777
vn -0.3652 -0.6278 0.6874
vn -0.3028 -0.3690 0.8787
vn -0.0160 -0.5145 0.8574
vn 0.2609 -0.3465 0.9011
vn 0.4829 -0.1929 0.8541
vn 0.2912 0.2689 -0.9181
vn 0.3949 0.2173 -0.8927
vn 0.3758 -0.2253 -0.8989
vn 0.2906 -0.2686 -0.9184
vn 0.2506 -0.4028 -0.8803
vn 0.0349 -0.4222 -0.9058
vn -0.1987 -0.3763 -0.9049
vn -0.3580 -0.2175 -0.9080
vn -0.4346 -0.0288 -0.9002
vn -0.3215 0.1996 -0.9256
vn -0.1623 0.4081 -0.8984
vn 0.0182 0.4567 -0.8894
vn 0.2173 0.3748 -0.9013
vn 0.8636 -0.0008 -0.5042
# 132 vertex normals

vt 0.7500 0.0700 1.0000
vt 0.7225 0.0000 1.0000
vt 0.6667 0.5000 1.0000
vt 0.7500 0.5000 1.0000
vt 0.6667 0.0000 1.0000
vt 0.5833 0.0000 1.0000
vt 0.5833 0.5000 1.0000
vt 0.5000 0.0000 1.0000
vt 0.5000 0.5000 1.0000
vt 0.4167 0.0000 1.0000
vt 0.4167 0.5000 1.0000
vt 0.3333 0.0000 1.0000
vt 0.3333 0.5000 1.0000
vt 0.2500 0.0000 1.0000
vt 0.2500 0.5000 1.0000
vt 0.1667 0.0000 1.0000
vt 0.1667 0.5000 1.0000
vt 0.0833 0.0000 1.0000
vt 0.0833 0.5000 1.0000
vt 0.0000 0.0000 1.0000
vt 0.0000 0.5000 1.0000
vt -0.0833 0.0000 1.0000
vt -0.0543 0.5000 1.0000
vt 0.8890 0.0000 1.0000
vt 0.8333 0.0000 1.0000
vt 0.8333 0.5000 1.0000
vt 0.8876 0.5000 1.0000
vt 0.7774 0.0000 1.0000
vt 0.6667 0.6250 1.0000
vt 0.7500 0.6250 1.0000
vt 0.5833 0.6250 1.0000
vt 0.5000 0.6250 1.0000
vt 0.4167 0.6250 1.0000
vt 0.3333 0.6250 1.0000
vt 0.2500 0.6250 1.0000
vt 0.1667 0.6250 1.0000
vt 0.0833 0.6037 1.0000
vt 0.0000 0.6250 1.0000
vt -0.0833 0.6535 1.0000
vt 0.8333 0.6250 1.0000
vt 0.9167 0.6535 1.0000
vt 0.7500 0.0000 1.0000
vt 0.3047 0.0000 0.9777
vt -0.0104 0.0000 0.7321
vt -0.0166 0.0000 0.9962
vt 0.7500 1.0000 1.0000
vt 0.6667 1.0000 1.0000
vt 0.3750 1.0000 1.0000
vt 0.5833 1.0000 1.0000
vt 0.5000 1.0000 1.0000
vt 0.4167 1.0000 1.0000
vt 0.3333 1.0000 1.0000
vt 0.2500 1.0000 1.0000
vt 0.1667 1.0000 1.0000
vt 0.1359 1.0000 1.0000
vt 0.1785 1.0000 1.0000
vt 0.0308 1.0000 1.0000
vt 0.0000 1.0000 1.0000
vt -0.0833 1.0000 1.0000
vt 0.8333 1.0000 1.0000
vt 0.0833 0.9146 1.0000
vt -0.0833 0.5000 1.0000
vt -0.0833 0.5380 1.0000
vt 0.9167 0.5380 1.0000
vt 0.9167 0.5000 1.0000
vt 0.6667 0.7500 1.0000
vt 0.7500 0.7500 1.0000
vt 0.5833 0.7500 1.0000
vt 0.5000 0.7500 1.0000
vt 0.4167 0.7500 1.0000
vt 0.3333 0.7500 1.0000
vt 0.2500 0.7500 1.0000
vt 0.1667 0.7500 1.0000
vt 0.0833 0.7073 1.0000
vt 0.0000 0.7500 1.0000
vt -0.0833 0.7690 1.0000
vt 0.8333 0.7500 1.0000
vt 0.9167 1.0000 1.0000
vt 0.9167 0.7690 1.0000
vt 0.7171 0.0000 1.0000
vt 0.4997 0.0000 0.9118
vt 0.4498 0.0000 0.8942
# 82 texture coords

o Cylinder005
g Cylinder005
usemtl wire_115115115
s 1
f 1/1/1 2/2/2 3/3/3 4/4/4 
f 5/5/5 6/6/6 7/7/7 3/3/3 
f 6/6/6 8/8/8 9/9/9 7/7/7 
f 8/8/8 10/10/10 11/11/11 9/9/9 
f 10/10/10 12/12/12 13/13/13 11/11/11 
f 12/12/12 14/14/14 15/15/15 13/13/13 
f 14/14/14 16/16/16 17/17/17 15/15/15 
f 16/16/16 18/18/18 19/19/19 17/17/17 
f 18/18/18 20/20/20 21/21/21 19/19/19 
f 20/20/20 22/22/22 23/23/23 21/21/21 
f 22/24/22 24/25/24 25/26/25 26/27/26 
f 24/25/24 27/28/27 25/26/25 
f 3/3/3 28/29/28 29/30/29 4/4/4 
f 7/7/7 30/31/30 28/29/28 3/3/3 
f 9/9/9 31/32/31 30/31/30 7/7/7 
f 11/11/11 32/33/32 31/32/31 9/9/9 
f 13/13/13 33/34/33 32/33/32 11/11/11 
f 15/15/15 34/35/34 33/34/33 13/13/13 
f 17/17/17 35/36/35 34/35/34 15/15/15 
f 19/19/19 36/37/36 35/36/35 17/17/17 
f 21/21/21 37/38/37 36/37/36 19/19/19 
f 23/23/23 38/39/38 37/38/37 21/21/21 
f 25/26/25 39/40/39 38/41/38 26/27/26 
f 4/4/4 29/30/29 39/40/39 25/26/25 
f 40/5/40 41/42/41 42/43/42 
f 41/42/41 43/44/43 42/43/42 
f 43/44/43 44/45/44 42/43/42 
f 44/45/44 45/20/45 42/43/42 
f 45/20/45 46/18/46 42/43/42 
f 46/18/46 47/16/47 42/43/42 
f 47/16/47 48/14/48 42/43/42 
f 48/14/48 49/12/49 42/43/42 
f 49/12/49 50/10/50 42/43/42 
f 50/10/50 51/8/51 42/43/42 
f 51/8/51 52/6/52 42/43/42 
f 52/6/52 40/5/40 42/43/42 
s 2
f 53/46/53 54/47/54 55/48/55 
f 54/47/54 56/49/56 55/48/55 
f 56/49/56 57/50/57 55/48/55 
f 57/50/57 58/51/58 55/48/55 
f 58/51/58 59/52/59 55/48/55 
f 59/52/59 60/53/60 55/48/55 
f 60/53/60 61/54/61 55/48/55 
f 61/54/61 62/55/62 55/48/55 
f 63/56/63 64/57/64 55/48/55 
f 65/58/65 66/59/66 55/48/55 
f 66/59/66 67/60/67 55/48/55 
f 67/60/67 53/46/53 55/48/55 
s 4
f 68/55/68 69/61/69 70/56/70 
s 8
f 69/61/69 71/57/71 70/56/70 
s 1
f 72/23/72 73/62/73 74/63/74 
f 74/64/74 73/65/73 75/27/75 
f 23/23/23 22/22/22 76/62/76 
f 22/24/22 26/27/26 76/65/76 
s 2
f 77/63/77 23/23/23 78/23/78 79/63/79 
s 4
f 23/23/23 76/62/76 80/62/80 78/23/78 
s 2
f 76/65/76 26/27/26 81/27/81 80/65/80 
s 4
f 26/27/26 77/64/77 79/64/79 81/27/81 
s 2
f 78/23/78 72/23/72 74/63/74 79/63/79 
s 4
f 80/62/80 73/62/73 72/23/72 78/23/78 
s 2
f 81/27/81 75/27/75 73/65/73 80/65/80 
s 4
f 79/64/79 74/64/74 75/27/75 81/27/81 
s 1
f 82/66/82 83/47/83 84/46/84 85/67/85 
f 86/68/86 87/49/87 83/47/83 82/66/82 
f 88/69/88 89/50/89 87/49/87 86/68/86 
f 90/70/90 91/51/91 89/50/89 88/69/88 
f 92/71/92 93/52/93 91/51/91 90/70/90 
f 94/72/94 95/53/95 93/52/93 92/71/92 
f 96/73/96 97/54/97 95/53/95 94/72/94 
f 98/74/98 68/55/68 97/54/97 96/73/96 
f 99/75/99 100/58/100 71/57/71 98/74/98 
f 101/76/101 102/59/102 100/58/100 99/75/99 
f 103/77/103 104/60/104 102/78/102 101/79/101 
f 85/67/85 84/46/84 104/60/104 103/77/103 
s 2
f 84/46/84 83/47/83 105/47/105 106/46/106 
f 83/47/83 87/49/87 107/49/107 105/47/105 
f 87/49/87 89/50/89 108/50/108 107/49/107 
f 89/50/89 91/51/91 109/51/109 108/50/108 
f 91/51/91 93/52/93 110/52/110 109/51/109 
f 93/52/93 95/53/95 111/53/111 110/52/110 
f 95/53/95 97/54/97 112/54/112 111/53/111 
f 97/54/97 68/55/68 113/55/113 112/54/112 
f 68/55/68 70/56/70 114/56/114 113/55/113 
f 70/56/70 71/57/71 115/57/115 114/56/114 
f 71/57/71 100/58/100 116/58/116 115/57/115 
f 100/58/100 102/59/102 117/59/117 116/58/116 
f 102/59/102 104/60/104 118/60/118 117/59/117 
f 104/60/104 84/46/84 106/46/106 118/60/118 
f 106/46/106 105/47/105 54/47/54 53/46/53 
f 105/47/105 107/49/107 56/49/56 54/47/54 
f 107/49/107 108/50/108 57/50/57 56/49/56 
f 108/50/108 109/51/109 58/51/58 57/50/57 
f 109/51/109 110/52/110 59/52/59 58/51/58 
f 110/52/110 111/53/111 60/53/60 59/52/59 
f 111/53/111 112/54/112 61/54/61 60/53/60 
f 112/54/112 113/55/113 62/55/62 61/54/61 
s 1
f 113/55/113 114/56/114 63/56/63 62/55/62 
s 4
f 114/56/114 115/57/115 64/57/64 63/56/63 
s 2
f 115/57/115 116/58/116 65/58/65 64/57/64 
f 116/58/116 117/59/117 66/59/66 65/58/65 
f 117/59/117 118/60/118 67/60/67 66/59/66 
f 118/60/118 106/46/106 53/46/53 67/60/67 
s 1
f 28/29/28 82/66/82 85/67/85 29/30/29 
f 30/31/30 86/68/86 82/66/82 28/29/28 
f 31/32/31 88/69/88 86/68/86 30/31/30 
f 32/33/32 90/70/90 88/69/88 31/32/31 
f 33/34/33 92/71/92 90/70/90 32/33/32 
f 34/35/34 94/72/94 92/71/92 33/34/33 
f 35/36/35 96/73/96 94/72/94 34/35/34 
f 36/37/36 98/74/98 96/73/96 35/36/35 
f 37/38/37 99/75/99 98/74/98 36/37/36 
f 38/39/38 101/76/101 99/75/99 37/38/37 
f 39/40/39 103/77/103 101/79/101 38/41/38 
f 29/30/29 85/67/85 103/77/103 39/40/39 
f 23/23/23 77/63/77 38/39/38 
f 38/41/38 77/64/77 26/27/26 
s 2
f 5/5/5 2/2/2 119/80/119 120/5/120 
f 27/81/27 24/44/24 121/44/121 122/82/122 
f 24/44/24 22/45/22 123/45/123 121/44/121 
f 22/45/22 20/20/20 124/20/124 123/45/123 
f 20/20/20 18/18/18 125/18/125 124/20/124 
f 18/18/18 16/16/16 126/16/126 125/18/125 
f 16/16/16 14/14/14 127/14/127 126/16/126 
f 14/14/14 12/12/12 128/12/128 127/14/127 
f 12/12/12 10/10/10 129/10/129 128/12/128 
f 10/10/10 8/8/8 130/8/130 129/10/129 
f 8/8/8 6/6/6 131/6/131 130/8/130 
f 6/6/6 5/5/5 120/5/120 131/6/131 
s 4
f 120/5/120 41/42/41 40/5/40 
f 132/42/132 122/82/122 121/44/121 41/42/41 
f 121/44/121 123/45/123 44/45/44 43/44/43 
f 123/45/123 124/20/124 45/20/45 44/45/44 
f 124/20/124 125/18/125 46/18/46 45/20/45 
f 125/18/125 126/16/126 47/16/47 46/18/46 
f 126/16/126 127/14/127 48/14/48 47/16/47 
f 127/14/127 128/12/128 49/12/49 48/14/48 
f 128/12/128 129/10/129 50/10/50 49/12/49 
f 129/10/129 130/8/130 51/8/51 50/10/50 
f 130/8/130 131/6/131 52/6/52 51/8/51 
f 131/6/131 120/5/120 40/5/40 52/6/52 
s 2
f 119/80/119 2/2/2 1/1/1 132/42/132 
f 27/81/27 122/82/122 132/42/132 1/1/1 
s 4
f 120/5/120 119/80/119 132/42/132 41/42/41 
f 121/44/121 43/44/43 41/42/41 
s 1
f 2/2/2 5/5/5 3/3/3 
f 27/28/27 1/1/1 4/4/4 25/26/25 
f 98/74/98 69/61/69 68/55/68 
f 71/57/71 69/61/69 98/74/98 
s 2
f 62/55/62 63/56/63 55/48/55 
f 64/57/64 65/58/65 55/48/55 
# 110 polygons - 40 triangles

