# 3ds Max Wavefront OBJ Exporter v0.99 - (c)2007 guruware
# File Created: 26.01.2022 16:39:42

mtllib Log_2.mtl

#
# object Cylinder007
#

v  -0.9588 0.7271 3.7143
v  -1.0324 0.3413 2.8958
v  -0.9494 0.7113 2.8977
v  -1.0603 0.3709 4.0421
v  -1.3256 0.1395 4.0361
v  -1.2591 0.1546 2.8907
v  -1.6881 0.0594 4.0279
v  -1.6047 0.0861 2.8829
v  -2.0527 0.1395 4.1273
v  -2.0003 0.1546 2.8739
v  -2.3159 0.3709 4.0137
v  -2.2271 0.3413 2.8688
v  -2.4130 0.7335 4.0115
v  -2.3101 0.7113 2.8669
v  -2.3159 1.0960 4.0137
v  -2.2271 1.0435 2.8688
v  -2.0518 1.3614 4.0814
v  -2.0003 1.2704 2.8739
v  -1.6881 1.4585 4.0279
v  -1.6047 1.3534 2.8829
v  -1.3256 1.3614 4.0361
v  -1.2591 1.2704 2.8907
v  -1.0603 1.0960 4.0421
v  -1.0324 1.0435 2.8958
v  -0.9829 0.8089 4.0438
v  -1.0424 0.3413 1.7561
v  -0.9810 0.3413 0.6180
v  -0.8980 0.7113 0.6199
v  -0.9594 0.7113 1.7580
v  -1.2692 0.1546 1.7510
v  -1.2077 0.1546 0.6128
v  -1.5790 0.0861 1.7439
v  -1.6106 0.0861 0.6037
v  -1.9461 0.1546 1.7356
v  -2.0086 0.1546 0.5947
v  -2.1729 0.3413 1.7305
v  -2.2353 0.3413 0.5896
v  -2.2559 0.7113 1.7286
v  -2.3183 0.7113 0.5877
v  -2.1729 1.0435 1.7305
v  -2.2353 1.0435 0.5896
v  -1.9461 1.2704 1.7356
v  -2.0086 1.2704 0.5947
v  -1.5790 1.3534 1.7439
v  -1.6106 1.3534 0.6037
v  -1.2692 1.2704 1.7510
v  -1.2077 1.2704 0.6128
v  -1.0424 1.0435 1.7561
v  -0.9810 1.0435 0.6180
v  -0.9561 0.3690 -0.4218
v  -0.8563 0.7333 -0.5319
v  -1.2227 0.1301 -0.4279
v  -1.5845 0.0496 -0.5484
v  -1.9487 0.1301 -0.5566
v  -2.2153 0.3690 -0.5627
v  -2.3115 0.7333 -0.6308
v  -2.2153 1.0975 -0.5627
v  -1.9487 1.3641 -0.5566
v  -1.5845 1.4617 -0.5484
v  -1.2204 1.3641 -0.5401
v  -0.9538 1.0975 -0.5341
v  -0.9829 0.6581 4.0438
v  -1.1002 0.6581 4.0412
v  -1.1619 0.4296 4.0398
v  -1.1619 1.0374 4.0398
v  -1.1002 0.8089 4.0412
v  -1.3843 1.2598 4.0347
v  -1.6881 1.3412 4.0279
v  -1.9932 1.2598 4.0828
v  -2.2143 1.0374 4.0160
v  -2.2957 0.7335 4.0141
v  -2.2143 0.4296 4.0160
v  -1.9941 0.2233 4.1286
v  -1.6881 0.1561 4.0279
v  -1.3843 0.2233 4.0347
v  -1.2157 0.7336 3.6697
v  -1.2779 0.5012 3.6682
v  -1.2779 0.9659 3.6682
v  -1.4480 1.1360 3.6644
v  -1.6803 1.1982 3.6591
v  -1.9125 1.1360 3.6539
v  -2.0826 0.9659 3.6500
v  -2.1448 0.7336 3.6486
v  -2.0826 0.5012 3.6500
v  -1.9125 0.3317 3.6539
v  -1.6803 0.2803 3.6591
v  -1.4480 0.3317 3.6644
v  -1.6756 0.7335 3.4321
v  -1.0370 0.4157 -0.4237
v  -0.9496 0.7333 -0.5340
v  -1.2694 0.1967 -0.4289
v  -1.5845 0.1266 -0.5484
v  -1.9020 0.1967 -0.5556
v  -2.1344 0.4157 -0.5608
v  -2.2181 0.7333 -0.6287
v  -2.1344 1.0508 -0.5608
v  -1.9020 1.2833 -0.5556
v  -1.5845 1.3684 -0.5484
v  -1.2671 1.2833 -0.5412
v  -1.0347 1.0508 -0.5359
v  -1.1836 0.4985 -0.2944
v  -1.1207 0.7333 -0.2930
v  -1.3554 0.3150 -0.2983
v  -1.5901 0.2631 -0.3036
v  -1.8248 0.3150 -0.3089
v  -1.9966 0.4985 -0.3128
v  -2.0595 0.7333 -0.3142
v  -1.9966 0.9680 -0.3128
v  -1.8248 1.1399 -0.3089
v  -1.5901 1.2028 -0.3036
v  -1.3554 1.1399 -0.2983
v  -1.1836 0.9680 -0.2944
v  -1.5920 0.7333 -0.2172
v  -0.9809 0.7335 3.9451
v  -1.0981 0.7335 3.9424
# 115 vertices

vn 0.9973 0.0121 0.0721
vn 0.8475 -0.5306 -0.0109
vn 0.9975 0.0056 -0.0698
vn 0.6200 -0.3819 0.6854
vn 0.3057 -0.6787 0.6678
vn 0.4481 -0.8939 -0.0112
vn -0.0209 -0.7916 0.6107
vn 0.0260 -0.9986 -0.0465
vn -0.3690 -0.6808 0.6328
vn -0.4175 -0.9056 -0.0745
vn -0.7289 -0.3894 0.5632
vn -0.8337 -0.5358 -0.1333
vn -0.8523 0.0105 0.5229
vn -0.9751 0.0057 -0.2216
vn -0.7461 0.4230 0.5141
vn -0.8525 0.4747 -0.2188
vn -0.4237 0.7332 0.5319
vn -0.4767 0.8557 -0.2015
vn -0.0317 0.8690 0.4938
vn 0.0337 0.9811 -0.1903
vn 0.3671 0.7338 0.5717
vn 0.5184 0.8453 -0.1290
vn 0.6564 0.4134 0.6311
vn 0.8761 0.4743 -0.0868
vn 0.6830 0.0288 0.7299
vn 0.8434 -0.5369 0.0188
vn 0.8488 -0.5265 0.0483
vn 0.9928 0.0057 0.1201
vn 0.9997 0.0124 0.0223
vn 0.4209 -0.9071 0.0094
vn 0.4373 -0.8979 0.0499
vn 0.0305 -0.9995 -0.0042
vn -0.0143 -0.9973 0.0721
vn -0.3938 -0.9186 0.0334
vn -0.4490 -0.8900 0.0799
vn -0.8364 -0.5427 0.0764
vn -0.8505 -0.5162 0.1013
vn -0.9958 0.0124 0.0904
vn -0.9847 0.0056 0.1743
vn -0.8585 0.5069 0.0781
vn -0.8698 0.4594 0.1800
vn -0.4523 0.8910 0.0387
vn -0.5134 0.8363 0.1925
vn 0.0364 0.9993 -0.0050
vn -0.0198 0.9791 0.2025
vn 0.4826 0.8758 0.0108
vn 0.4990 0.8519 0.1589
vn 0.8641 0.5029 0.0193
vn 0.8724 0.4715 0.1290
vn 0.6527 -0.3967 -0.6455
vn 0.7837 -0.0077 -0.6211
vn 0.3589 -0.6889 -0.6298
vn 0.0319 -0.7857 -0.6177
vn -0.3176 -0.6895 -0.6509
vn -0.6298 -0.3924 -0.6704
vn -0.7580 0.0094 -0.6522
vn -0.6629 0.4270 -0.6150
vn -0.3717 0.7369 -0.5647
vn 0.0113 0.8658 -0.5003
vn 0.3942 0.7361 -0.5503
vn 0.6878 0.4147 -0.5958
vn 0.6641 -0.0154 0.7474
vn -0.2428 0.1578 0.9571
vn -0.2081 0.1117 0.9717
vn -0.2126 -0.1102 0.9709
vn -0.2429 -0.1578 0.9571
vn -0.1322 -0.1907 0.9727
vn 0.0008 -0.2214 0.9752
vn 0.1020 -0.2149 0.9713
vn 0.1585 -0.1308 0.9787
vn 0.1990 0.0000 0.9800
vn 0.1448 0.1490 0.9782
vn 0.1158 0.2493 0.9615
vn 0.0177 0.2565 0.9664
vn -0.1350 0.2097 0.9684
vn -0.3556 -0.0000 0.9346
vn -0.3196 0.1727 0.9317
vn -0.3197 -0.1725 0.9317
vn -0.1936 -0.2990 0.9344
vn -0.0210 -0.3456 0.9381
vn 0.1708 -0.3317 0.9278
vn 0.2786 -0.1731 0.9447
vn 0.3250 -0.0000 0.9457
vn 0.2785 0.1733 0.9447
vn 0.1845 0.3850 0.9043
vn -0.0208 0.3747 0.9269
vn -0.1949 0.3287 0.9241
vn -0.0225 0.0005 0.9997
vn -0.0613 0.0031 -0.9981
vn -0.1121 -0.0400 -0.9929
vn 0.0158 0.0995 -0.9949
vn 0.0620 0.1657 -0.9842
vn 0.0961 0.1343 -0.9863
vn 0.1492 0.0481 -0.9876
vn 0.1891 -0.0000 -0.9820
vn 0.1514 -0.0473 -0.9873
vn 0.0899 -0.1170 -0.9891
vn 0.0224 -0.1351 -0.9906
vn -0.0451 -0.1170 -0.9921
vn -0.0945 -0.0675 -0.9932
vn -0.0836 0.0586 -0.9948
vn -0.1824 0.0000 -0.9832
vn -0.0439 0.1224 -0.9915
vn 0.0220 0.2353 -0.9717
vn 0.1335 0.2055 -0.9695
vn 0.2000 0.0982 -0.9749
vn 0.2706 0.0000 -0.9627
vn 0.1993 -0.1023 -0.9746
vn 0.1244 -0.1772 -0.9763
vn 0.0221 -0.2046 -0.9786
vn -0.0801 -0.1772 -0.9809
vn -0.1550 -0.1023 -0.9826
vn 0.0226 -0.0003 -0.9997
vn 0.6280 -0.0059 0.7782
vn -0.2604 0.0001 0.9655
# 115 vertex normals

vt 0.7500 0.0720 1.0000
vt 0.6667 0.2500 1.0000
vt 0.7500 0.2500 1.0000
vt 0.6667 0.0000 1.0000
vt 0.5833 0.0000 1.0000
vt 0.5833 0.2500 1.0000
vt 0.5000 0.0000 1.0000
vt 0.5000 0.2500 1.0000
vt 0.4167 0.0000 1.0000
vt 0.4167 0.2500 1.0000
vt 0.3333 0.0000 1.0000
vt 0.3333 0.2500 1.0000
vt 0.2500 0.0000 1.0000
vt 0.2500 0.2500 1.0000
vt 0.1667 0.0000 1.0000
vt 0.1667 0.2500 1.0000
vt 0.0833 0.0000 1.0000
vt 0.0833 0.2500 1.0000
vt 0.0000 0.0000 1.0000
vt 0.0000 0.2500 1.0000
vt -0.0833 0.0000 1.0000
vt -0.0833 0.2500 1.0000
vt 0.9167 0.0000 1.0000
vt 0.8333 0.0000 1.0000
vt 0.8333 0.2500 1.0000
vt 0.9167 0.2500 1.0000
vt 0.7673 0.0000 1.0000
vt 0.6667 0.5000 1.0000
vt 0.6667 0.7500 1.0000
vt 0.7500 0.7500 1.0000
vt 0.7500 0.5000 1.0000
vt 0.5833 0.5000 1.0000
vt 0.5833 0.7500 1.0000
vt 0.5000 0.5000 1.0000
vt 0.5000 0.7500 1.0000
vt 0.4167 0.5000 1.0000
vt 0.4167 0.7500 1.0000
vt 0.3333 0.5000 1.0000
vt 0.3333 0.7500 1.0000
vt 0.2500 0.5000 1.0000
vt 0.2500 0.7500 1.0000
vt 0.1667 0.5000 1.0000
vt 0.1667 0.7500 1.0000
vt 0.0833 0.5000 1.0000
vt 0.0833 0.7500 1.0000
vt 0.0000 0.5000 1.0000
vt 0.0000 0.7500 1.0000
vt -0.0833 0.5000 1.0000
vt -0.0833 0.7500 1.0000
vt 0.8333 0.5000 1.0000
vt 0.8333 0.7500 1.0000
vt 0.9167 0.7500 1.0000
vt 0.9167 0.5000 1.0000
vt 0.6667 1.0000 1.0000
vt 0.7500 1.0000 1.0000
vt 0.5833 1.0000 1.0000
vt 0.5000 1.0000 1.0000
vt 0.4167 1.0000 1.0000
vt 0.3333 1.0000 1.0000
vt 0.2500 1.0000 1.0000
vt 0.1667 1.0000 1.0000
vt 0.0833 1.0000 1.0000
vt 0.0000 1.0000 1.0000
vt -0.0833 1.0000 1.0000
vt 0.8333 1.0000 1.0000
vt 0.9167 1.0000 1.0000
vt 0.7327 0.0000 1.0000
vt 0.7293 0.0000 1.0000
vt 0.5919 0.0000 0.9443
vt -0.0104 0.0000 0.7321
vt 0.5613 0.0000 0.9335
vt 0.7500 0.0000 1.0000
vt 0.3047 0.0000 0.9777
vt 0.3750 1.0000 1.0000
# 74 texture coords

o Cylinder007
g Cylinder007
usemtl wire_115115115
s 1
f 1/1/1 2/2/2 3/3/3 
s 2
f 4/4/4 5/5/5 6/6/6 2/2/2 
f 5/5/5 7/7/7 8/8/8 6/6/6 
f 7/7/7 9/9/9 10/10/10 8/8/8 
f 9/9/9 11/11/11 12/12/12 10/10/10 
s 1
f 11/11/11 13/13/13 14/14/14 12/12/12 
f 13/13/13 15/15/15 16/16/16 14/14/14 
f 15/15/15 17/17/17 18/18/18 16/16/16 
s 2
f 17/17/17 19/19/19 20/20/20 18/18/18 
f 19/19/19 21/21/21 22/22/22 20/20/20 
s 4
f 21/23/21 23/24/23 24/25/24 22/26/22 
s 1
f 23/24/23 25/27/25 24/25/24 
f 26/28/26 27/29/27 28/30/28 29/31/29 
s 2
f 30/32/30 31/33/31 27/29/27 26/28/26 
f 32/34/32 33/35/33 31/33/31 30/32/30 
f 34/36/34 35/37/35 33/35/33 32/34/32 
f 36/38/36 37/39/37 35/37/35 34/36/34 
s 1
f 38/40/38 39/41/39 37/39/37 36/38/36 
f 40/42/40 41/43/41 39/41/39 38/40/38 
f 42/44/42 43/45/43 41/43/41 40/42/40 
s 2
f 44/46/44 45/47/45 43/45/43 42/44/42 
f 46/48/46 47/49/47 45/47/45 44/46/44 
s 4
f 48/50/48 49/51/49 47/52/47 46/53/46 
s 1
f 29/31/29 28/30/28 49/51/49 48/50/48 
f 27/29/27 50/54/50 51/55/51 28/30/28 
s 2
f 31/33/31 52/56/52 50/54/50 27/29/27 
f 33/35/33 53/57/53 52/56/52 31/33/31 
f 35/37/35 54/58/54 53/57/53 33/35/33 
f 37/39/37 55/59/55 54/58/54 35/37/35 
s 1
f 39/41/39 56/60/56 55/59/55 37/39/37 
f 41/43/41 57/61/57 56/60/56 39/41/39 
f 43/45/43 58/62/58 57/61/57 41/43/41 
s 2
f 45/47/45 59/63/59 58/62/58 43/45/43 
f 47/49/47 60/64/60 59/63/59 45/47/45 
s 4
f 49/51/49 61/65/61 60/66/60 47/52/47 
s 1
f 28/30/28 51/55/51 61/65/61 49/51/49 
f 2/2/2 26/28/26 29/31/29 3/3/3 
s 2
f 6/6/6 30/32/30 26/28/26 2/2/2 
f 8/8/8 32/34/32 30/32/30 6/6/6 
f 10/10/10 34/36/34 32/34/32 8/8/8 
f 12/12/12 36/38/36 34/36/34 10/10/10 
s 1
f 14/14/14 38/40/38 36/38/36 12/12/12 
f 16/16/16 40/42/40 38/40/38 14/14/14 
f 18/18/18 42/44/42 40/42/40 16/16/16 
s 2
f 20/20/20 44/46/44 42/44/42 18/18/18 
f 22/22/22 46/48/46 44/46/44 20/20/20 
s 4
f 24/25/24 48/50/48 46/53/46 22/26/22 
s 1
f 3/3/3 29/31/29 48/50/48 24/25/24 
s 8
f 4/4/4 62/67/62 63/68/63 64/4/64 
f 25/69/25 23/70/23 65/70/65 66/71/66 
f 23/70/23 21/21/21 67/21/67 65/70/65 
f 21/21/21 19/19/19 68/19/68 67/21/67 
f 19/19/19 17/17/17 69/17/69 68/19/68 
f 17/17/17 15/15/15 70/15/70 69/17/69 
f 15/15/15 13/13/13 71/13/71 70/15/70 
f 13/13/13 11/11/11 72/11/72 71/13/71 
f 11/11/11 9/9/9 73/9/73 72/11/72 
f 9/9/9 7/7/7 74/7/74 73/9/73 
f 7/7/7 5/5/5 75/5/75 74/7/74 
f 5/5/5 4/4/4 64/4/64 75/5/75 
f 64/4/64 63/68/63 76/72/76 77/4/77 
f 76/72/76 66/71/66 65/70/65 78/70/78 
f 65/70/65 67/21/67 79/21/79 78/70/78 
f 67/21/67 68/19/68 80/19/80 79/21/79 
f 68/19/68 69/17/69 81/17/81 80/19/80 
f 69/17/69 70/15/70 82/15/82 81/17/81 
f 70/15/70 71/13/71 83/13/83 82/15/82 
f 71/13/71 72/11/72 84/11/84 83/13/83 
f 72/11/72 73/9/73 85/9/85 84/11/84 
f 73/9/73 74/7/74 86/7/86 85/9/85 
f 74/7/74 75/5/75 87/5/87 86/7/86 
f 75/5/75 64/4/64 77/4/77 87/5/87 
f 77/4/77 76/72/76 88/73/88 
f 76/72/76 78/70/78 88/73/88 
f 78/70/78 79/21/79 88/73/88 
f 79/21/79 80/19/80 88/73/88 
f 80/19/80 81/17/81 88/73/88 
f 81/17/81 82/15/82 88/73/88 
f 82/15/82 83/13/83 88/73/88 
f 83/13/83 84/11/84 88/73/88 
f 84/11/84 85/9/85 88/73/88 
f 85/9/85 86/7/86 88/73/88 
f 86/7/86 87/5/87 88/73/88 
f 87/5/87 77/4/77 88/73/88 
f 51/55/51 50/54/50 89/54/89 90/55/90 
f 50/54/50 52/56/52 91/56/91 89/54/89 
f 52/56/52 53/57/53 92/57/92 91/56/91 
f 53/57/53 54/58/54 93/58/93 92/57/92 
f 54/58/54 55/59/55 94/59/94 93/58/93 
f 55/59/55 56/60/56 95/60/95 94/59/94 
f 56/60/56 57/61/57 96/61/96 95/60/95 
f 57/61/57 58/62/58 97/62/97 96/61/96 
f 58/62/58 59/63/59 98/63/98 97/62/97 
f 59/63/59 60/64/60 99/64/99 98/63/98 
f 60/64/60 61/65/61 100/65/100 99/64/99 
f 61/65/61 51/55/51 90/55/90 100/65/100 
f 90/55/90 89/54/89 101/54/101 102/55/102 
f 89/54/89 91/56/91 103/56/103 101/54/101 
f 91/56/91 92/57/92 104/57/104 103/56/103 
f 92/57/92 93/58/93 105/58/105 104/57/104 
f 93/58/93 94/59/94 106/59/106 105/58/105 
f 94/59/94 95/60/95 107/60/107 106/59/106 
f 95/60/95 96/61/96 108/61/108 107/60/107 
f 96/61/96 97/62/97 109/62/109 108/61/108 
f 97/62/97 98/63/98 110/63/110 109/62/109 
f 98/63/98 99/64/99 111/64/111 110/63/110 
f 99/64/99 100/65/100 112/65/112 111/64/111 
f 100/65/100 90/55/90 102/55/102 112/65/112 
f 102/55/102 101/54/101 113/74/113 
f 101/54/101 103/56/103 113/74/113 
f 103/56/103 104/57/104 113/74/113 
f 104/57/104 105/58/105 113/74/113 
f 105/58/105 106/59/106 113/74/113 
f 106/59/106 107/60/107 113/74/113 
f 107/60/107 108/61/108 113/74/113 
f 108/61/108 109/62/109 113/74/113 
f 109/62/109 110/63/110 113/74/113 
f 110/63/110 111/64/111 113/74/113 
f 111/64/111 112/65/112 113/74/113 
f 112/65/112 102/55/102 113/74/113 
s 1
f 1/1/1 114/72/114 62/67/62 
f 25/27/25 114/72/114 1/1/1 
s 8
f 63/68/63 115/72/115 76/72/76 
f 76/72/76 115/72/115 66/71/66 
f 63/68/63 62/67/62 114/72/114 115/72/115 
f 25/69/25 66/71/66 115/72/115 114/72/114 
s 1
f 62/67/62 4/4/4 2/2/2 
f 25/27/25 1/1/1 24/25/24 
f 1/1/1 62/67/62 2/2/2 
f 1/1/1 3/3/3 24/25/24 
# 96 polygons - 34 triangles

