# 3ds Max Wavefront OBJ Exporter v0.99 - (c)2007 guruware
# File Created: 26.01.2022 16:39:57

mtllib Log_3.mtl

#
# object Cylinder006
#

v  -3.8306 0.7335 -0.6783
v  -3.7339 0.3639 -0.5636
v  -3.7598 0.3337 0.6049
v  -3.8444 0.7109 0.6031
v  -3.4634 0.1280 -0.5581
v  -3.5286 0.1434 0.6096
v  -3.0939 0.0464 -0.5506
v  -3.1763 0.0736 0.6168
v  -2.7245 0.1280 -0.5430
v  -2.7731 0.1434 0.6250
v  -2.4548 0.3639 -0.4990
v  -2.5419 0.3337 0.6297
v  -2.3558 0.7335 -0.4969
v  -2.4573 0.7109 0.6314
v  -2.4540 1.1030 -0.5375
v  -2.5419 1.0495 0.6297
v  -2.7245 1.3735 -0.5430
v  -2.7731 1.2807 0.6250
v  -3.0939 1.4726 -0.5506
v  -3.1763 1.3654 0.6168
v  -3.4634 1.3735 -0.5581
v  -3.5286 1.2807 0.6096
v  -3.7339 1.1030 -0.5636
v  -3.7598 1.0495 0.6049
v  -3.7469 0.3337 1.7666
v  -3.8070 0.3337 2.9269
v  -3.8916 0.7109 2.9252
v  -3.8315 0.7109 1.7649
v  -3.5158 0.1434 1.7713
v  -3.5758 0.1434 2.9316
v  -3.2000 0.0736 1.7778
v  -3.1651 0.0736 2.9400
v  -2.8257 0.1434 1.7854
v  -2.7595 0.1434 2.9483
v  -2.5945 0.3337 1.7901
v  -2.5283 0.3337 2.9530
v  -2.5099 0.7109 1.7919
v  -2.4437 0.7109 2.9547
v  -2.5945 1.0495 1.7901
v  -2.5283 1.0495 2.9530
v  -2.8257 1.2807 1.7854
v  -2.7595 1.2807 2.9483
v  -3.2000 1.3654 1.7778
v  -3.1651 1.3654 2.9400
v  -3.5158 1.2807 1.7713
v  -3.5758 1.2807 2.9316
v  -3.7469 1.0495 1.7666
v  -3.8070 1.0495 2.9269
v  -3.8320 0.3620 4.1013
v  -3.9315 0.7333 4.0993
v  -3.5584 0.1184 4.0158
v  -3.1891 0.0363 4.1145
v  -2.8179 0.1184 4.1220
v  -2.5461 0.3620 4.1276
v  -2.4467 0.7333 4.1296
v  -2.5461 1.1045 4.1276
v  -2.8179 1.3763 4.1220
v  -3.1923 1.4758 4.2730
v  -3.5603 1.3763 4.1069
v  -3.8320 1.1045 4.1013
v  -3.7111 0.7335 -0.6759
v  -3.6304 0.4237 -0.5615
v  -3.6304 1.0432 -0.5615
v  -3.4037 1.2700 -0.5569
v  -3.0939 1.3530 -0.5506
v  -2.7842 1.2700 -0.5443
v  -2.5575 1.0432 -0.5396
v  -2.4753 0.7335 -0.4994
v  -2.5583 0.4237 -0.5011
v  -2.7842 0.2134 -0.5443
v  -3.0939 0.1450 -0.5506
v  -3.4037 0.2134 -0.5569
v  -3.5563 0.7336 -0.3111
v  -3.4951 0.5049 -0.3099
v  -3.4951 0.9623 -0.3099
v  -3.3277 1.1297 -0.3065
v  -3.0990 1.1910 -0.3018
v  -2.8704 1.1297 -0.2972
v  -2.7030 0.9623 -0.2937
v  -2.6417 0.7336 -0.2925
v  -2.7030 0.5049 -0.2937
v  -2.8704 0.3380 -0.2972
v  -3.0990 0.2875 -0.3018
v  -3.3277 0.3380 -0.3065
v  -3.0998 0.7335 -0.2637
v  -3.7496 0.4096 4.1030
v  -3.8363 0.7333 4.1013
v  -3.5109 0.1863 4.0168
v  -3.1891 0.1148 4.1145
v  -2.8655 0.1863 4.1211
v  -2.6285 0.4096 4.1259
v  -2.5418 0.7333 4.1277
v  -2.6285 1.0569 4.1259
v  -2.8655 1.2939 4.1211
v  -3.1923 1.3806 4.2730
v  -3.5127 1.2939 4.1079
v  -3.7496 1.0569 4.1030
v  -3.5935 0.4939 3.6156
v  -3.6576 0.7333 3.6143
v  -3.4183 0.3069 3.6192
v  -3.1791 0.2540 3.6240
v  -2.9398 0.3069 3.6289
v  -2.7647 0.4939 3.6325
v  -2.7006 0.7333 3.6338
v  -2.7647 0.9726 3.6325
v  -2.9398 1.1477 3.6289
v  -3.1791 1.2119 3.6240
v  -3.4183 1.1477 3.6192
v  -3.5935 0.9726 3.6156
v  -3.1765 0.7333 3.4954
# 110 vertices

vn -0.7436 0.0088 -0.6686
vn -0.6187 -0.4009 -0.6757
vn -0.8507 -0.5256 0.0075
vn -0.9976 0.0062 0.0689
vn -0.3072 -0.6787 -0.6671
vn -0.4481 -0.8939 0.0122
vn 0.0354 -0.7837 -0.6201
vn -0.0258 -0.9986 0.0466
vn 0.3768 -0.6914 -0.6164
vn 0.4170 -0.9056 0.0776
vn 0.7204 -0.3965 -0.5691
vn 0.8333 -0.5364 0.1335
vn 0.8558 0.0063 -0.5172
vn 0.9746 0.0055 0.2241
vn 0.7386 0.4219 -0.5258
vn 0.8530 0.4747 0.2169
vn 0.4268 0.7440 -0.5140
vn 0.4765 0.8540 0.2088
vn 0.0366 0.8647 -0.5010
vn -0.0333 0.9811 0.1904
vn -0.3684 0.7338 -0.5709
vn -0.5181 0.8453 0.1301
vn -0.6550 0.4316 -0.6203
vn -0.8776 0.4717 0.0853
vn -0.8435 -0.5369 -0.0169
vn -0.8493 -0.5256 -0.0489
vn -0.9930 0.0057 -0.1178
vn -0.9997 0.0124 -0.0201
vn -0.4209 -0.9071 -0.0085
vn -0.4372 -0.8980 -0.0486
vn -0.0305 -0.9995 0.0043
vn 0.0141 -0.9973 -0.0721
vn 0.3937 -0.9186 -0.0343
vn 0.4488 -0.8900 -0.0809
vn 0.8363 -0.5427 -0.0782
vn 0.8503 -0.5162 -0.1032
vn 0.9956 0.0124 -0.0926
vn 0.9840 0.0053 -0.1783
vn 0.8583 0.5069 -0.0800
vn 0.8694 0.4594 -0.1819
vn 0.4522 0.8910 -0.0398
vn 0.5130 0.8363 -0.1936
vn -0.0364 0.9993 0.0051
vn 0.0189 0.9834 -0.1806
vn -0.4826 0.8758 -0.0097
vn -0.4994 0.8519 -0.1578
vn -0.8642 0.5029 -0.0174
vn -0.8727 0.4715 -0.1271
vn -0.6423 -0.3901 0.6598
vn -0.7889 0.0105 0.6145
vn -0.3420 -0.7022 0.6244
vn -0.0268 -0.7872 0.6161
vn 0.3190 -0.6895 0.6502
vn 0.6331 -0.3809 0.6738
vn 0.7690 0.0105 0.6391
vn 0.6662 0.4160 0.6190
vn 0.3931 0.7389 0.5473
vn -0.0112 0.8366 0.5477
vn -0.4125 0.7382 0.5338
vn -0.6864 0.4147 0.5974
vn 0.2132 0.0000 -0.9770
vn 0.1593 0.0354 -0.9866
vn 0.1623 -0.0345 -0.9861
vn 0.0901 -0.1211 -0.9885
vn 0.0202 -0.1399 -0.9900
vn -0.0497 -0.1211 -0.9914
vn -0.0937 -0.0820 -0.9922
vn -0.0993 -0.0141 -0.9950
vn -0.0734 0.0734 -0.9946
vn -0.0399 0.1410 -0.9892
vn 0.0201 0.1625 -0.9865
vn 0.0921 0.1334 -0.9868
vn 0.2956 -0.0000 -0.9553
vn 0.1945 0.1010 -0.9757
vn 0.1946 -0.1009 -0.9757
vn 0.1208 -0.1747 -0.9772
vn 0.0200 -0.2018 -0.9792
vn -0.0809 -0.1747 -0.9813
vn -0.1547 -0.1009 -0.9828
vn -0.1537 -0.0000 -0.9881
vn -0.1303 0.0870 -0.9876
vn -0.0828 0.1950 -0.9773
vn 0.0199 0.2209 -0.9751
vn 0.1225 0.1950 -0.9731
vn 0.0204 0.0001 -0.9998
vn 0.2018 0.0937 0.9749
vn 0.2229 -0.0000 0.9748
vn 0.0902 0.2049 0.9746
vn -0.0507 0.2876 0.9564
vn -0.1488 0.2363 0.9602
vn -0.2261 0.1228 0.9663
vn -0.2625 -0.0000 0.9649
vn -0.2300 -0.1214 0.9656
vn -0.0945 -0.2395 0.9663
vn -0.0195 -0.2922 0.9562
vn 0.0551 -0.2395 0.9693
vn 0.1904 -0.1214 0.9742
vn 0.2893 0.1705 0.9420
vn 0.3355 0.0000 0.9420
vn 0.1458 0.3023 0.9420
vn -0.0187 0.3954 0.9183
vn -0.2085 0.3467 0.9145
vn -0.3274 0.1705 0.9294
vn -0.3736 0.0000 0.9276
vn -0.3261 -0.1773 0.9286
vn -0.1963 -0.3071 0.9312
vn -0.0185 -0.4241 0.9054
vn 0.1582 -0.3071 0.9384
vn 0.2880 -0.1773 0.9411
vn -0.0204 -0.0004 0.9998
# 110 vertex normals

vt 0.7500 0.0000 1.0000
vt 0.6667 0.0000 1.0000
vt 0.6667 0.2500 1.0000
vt 0.7500 0.2500 1.0000
vt 0.5833 0.0000 1.0000
vt 0.5833 0.2500 1.0000
vt 0.5000 0.0000 1.0000
vt 0.5000 0.2500 1.0000
vt 0.4167 0.0000 1.0000
vt 0.4167 0.2500 1.0000
vt 0.3333 0.0000 1.0000
vt 0.3333 0.2500 1.0000
vt 0.2500 0.0000 1.0000
vt 0.2500 0.2500 1.0000
vt 0.1667 0.0000 1.0000
vt 0.1667 0.2500 1.0000
vt 0.0833 0.0000 1.0000
vt 0.0833 0.2500 1.0000
vt 0.0000 0.0000 1.0000
vt 0.0000 0.2500 1.0000
vt -0.0833 0.0000 1.0000
vt -0.0833 0.2500 1.0000
vt 0.9167 0.0000 1.0000
vt 0.8333 0.0000 1.0000
vt 0.8333 0.2500 1.0000
vt 0.9167 0.2500 1.0000
vt 0.6667 0.5000 1.0000
vt 0.6667 0.7500 1.0000
vt 0.7500 0.7500 1.0000
vt 0.7500 0.5000 1.0000
vt 0.5833 0.5000 1.0000
vt 0.5833 0.7500 1.0000
vt 0.5000 0.5000 1.0000
vt 0.5000 0.7500 1.0000
vt 0.4167 0.5000 1.0000
vt 0.4167 0.7500 1.0000
vt 0.3333 0.5000 1.0000
vt 0.3333 0.7500 1.0000
vt 0.2500 0.5000 1.0000
vt 0.2500 0.7500 1.0000
vt 0.1667 0.5000 1.0000
vt 0.1667 0.7500 1.0000
vt 0.0833 0.5000 1.0000
vt 0.0833 0.7500 1.0000
vt 0.0000 0.5000 1.0000
vt 0.0000 0.7500 1.0000
vt -0.0833 0.5000 1.0000
vt -0.0833 0.7500 1.0000
vt 0.8333 0.5000 1.0000
vt 0.8333 0.7500 1.0000
vt 0.9167 0.7500 1.0000
vt 0.9167 0.5000 1.0000
vt 0.6667 1.0000 1.0000
vt 0.7500 1.0000 1.0000
vt 0.5833 1.0000 1.0000
vt 0.5000 1.0000 1.0000
vt 0.4167 1.0000 1.0000
vt 0.3333 1.0000 1.0000
vt 0.2500 1.0000 1.0000
vt 0.1667 1.0000 1.0000
vt 0.0833 1.0000 1.0000
vt 0.0000 1.0000 1.0000
vt -0.0833 1.0000 1.0000
vt 0.8333 1.0000 1.0000
vt 0.9167 1.0000 1.0000
vt -0.0104 0.0000 0.7321
vt 0.3047 0.0000 0.9777
vt 0.3750 1.0000 1.0000
# 68 texture coords

o Cylinder006
g Cylinder006
usemtl wire_115115115
s 8
f 1/1/1 2/2/2 3/3/3 4/4/4 
f 2/2/2 5/5/5 6/6/6 3/3/3 
f 5/5/5 7/7/7 8/8/8 6/6/6 
f 7/7/7 9/9/9 10/10/10 8/8/8 
f 9/9/9 11/11/11 12/12/12 10/10/10 
f 11/11/11 13/13/13 14/14/14 12/12/12 
f 13/13/13 15/15/15 16/16/16 14/14/14 
f 15/15/15 17/17/17 18/18/18 16/16/16 
f 17/17/17 19/19/19 20/20/20 18/18/18 
f 19/19/19 21/21/21 22/22/22 20/20/20 
f 21/23/21 23/24/23 24/25/24 22/26/22 
f 23/24/23 1/1/1 4/4/4 24/25/24 
f 25/27/25 26/28/26 27/29/27 28/30/28 
f 29/31/29 30/32/30 26/28/26 25/27/25 
f 31/33/31 32/34/32 30/32/30 29/31/29 
f 33/35/33 34/36/34 32/34/32 31/33/31 
f 35/37/35 36/38/36 34/36/34 33/35/33 
f 37/39/37 38/40/38 36/38/36 35/37/35 
f 39/41/39 40/42/40 38/40/38 37/39/37 
f 41/43/41 42/44/42 40/42/40 39/41/39 
f 43/45/43 44/46/44 42/44/42 41/43/41 
f 45/47/45 46/48/46 44/46/44 43/45/43 
f 47/49/47 48/50/48 46/51/46 45/52/45 
f 28/30/28 27/29/27 48/50/48 47/49/47 
f 26/28/26 49/53/49 50/54/50 27/29/27 
f 30/32/30 51/55/51 49/53/49 26/28/26 
f 32/34/32 52/56/52 51/55/51 30/32/30 
f 34/36/34 53/57/53 52/56/52 32/34/32 
f 36/38/36 54/58/54 53/57/53 34/36/34 
f 38/40/38 55/59/55 54/58/54 36/38/36 
f 40/42/40 56/60/56 55/59/55 38/40/38 
f 42/44/42 57/61/57 56/60/56 40/42/40 
f 44/46/44 58/62/58 57/61/57 42/44/42 
f 46/48/46 59/63/59 58/62/58 44/46/44 
f 48/50/48 60/64/60 59/65/59 46/51/46 
f 27/29/27 50/54/50 60/64/60 48/50/48 
f 3/3/3 25/27/25 28/30/28 4/4/4 
f 6/6/6 29/31/29 25/27/25 3/3/3 
f 8/8/8 31/33/31 29/31/29 6/6/6 
f 10/10/10 33/35/33 31/33/31 8/8/8 
f 12/12/12 35/37/35 33/35/33 10/10/10 
f 14/14/14 37/39/37 35/37/35 12/12/12 
f 16/16/16 39/41/39 37/39/37 14/14/14 
f 18/18/18 41/43/41 39/41/39 16/16/16 
f 20/20/20 43/45/43 41/43/41 18/18/18 
f 22/22/22 45/47/45 43/45/43 20/20/20 
f 24/25/24 47/49/47 45/52/45 22/26/22 
f 4/4/4 28/30/28 47/49/47 24/25/24 
s off
f 2/2/2 1/1/1 61/1/61 62/2/62 
f 1/1/1 23/66/23 63/66/63 61/1/61 
f 23/66/23 21/21/21 64/21/64 63/66/63 
f 21/21/21 19/19/19 65/19/65 64/21/64 
f 19/19/19 17/17/17 66/17/66 65/19/65 
f 17/17/17 15/15/15 67/15/67 66/17/66 
f 15/15/15 13/13/13 68/13/68 67/15/67 
f 13/13/13 11/11/11 69/11/69 68/13/68 
f 11/11/11 9/9/9 70/9/70 69/11/69 
f 9/9/9 7/7/7 71/7/71 70/9/70 
f 7/7/7 5/5/5 72/5/72 71/7/71 
f 5/5/5 2/2/2 62/2/62 72/5/72 
f 62/2/62 61/1/61 73/1/73 74/2/74 
f 61/1/61 63/66/63 75/66/75 73/1/73 
f 63/66/63 64/21/64 76/21/76 75/66/75 
f 64/21/64 65/19/65 77/19/77 76/21/76 
f 65/19/65 66/17/66 78/17/78 77/19/77 
f 66/17/66 67/15/67 79/15/79 78/17/78 
f 67/15/67 68/13/68 80/13/80 79/15/79 
f 68/13/68 69/11/69 81/11/81 80/13/80 
f 69/11/69 70/9/70 82/9/82 81/11/81 
f 70/9/70 71/7/71 83/7/83 82/9/82 
f 71/7/71 72/5/72 84/5/84 83/7/83 
f 72/5/72 62/2/62 74/2/74 84/5/84 
f 74/2/74 73/1/73 85/67/85 
f 73/1/73 75/66/75 85/67/85 
f 75/66/75 76/21/76 85/67/85 
f 76/21/76 77/19/77 85/67/85 
f 77/19/77 78/17/78 85/67/85 
f 78/17/78 79/15/79 85/67/85 
f 79/15/79 80/13/80 85/67/85 
f 80/13/80 81/11/81 85/67/85 
f 81/11/81 82/9/82 85/67/85 
f 82/9/82 83/7/83 85/67/85 
f 83/7/83 84/5/84 85/67/85 
f 84/5/84 74/2/74 85/67/85 
f 50/54/50 49/53/49 86/53/86 87/54/87 
f 49/53/49 51/55/51 88/55/88 86/53/86 
f 51/55/51 52/56/52 89/56/89 88/55/88 
f 52/56/52 53/57/53 90/57/90 89/56/89 
f 53/57/53 54/58/54 91/58/91 90/57/90 
f 54/58/54 55/59/55 92/59/92 91/58/91 
f 55/59/55 56/60/56 93/60/93 92/59/92 
f 56/60/56 57/61/57 94/61/94 93/60/93 
f 57/61/57 58/62/58 95/62/95 94/61/94 
f 58/62/58 59/63/59 96/63/96 95/62/95 
f 59/63/59 60/64/60 97/64/97 96/63/96 
f 60/64/60 50/54/50 87/54/87 97/64/97 
f 87/54/87 86/53/86 98/53/98 99/54/99 
f 86/53/86 88/55/88 100/55/100 98/53/98 
f 88/55/88 89/56/89 101/56/101 100/55/100 
f 89/56/89 90/57/90 102/57/102 101/56/101 
f 90/57/90 91/58/91 103/58/103 102/57/102 
f 91/58/91 92/59/92 104/59/104 103/58/103 
f 92/59/92 93/60/93 105/60/105 104/59/104 
f 93/60/93 94/61/94 106/61/106 105/60/105 
f 94/61/94 95/62/95 107/62/107 106/61/106 
f 95/62/95 96/63/96 108/63/108 107/62/107 
f 96/63/96 97/64/97 109/64/109 108/63/108 
f 97/64/97 87/54/87 99/54/99 109/64/109 
f 99/54/99 98/53/98 110/68/110 
f 98/53/98 100/55/100 110/68/110 
f 100/55/100 101/56/101 110/68/110 
f 101/56/101 102/57/102 110/68/110 
f 102/57/102 103/58/103 110/68/110 
f 103/58/103 104/59/104 110/68/110 
f 104/59/104 105/60/105 110/68/110 
f 105/60/105 106/61/106 110/68/110 
f 106/61/106 107/62/107 110/68/110 
f 107/62/107 108/63/108 110/68/110 
f 108/63/108 109/64/109 110/68/110 
f 109/64/109 99/54/99 110/68/110 
# 96 polygons - 24 triangles

