# 3ds Max Wavefront OBJ Exporter v0.99 - (c)2007 guruware
# File Created: 26.01.2022 16:40:49

mtllib Mushroom_2.mtl

#
# object Cylinder010
#

v  -1.3560 0.0257 5.3264
v  -1.3473 0.0257 5.3820
v  -1.3288 0.2374 5.3886
v  -1.3525 0.2374 5.3457
v  -1.2948 0.0257 5.4023
v  -1.2798 0.2374 5.3896
v  -1.2509 0.0257 5.3670
v  -1.2544 0.2374 5.3477
v  -1.2596 0.0257 5.3113
v  -1.2781 0.2374 5.3047
v  -1.3122 0.0257 5.2910
v  -1.3271 0.2374 5.3037
v  -1.3090 0.3986 5.3846
v  -1.3516 0.3986 5.3528
v  -1.2601 0.3986 5.3635
v  -1.2540 0.3986 5.3107
v  -1.2966 0.3986 5.2789
v  -1.3455 0.3986 5.3000
v  -1.3035 0.0257 5.3467
v  -1.3205 0.4916 5.3553
v  -1.3374 0.4955 5.3247
v  -1.2856 0.4916 5.3560
v  -1.2675 0.4955 5.3262
v  -1.2844 0.4994 5.2957
v  -1.3193 0.4994 5.2950
v  -1.5997 0.4011 5.3152
v  -1.5635 0.3830 5.4699
v  -1.4930 0.5155 5.4348
v  -1.5195 0.5287 5.3216
v  -1.4551 0.3675 5.5772
v  -1.3070 0.3636 5.6247
v  -1.3051 0.5013 5.5482
v  -1.4136 0.5041 5.5134
v  -1.1554 0.3675 5.5833
v  -1.0443 0.3830 5.4805
v  -1.1128 0.5155 5.4426
v  -1.1941 0.5041 5.5179
v  -1.0002 0.4011 5.3275
v  -1.0382 0.4219 5.1815
v  -1.1083 0.5439 5.2237
v  -1.0805 0.5287 5.3305
v  -1.1448 0.4347 5.0655
v  -1.2948 0.4413 5.0267
v  -1.2962 0.5581 5.1103
v  -1.1864 0.5533 5.1387
v  -1.4446 0.4347 5.0594
v  -1.5574 0.4219 5.1709
v  -1.4885 0.5439 5.2159
v  -1.4059 0.5533 5.1343
v  -1.3002 0.7215 5.3344
# 50 vertices

vn -0.7451 -0.5910 -0.3091
vn -0.6403 -0.5910 0.4907
vn -0.5160 0.0510 0.8550
vn -0.9999 0.0113 -0.0128
vn 0.1048 -0.5910 0.7998
vn 0.4705 0.0536 0.8808
vn 0.7451 -0.5910 0.3091
vn 0.9990 0.0169 0.0413
vn 0.6403 -0.5910 -0.4907
vn 0.5303 -0.0257 -0.8474
vn -0.1048 -0.5910 -0.7998
vn -0.4818 -0.0287 -0.8758
vn -0.0749 0.1585 0.9845
vn -0.8981 0.1163 0.4242
vn 0.8228 0.1197 0.5555
vn 0.8989 0.0410 -0.4363
vn 0.0764 0.0028 -0.9971
vn -0.8219 0.0391 -0.5683
vn 0.0000 -1.0000 -0.0000
vn -0.3442 -0.9137 0.2162
vn -0.3739 -0.8948 -0.2438
vn 0.1679 -0.9259 0.3383
vn 0.4066 -0.9110 -0.0693
vn 0.2167 -0.9023 -0.3726
vn -0.0766 -0.8967 -0.4360
vn -0.8239 -0.5608 -0.0824
vn -0.7327 -0.5808 0.3548
vn -0.6581 0.6097 0.4418
vn -0.7717 0.6334 0.0568
vn -0.4313 -0.6324 0.6434
vn -0.0134 -0.6165 0.7872
vn -0.0176 0.5839 0.8116
vn -0.3888 0.5853 0.7115
vn 0.4060 -0.6306 0.6614
vn 0.7209 -0.5814 0.3772
vn 0.6400 0.6082 0.4696
vn 0.3612 0.5850 0.7262
vn 0.8291 -0.5570 -0.0479
vn 0.7282 -0.5118 -0.4557
vn 0.6880 0.6633 -0.2944
vn 0.7694 0.6327 0.0877
vn 0.4281 -0.4851 -0.7625
vn 0.0122 -0.4769 -0.8789
vn 0.0137 0.6946 -0.7192
vn 0.4094 0.6855 -0.6021
vn -0.3952 -0.4870 -0.7788
vn -0.7155 -0.5111 -0.4762
vn -0.6747 0.6648 -0.3206
vn -0.3826 0.6859 -0.6190
vn -0.0013 0.9962 0.0874
# 50 vertex normals

vt 0.7500 0.0000 1.0000
vt 0.9167 0.0000 1.0000
vt 0.9167 0.5000 1.0000
vt 0.7500 0.5000 1.0000
vt -0.0833 0.0000 1.0000
vt 0.0833 0.0000 1.0000
vt 0.0833 0.5000 1.0000
vt -0.0833 0.5000 1.0000
vt 0.2500 0.0000 1.0000
vt 0.2500 0.5000 1.0000
vt 0.4167 0.0000 1.0000
vt 0.4167 0.5000 1.0000
vt 0.5833 0.0000 1.0000
vt 0.5833 0.5000 1.0000
vt 0.9167 1.0000 1.0000
vt 0.7500 1.0000 1.0000
vt 0.0833 1.0000 1.0000
vt -0.0833 1.0000 1.0000
vt 0.2500 1.0000 1.0000
vt 0.4167 1.0000 1.0000
vt 0.5833 1.0000 1.0000
vt 0.5000 0.0000 0.0000
vt 0.3333 0.0000 -0.0000
vt 0.0833 0.0000 -1.0000
vt 0.2500 0.0000 -1.0000
vt 0.6667 0.0000 0.0000
vt 0.8333 1.0000 1.0000
vt 0.6667 1.0000 1.0000
vt 0.6667 1.0000 -0.0000
vt 0.7917 1.0000 0.5000
vt 0.2500 1.0000 -1.0000
vt 0.4583 1.0000 -0.5000
vt 0.0833 1.0000 -1.0000
vt 0.1667 1.0000 -1.0000
vt 0.3333 1.0000 0.0000
vt 0.6875 1.0000 0.5833
vt 0.6458 1.0000 0.5833
vt 0.6667 1.0000 0.3333
vt 0.7292 1.0000 0.5833
vt 0.5000 1.0000 -0.1667
vt 0.6042 1.0000 0.0833
vt 0.3542 1.0000 -0.4167
vt 0.3958 1.0000 -0.4167
vt 0.4375 1.0000 0.0833
vt 0.3125 1.0000 -0.4167
vt 0.6042 1.0000 0.5833
vt 0.5625 1.0000 0.5833
vt 0.5417 1.0000 0.1667
# 48 texture coords

o Cylinder010
g Cylinder010
usemtl wire_115115115
s 9
f 1/1/1 2/2/2 3/3/3 4/4/4 
f 2/5/2 5/6/5 6/7/6 3/8/3 
f 5/6/5 7/9/7 8/10/8 6/7/6 
f 7/9/7 9/11/9 10/12/10 8/10/8 
f 9/11/9 11/13/11 12/14/12 10/12/10 
f 11/13/11 1/1/1 4/4/4 12/14/12 
f 3/3/3 13/15/13 14/16/14 4/4/4 
f 6/7/6 15/17/15 13/18/13 3/8/3 
f 8/10/8 16/19/16 15/17/15 6/7/6 
f 10/12/10 17/20/17 16/19/16 8/10/8 
f 12/14/12 18/21/18 17/20/17 10/12/10 
f 4/4/4 14/16/14 18/21/18 12/14/12 
s 1
f 2/2/2 1/1/1 19/22/19 
f 1/1/1 11/23/11 19/22/19 
f 11/23/11 9/24/9 19/22/19 
f 9/24/9 7/25/7 19/22/19 
f 7/25/7 5/26/5 19/22/19 
f 5/26/5 2/2/2 19/22/19 
f 14/16/14 13/15/13 20/27/20 21/28/21 
f 13/15/13 15/29/15 22/30/22 20/27/20 
f 15/29/15 16/31/16 23/32/23 22/30/22 
f 16/31/16 17/33/17 24/34/24 23/32/23 
f 17/33/17 18/21/18 25/35/25 24/34/24 
f 18/21/18 14/16/14 21/28/21 25/35/25 
f 26/16/26 27/27/27 28/36/28 29/37/29 
f 30/15/30 31/30/31 32/38/32 33/39/33 
f 34/29/34 35/32/35 36/40/36 37/41/37 
f 38/31/38 39/34/39 40/42/40 41/43/41 
f 42/33/42 43/35/43 44/44/44 45/45/45 
f 46/21/46 47/28/47 48/46/48 49/47/49 
f 21/28/21 20/27/20 27/27/27 26/16/26 
f 20/27/20 22/30/22 31/30/31 30/15/30 
f 22/30/22 23/32/23 35/32/35 34/29/34 
f 23/32/23 24/34/24 39/34/39 38/31/38 
f 24/34/24 25/35/25 43/35/43 42/33/42 
f 25/35/25 21/28/21 47/28/47 46/21/46 
f 20/27/20 30/15/30 27/27/27 
f 22/30/22 34/29/34 31/30/31 
f 23/32/23 38/31/38 35/32/35 
f 24/34/24 42/33/42 39/34/39 
f 25/35/25 46/21/46 43/35/43 
f 21/28/21 26/16/26 47/28/47 
f 27/27/27 30/15/30 33/39/33 28/36/28 
f 31/30/31 34/29/34 37/41/37 32/38/32 
f 35/32/35 38/31/38 41/43/41 36/40/36 
f 39/34/39 42/33/42 45/45/45 40/42/40 
f 43/35/43 46/21/46 49/47/49 44/44/44 
f 47/28/47 26/16/26 29/37/29 48/46/48 
f 28/36/28 50/48/50 29/37/29 
f 32/38/32 50/48/50 33/39/33 
f 36/40/36 50/48/50 37/41/37 
f 40/42/40 50/48/50 41/43/41 
f 44/44/44 50/48/50 45/45/45 
f 48/46/48 50/48/50 49/47/49 
f 33/39/33 50/48/50 28/36/28 
f 37/41/37 50/48/50 32/38/32 
f 41/43/41 50/48/50 36/40/36 
f 45/45/45 50/48/50 40/42/40 
f 49/47/49 50/48/50 44/44/44 
f 29/37/29 50/48/50 48/46/48 
# 36 polygons - 24 triangles

