# 3ds Max Wavefront OBJ Exporter v0.99 - (c)2007 guruware
# File Created: 26.01.2022 16:40:57

mtllib Mushroom_3.mtl

#
# object Cylinder011
#

v  -0.7679 0.0118 5.9894
v  -0.7592 0.0118 6.0451
v  -0.7407 0.2235 6.0517
v  -0.7644 0.2235 6.0087
v  -0.7067 0.0118 6.0654
v  -0.6917 0.2235 6.0527
v  -0.6628 0.0118 6.0300
v  -0.6663 0.2235 6.0107
v  -0.6715 0.0118 5.9744
v  -0.6900 0.2235 5.9678
v  -0.7240 0.0118 5.9541
v  -0.7390 0.2235 5.9668
v  -0.7209 0.3847 6.0477
v  -0.7635 0.3847 6.0159
v  -0.6720 0.3847 6.0266
v  -0.6658 0.3847 5.9738
v  -0.7085 0.3847 5.9420
v  -0.7574 0.3847 5.9631
v  -0.7154 0.0118 6.0097
v  -0.7366 0.4802 6.0246
v  -0.7570 0.4850 5.9876
v  -0.6943 0.4802 6.0254
v  -0.6723 0.4850 5.9893
v  -0.6928 0.4897 5.9523
v  -0.7351 0.4897 5.9514
v  -1.0753 0.3705 5.9761
v  -1.0314 0.3486 6.1636
v  -0.9079 0.5119 6.1000
v  -0.9348 0.5254 5.9849
v  -0.8999 0.3297 6.2938
v  -0.7202 0.3251 6.3514
v  -0.7170 0.4975 6.2152
v  -0.8272 0.5004 6.1799
v  -0.5363 0.3297 6.3012
v  -0.4016 0.3486 6.1765
v  -0.5215 0.5119 6.1079
v  -0.6042 0.5004 6.1844
v  -0.3481 0.3705 5.9909
v  -0.3942 0.3957 5.8139
v  -0.5170 0.5408 5.8854
v  -0.4887 0.5254 5.9940
v  -0.5235 0.4113 5.6732
v  -0.7054 0.4192 5.6261
v  -0.7079 0.5553 5.7703
v  -0.5963 0.5504 5.7991
v  -0.8871 0.4113 5.6658
v  -1.0240 0.3957 5.8010
v  -0.9033 0.5408 5.8776
v  -0.8194 0.5504 5.7946
v  -0.7120 0.6652 5.9993
# 50 vertices

vn -0.7451 -0.5910 -0.3091
vn -0.6403 -0.5910 0.4907
vn -0.5160 0.0510 0.8550
vn -0.9999 0.0113 -0.0128
vn 0.1048 -0.5910 0.7998
vn 0.4705 0.0536 0.8808
vn 0.7451 -0.5910 0.3091
vn 0.9990 0.0169 0.0413
vn 0.6403 -0.5910 -0.4907
vn 0.5303 -0.0257 -0.8474
vn -0.1048 -0.5910 -0.7998
vn -0.4818 -0.0287 -0.8758
vn -0.0702 0.1266 0.9895
vn -0.8989 0.0830 0.4302
vn 0.8281 0.0880 0.5537
vn 0.8978 0.0088 -0.4402
vn 0.0725 -0.0298 -0.9969
vn -0.8250 0.0056 -0.5651
vn 0.0000 -1.0000 -0.0000
vn -0.3169 -0.9290 0.1913
vn -0.3422 -0.9103 -0.2330
vn 0.1580 -0.9391 0.3051
vn 0.3768 -0.9232 -0.0751
vn 0.1980 -0.9145 -0.3528
vn -0.0702 -0.9101 -0.4083
vn -0.8659 -0.4944 -0.0759
vn -0.7652 -0.5183 0.3819
vn -0.5594 0.7253 0.4013
vn -0.6564 0.7506 0.0754
vn -0.4514 -0.5744 0.6829
vn -0.0128 -0.5584 0.8295
vn -0.0155 0.6982 0.7157
vn -0.3319 0.7002 0.6322
vn 0.4242 -0.5725 0.7016
vn 0.7542 -0.5183 0.4033
vn 0.5431 0.7241 0.4251
vn 0.3073 0.7000 0.6447
vn 0.8706 -0.4904 -0.0398
vn 0.7665 -0.4378 -0.4699
vn 0.5821 0.7824 -0.2215
vn 0.6534 0.7502 0.1016
vn 0.4513 -0.4089 -0.7932
vn 0.0113 -0.3969 -0.9178
vn 0.0110 0.8151 -0.5792
vn 0.3463 0.8050 -0.4817
vn -0.4173 -0.4109 -0.8105
vn -0.7545 -0.4378 -0.4889
vn -0.5718 0.7834 -0.2435
vn -0.3248 0.8053 -0.4959
vn -0.0017 0.9941 0.1086
# 50 vertex normals

vt 0.7500 0.0000 1.0000
vt 0.9167 0.0000 1.0000
vt 0.9167 0.5000 1.0000
vt 0.7500 0.5000 1.0000
vt -0.0833 0.0000 1.0000
vt 0.0833 0.0000 1.0000
vt 0.0833 0.5000 1.0000
vt -0.0833 0.5000 1.0000
vt 0.2500 0.0000 1.0000
vt 0.2500 0.5000 1.0000
vt 0.4167 0.0000 1.0000
vt 0.4167 0.5000 1.0000
vt 0.5833 0.0000 1.0000
vt 0.5833 0.5000 1.0000
vt 0.9167 1.0000 1.0000
vt 0.7500 1.0000 1.0000
vt 0.0833 1.0000 1.0000
vt -0.0833 1.0000 1.0000
vt 0.2500 1.0000 1.0000
vt 0.4167 1.0000 1.0000
vt 0.5833 1.0000 1.0000
vt 0.5000 0.0000 0.0000
vt 0.3333 0.0000 -0.0000
vt 0.0833 0.0000 -1.0000
vt 0.2500 0.0000 -1.0000
vt 0.6667 0.0000 0.0000
vt 0.8333 1.0000 1.0000
vt 0.6667 1.0000 1.0000
vt 0.6667 1.0000 -0.0000
vt 0.7917 1.0000 0.5000
vt 0.2500 1.0000 -1.0000
vt 0.4583 1.0000 -0.5000
vt 0.0833 1.0000 -1.0000
vt 0.1667 1.0000 -1.0000
vt 0.3333 1.0000 0.0000
vt 0.6875 1.0000 0.5833
vt 0.6458 1.0000 0.5833
vt 0.6667 1.0000 0.3333
vt 0.7292 1.0000 0.5833
vt 0.5000 1.0000 -0.1667
vt 0.6042 1.0000 0.0833
vt 0.3542 1.0000 -0.4167
vt 0.3958 1.0000 -0.4167
vt 0.4375 1.0000 0.0833
vt 0.3125 1.0000 -0.4167
vt 0.6042 1.0000 0.5833
vt 0.5625 1.0000 0.5833
vt 0.5417 1.0000 0.1667
# 48 texture coords

o Cylinder011
g Cylinder011
usemtl wire_115115115
s 9
f 1/1/1 2/2/2 3/3/3 4/4/4 
f 2/5/2 5/6/5 6/7/6 3/8/3 
f 5/6/5 7/9/7 8/10/8 6/7/6 
f 7/9/7 9/11/9 10/12/10 8/10/8 
f 9/11/9 11/13/11 12/14/12 10/12/10 
f 11/13/11 1/1/1 4/4/4 12/14/12 
f 3/3/3 13/15/13 14/16/14 4/4/4 
f 6/7/6 15/17/15 13/18/13 3/8/3 
f 8/10/8 16/19/16 15/17/15 6/7/6 
f 10/12/10 17/20/17 16/19/16 8/10/8 
f 12/14/12 18/21/18 17/20/17 10/12/10 
f 4/4/4 14/16/14 18/21/18 12/14/12 
s 1
f 2/2/2 1/1/1 19/22/19 
f 1/1/1 11/23/11 19/22/19 
f 11/23/11 9/24/9 19/22/19 
f 9/24/9 7/25/7 19/22/19 
f 7/25/7 5/26/5 19/22/19 
f 5/26/5 2/2/2 19/22/19 
f 14/16/14 13/15/13 20/27/20 21/28/21 
f 13/15/13 15/29/15 22/30/22 20/27/20 
f 15/29/15 16/31/16 23/32/23 22/30/22 
f 16/31/16 17/33/17 24/34/24 23/32/23 
f 17/33/17 18/21/18 25/35/25 24/34/24 
f 18/21/18 14/16/14 21/28/21 25/35/25 
f 26/16/26 27/27/27 28/36/28 29/37/29 
f 30/15/30 31/30/31 32/38/32 33/39/33 
f 34/29/34 35/32/35 36/40/36 37/41/37 
f 38/31/38 39/34/39 40/42/40 41/43/41 
f 42/33/42 43/35/43 44/44/44 45/45/45 
f 46/21/46 47/28/47 48/46/48 49/47/49 
f 21/28/21 20/27/20 27/27/27 26/16/26 
f 20/27/20 22/30/22 31/30/31 30/15/30 
f 22/30/22 23/32/23 35/32/35 34/29/34 
f 23/32/23 24/34/24 39/34/39 38/31/38 
f 24/34/24 25/35/25 43/35/43 42/33/42 
f 25/35/25 21/28/21 47/28/47 46/21/46 
f 20/27/20 30/15/30 27/27/27 
f 22/30/22 34/29/34 31/30/31 
f 23/32/23 38/31/38 35/32/35 
f 24/34/24 42/33/42 39/34/39 
f 25/35/25 46/21/46 43/35/43 
f 21/28/21 26/16/26 47/28/47 
f 27/27/27 30/15/30 33/39/33 28/36/28 
f 31/30/31 34/29/34 37/41/37 32/38/32 
f 35/32/35 38/31/38 41/43/41 36/40/36 
f 39/34/39 42/33/42 45/45/45 40/42/40 
f 43/35/43 46/21/46 49/47/49 44/44/44 
f 47/28/47 26/16/26 29/37/29 48/46/48 
f 28/36/28 50/48/50 29/37/29 
f 32/38/32 50/48/50 33/39/33 
f 36/40/36 50/48/50 37/41/37 
f 40/42/40 50/48/50 41/43/41 
f 44/44/44 50/48/50 45/45/45 
f 48/46/48 50/48/50 49/47/49 
f 33/39/33 50/48/50 28/36/28 
f 37/41/37 50/48/50 32/38/32 
f 41/43/41 50/48/50 36/40/36 
f 45/45/45 50/48/50 40/42/40 
f 49/47/49 50/48/50 44/44/44 
f 29/37/29 50/48/50 48/46/48 
# 36 polygons - 24 triangles

