# 3ds Max Wavefront OBJ Exporter v0.99 - (c)2007 guruware
# File Created: 26.01.2022 16:40:31

mtllib Stone_4.mtl

#
# object Box051
#

v  3.9280 0.1919 3.2821
v  3.3099 0.3151 3.3482
v  3.9513 0.1873 3.3923
v  3.9080 0.0026 2.9430
v  3.4519 0.0026 2.7300
v  3.5617 0.2411 2.8586
v  3.8629 0.1115 2.9782
v  2.8765 0.0026 2.8060
v  2.5813 0.0026 3.3141
v  2.6807 0.1897 3.1357
v  2.8931 0.1016 2.8041
v  2.8433 0.0026 3.6956
v  3.4423 0.0026 3.9278
v  3.4209 0.2741 3.8575
v  2.8997 0.2413 3.6488
v  3.8951 0.0026 3.8244
v  4.0430 0.0026 3.3986
v  3.8250 0.2164 3.7561
v  3.4270 0.2457 2.8166
v  3.2527 0.2120 2.7867
v  2.6607 0.1983 3.3157
v  3.7839 0.2132 3.0369
# 22 vertices

vn 0.7820 0.5948 -0.1860
vn -0.0148 0.9976 -0.0672
vn 0.8345 0.5501 0.0320
vn 0.7428 0.2082 -0.6364
vn 0.1689 0.1038 -0.9802
vn 0.4217 0.6365 -0.6458
vn 0.7630 0.2495 -0.5963
vn -0.5683 0.0319 -0.8222
vn -0.9924 0.0952 0.0779
vn -0.7478 0.5285 -0.4017
vn -0.4802 0.1982 -0.8545
vn -0.6196 0.1211 0.7755
vn -0.0651 0.1021 0.9926
vn 0.0228 0.6739 0.7385
vn -0.5750 0.6000 0.5562
vn 0.6587 0.1820 0.7301
vn 0.9817 0.1877 0.0312
vn 0.6343 0.5664 0.5262
vn 0.0494 0.6771 -0.7342
vn -0.2077 0.5388 -0.8164
vn -0.8213 0.5554 0.1301
vn 0.6421 0.6658 -0.3800
# 22 vertex normals

vt 0.1371 0.3629 0.0000
vt 0.5000 0.5000 0.0000
vt 0.0000 0.5000 0.0000
vt 0.0000 0.0000 0.0000
vt 0.5000 0.0000 0.0000
vt 0.3473 0.6947 0.0000
vt 0.3463 1.0000 0.0000
vt 0.0000 0.7016 0.0000
vt 0.5000 1.0000 0.0000
vt 0.0000 1.0000 0.0000
vt 0.6485 0.0000 0.0000
vt 0.6485 1.0000 0.0000
vt 1.0000 0.0000 0.0000
vt 1.0000 1.0000 0.0000
vt 1.0000 0.5000 0.0000
vt -0.1492 1.2584 0.0000
vt -0.3463 0.4001 0.0000
vt 0.7030 1.0000 0.0000
vt 1.0000 0.7016 0.0000
vt 1.0000 0.3463 0.0000
vt -0.1024 0.3842 0.0000
vt 0.1902 -0.3147 0.0000
vt 0.7258 0.0000 0.0000
vt 0.3226 0.1774 0.0000
vt 0.6988 0.6024 0.0000
vt -0.3219 -0.6156 0.0000
# 26 texture coords

o Box051
g Box051
usemtl wire_115115115
s 1
f 1/1/1 2/2/2 3/3/3 
f 4/4/4 5/5/5 6/6/6 7/4/7 
f 8/4/8 9/5/9 10/7/10 11/8/11 
f 12/4/12 13/5/13 14/9/14 15/10/15 
f 16/4/16 17/5/17 3/9/3 18/10/18 
f 19/5/19 20/11/20 2/2/2 
f 5/5/5 20/12/20 19/9/19 
f 13/5/13 16/13/16 18/14/18 14/9/14 
f 2/2/2 18/10/18 3/3/3 
f 9/5/9 12/13/12 15/14/15 21/9/21 
f 17/5/17 1/9/1 3/9/3 
f 21/15/21 15/14/15 2/2/2 
f 11/16/11 10/17/10 20/18/20 
f 9/5/9 21/9/21 10/7/10 
f 5/5/5 8/13/8 11/19/11 20/12/20 
f 10/20/10 21/15/21 2/2/2 
f 20/11/20 10/20/10 2/2/2 
f 7/21/7 22/22/22 1/23/1 
f 1/1/1 22/24/22 2/2/2 
f 6/5/6 19/5/19 2/2/2 
f 5/5/5 19/9/19 6/6/6 
f 17/5/17 4/13/4 7/25/7 1/9/1 
f 2/2/2 14/9/14 18/10/18 
f 15/14/15 14/9/14 2/2/2 
f 7/21/7 6/26/6 22/22/22 
f 22/24/22 6/5/6 2/2/2 
# 8 polygons - 18 triangles

