# 3ds Max Wavefront OBJ Exporter v0.99 - (c)2007 guruware
# File Created: 26.01.2022 16:40:06

mtllib Stone_1.mtl

#
# object Box049
#

v  0.8918 0.3818 2.9241
v  0.6586 0.4703 2.9830
v  0.6860 0.4843 3.0748
v  0.9297 0.4082 3.0797
v  0.9924 -0.0192 2.5695
v  0.3396 -0.0197 2.3346
v  0.6320 0.3712 2.6192
v  0.8888 0.2278 2.6642
v  -0.3285 -0.0192 2.4470
v  -0.4441 -0.0197 3.0517
v  -0.2803 0.2551 3.0551
v  -0.1815 0.2141 2.5930
v  -0.2458 -0.0192 3.5775
v  0.3098 -0.0197 3.8002
v  0.3129 0.4082 3.6440
v  -0.0930 0.3452 3.4376
v  1.0144 -0.0192 3.7521
v  1.0936 -0.0197 3.0831
v  0.8674 0.3452 3.6061
v  0.3365 0.2771 2.4908
v  0.0593 0.2456 2.4505
v  0.2068 0.4410 2.7933
v  0.3306 0.4364 2.7778
v  -0.0126 -0.0195 2.2994
v  0.6627 -0.0195 3.8627
v  0.5908 0.3767 3.7117
v  0.5775 0.4798 3.3184
v  0.0858 0.4531 3.2792
v  0.0379 0.4351 3.0615
v  0.4622 0.4833 3.4003
v  0.3174 0.4803 3.4241
v  0.1128 0.4368 2.8688
v  0.5113 0.4600 2.7952
v  0.3625 0.4876 3.0706
# 34 vertices

vn 0.7433 0.5341 -0.4029
vn 0.2876 0.8964 -0.3372
vn 0.3161 0.9450 -0.0839
vn 0.7977 0.5996 -0.0648
vn 0.7248 0.2881 -0.6258
vn 0.2003 0.2524 -0.9467
vn 0.3112 0.5810 -0.7521
vn 0.7141 0.3313 -0.6167
vn -0.7079 0.4234 -0.5653
vn -0.9509 0.2997 0.0769
vn -0.8802 0.4745 -0.0107
vn -0.7005 0.5292 -0.4787
vn -0.6856 0.2881 0.6686
vn -0.2671 0.1839 0.9460
vn -0.2733 0.5801 0.7673
vn -0.7047 0.5232 0.4792
vn 0.7328 0.2874 0.6168
vn 0.9773 0.2076 -0.0428
vn 0.6736 0.5238 0.5214
vn 0.0787 0.4691 -0.8796
vn -0.2583 0.5064 -0.8227
vn -0.2074 0.8491 -0.4858
vn -0.0775 0.8294 -0.5532
vn -0.1719 0.3072 -0.9360
vn 0.0742 0.2042 0.9761
vn 0.1496 0.5524 0.8200
vn 0.2700 0.9407 0.2055
vn -0.4865 0.8601 0.1534
vn -0.5637 0.8197 -0.1017
vn 0.1197 0.9512 0.2846
vn -0.1875 0.9278 0.3226
vn -0.4715 0.8303 -0.2972
vn 0.0855 0.8806 -0.4660
vn -0.1080 0.9889 -0.1019
# 34 vertex normals

vt -0.0000 0.2899 0.0000
vt 0.4112 0.1707 0.0000
vt 0.4028 0.2986 0.0000
vt 0.0000 0.5000 0.0000
vt 0.0000 0.0000 0.0000
vt 0.5000 0.0000 0.0000
vt 0.2063 1.0000 0.0000
vt 0.0000 0.6778 0.0000
vt 0.5000 1.0000 0.0000
vt 0.0000 1.0000 0.0000
vt 0.7500 0.0000 0.0000
vt 0.8889 0.0000 0.0000
vt 0.7489 0.0000 0.0000
vt 0.7500 1.0000 0.0000
vt 0.5342 0.4658 0.0000
vt 1.0000 0.0000 0.0000
vt 1.0000 1.0000 0.0000
vt 0.7101 1.0000 0.0000
vt 1.0000 0.5000 0.0000
vt 1.0000 0.5720 0.0000
vt 1.0000 0.2370 0.0000
vt 0.6124 0.5168 0.0000
vt 0.6907 0.6187 0.0000
vt 0.2500 1.0000 0.0000
vt -0.1302 1.2947 0.0000
vt -0.2081 0.6437 0.0000
vt 0.5798 1.0000 0.0000
vt 0.2063 0.0000 0.0000
vt 0.5181 0.0000 0.0000
vt 1.0000 0.6778 0.0000
vt 0.7097 0.2618 0.0000
# 31 texture coords

o Box049
g Box049
usemtl wire_115115115
s 1
f 1/1/1 2/2/2 3/3/3 4/4/4 
f 5/5/5 6/6/6 7/7/7 8/8/8 
f 9/5/9 10/6/10 11/9/11 12/10/12 
f 13/5/13 14/6/14 15/9/15 16/10/16 
f 17/5/17 18/6/18 4/9/4 19/10/19 
f 20/6/20 21/11/21 22/12/22 23/13/23 
f 6/6/6 24/11/24 21/14/21 20/9/20 
f 14/6/14 25/11/25 26/14/26 15/9/15 
f 3/3/3 27/15/27 19/10/19 4/4/4 
f 10/6/10 13/16/13 16/17/16 11/9/11 
f 18/6/18 1/18/1 4/9/4 
f 11/19/11 16/17/16 28/20/28 29/21/29 
f 25/11/25 17/16/17 19/17/19 26/14/26 
f 30/22/30 31/23/31 15/9/15 26/24/26 
f 27/15/27 30/22/30 26/24/26 19/10/19 
f 16/17/16 15/9/15 31/23/31 28/20/28 
f 24/11/24 9/16/9 12/17/12 21/14/21 
f 12/16/12 11/19/11 29/21/29 32/16/32 
f 21/11/21 12/16/12 32/16/32 22/12/22 
f 8/25/8 7/26/7 1/27/1 
f 1/1/1 7/28/7 33/29/33 2/2/2 
f 7/28/7 20/6/20 23/13/23 33/29/33 
f 6/6/6 20/9/20 7/7/7 
f 18/6/18 5/16/5 8/30/8 1/18/1 
f 32/16/32 29/21/29 34/31/34 
f 29/21/29 28/20/28 34/31/34 
f 28/20/28 31/23/31 34/31/34 
f 31/23/31 30/22/30 34/31/34 
f 30/22/30 27/15/27 34/31/34 
f 27/15/27 3/3/3 34/31/34 
f 3/3/3 2/2/2 34/31/34 
f 2/2/2 33/29/33 34/31/34 
f 33/29/33 23/13/23 34/31/34 
f 23/13/23 22/12/22 34/31/34 
f 22/12/22 32/16/32 34/31/34 
# 21 polygons - 14 triangles

