# 3ds Max Wavefront OBJ Exporter v0.99 - (c)2007 guruware
# File Created: 26.01.2022 16:41:23

mtllib Stub_1.mtl

#
# object Cylinder008
#

v  -3.7201 1.2309 6.8624
v  -3.7712 1.2309 6.5064
v  -3.6196 0.6554 6.3013
v  -3.7819 0.6554 6.8611
v  -3.6808 1.2309 6.2519
v  -3.4958 1.2309 6.0511
v  -3.1693 1.2309 5.9518
v  -2.8899 1.2309 5.6457
v  -2.9101 0.6554 5.7079
v  -3.1991 0.6554 5.8976
v  -2.6152 1.2309 5.5757
v  -2.3578 1.2309 5.6566
v  -2.3472 0.6554 5.7194
v  -2.6235 0.6554 5.6361
v  -2.1053 1.2309 5.9735
v  -1.7237 1.2309 6.3709
v  -1.6696 0.6554 6.3411
v  -2.0733 0.6554 5.9206
v  -1.4806 1.2309 6.8655
v  -1.5303 0.6554 6.9071
v  -1.5167 1.2309 7.1720
v  -1.7454 1.2309 7.4349
v  -2.1428 1.2309 7.8164
v  -2.1130 0.6554 7.8706
v  -1.6205 0.6554 7.5154
v  -2.6778 1.2309 7.9482
v  -2.6790 0.6554 8.0099
v  -2.9207 1.2309 7.8777
v  -3.2234 0.9346 7.8220
v  -3.6425 0.6554 7.4271
v  -3.2626 0.5072 7.9034
v  -3.5884 1.2309 7.3973
v  -3.5296 1.2001 6.3374
v  -3.6071 1.2001 6.5472
v  -2.6586 1.2001 6.8766
v  -3.5430 1.2001 6.8586
v  -3.4336 1.2001 7.3032
v  -3.2880 1.2001 7.4548
v  -2.9883 1.1763 7.4216
v  -2.8786 1.2001 7.7024
v  -2.6767 1.2001 7.7610
v  -2.2321 1.2001 7.6515
v  -1.9018 1.2001 7.3344
v  -1.6860 1.2001 7.1162
v  -1.6629 1.2001 6.8543
v  -1.8837 1.2001 6.4500
v  -2.2008 1.2001 6.1197
v  -2.4108 1.2001 5.8564
v  -2.6247 1.2001 5.7891
v  -2.8530 1.2001 5.8474
v  -3.0852 1.2001 6.1017
v  -3.3781 1.2001 6.1688
v  -3.8437 0.0799 6.8599
v  -3.6724 0.0799 6.2693
v  -2.6561 0.0799 6.8841
v  -3.2289 0.0799 5.8435
v  -2.8884 0.0799 5.5858
v  -2.6545 0.0799 5.4335
v  -2.2790 0.0799 5.5316
v  -2.0413 0.0799 5.8677
v  -1.6155 0.0799 6.3113
v  -1.4685 0.0799 6.9083
v  -1.6845 0.0799 7.5099
v  -2.0833 0.0799 7.9247
v  -2.6803 0.0799 8.0717
v  -3.3046 0.0799 7.9554
v  -3.4359 0.0948 7.2421
v  -4.0696 0.0799 7.5177
v  -3.9067 0.0948 7.2325
v  -3.0527 1.1878 7.5398
v  -3.1471 1.0670 7.6959
v  -3.4133 1.2309 7.5798
v  -1.4488 0.5222 7.5978
v  -1.7849 0.0799 7.8667
v  -3.8270 0.3230 7.4574
v  -1.2631 0.0799 7.5211
v  -1.3217 0.3487 7.6977
v  -1.3121 0.0799 7.8074
v  -1.3783 0.0799 7.2412
v  -1.5102 0.0799 7.8335
v  -3.6930 0.0948 7.6668
# 81 vertices

vn -0.6047 0.7876 0.1187
vn -0.7787 0.6268 -0.0264
vn -0.8563 -0.0248 -0.5159
vn -0.9849 0.1570 -0.0724
vn -0.6318 0.6732 -0.3841
vn -0.3667 0.6120 -0.7007
vn -0.2691 0.8615 -0.4306
vn -0.3759 0.6696 -0.6406
vn -0.4107 0.0465 -0.9106
vn -0.6199 0.1052 -0.7776
vn 0.0221 0.6576 -0.7531
vn 0.4167 0.6660 -0.6187
vn 0.4484 0.1241 -0.8852
vn 0.0277 0.1201 -0.9924
vn 0.4398 0.8103 -0.3873
vn 0.5261 0.7651 -0.3713
vn 0.8710 0.1067 -0.4795
vn 0.6555 0.1051 -0.7478
vn 0.7322 0.6668 -0.1386
vn 0.9921 0.0590 -0.1105
vn 0.6734 0.7077 0.2135
vn 0.4042 0.8288 0.3869
vn 0.3241 0.7407 0.5885
vn 0.4172 0.1065 0.9025
vn 0.6737 0.5690 0.4715
vn -0.0139 0.7408 0.6716
vn 0.0017 0.1182 0.9930
vn -0.3150 0.7891 0.5274
vn -0.4919 0.3156 0.8114
vn -0.8299 0.2950 0.4735
vn -0.4580 0.2060 0.8648
vn -0.5873 0.7423 0.3226
vn 0.0838 0.9952 0.0510
vn 0.1078 0.9942 0.0039
vn -0.0017 1.0000 0.0029
vn 0.0865 0.9961 -0.0198
vn 0.0863 0.9952 -0.0465
vn 0.0632 0.9937 -0.0930
vn -0.0006 1.0000 0.0013
vn 0.0558 0.9935 -0.0989
vn 0.0022 0.9955 -0.0948
vn -0.0458 0.9955 -0.0829
vn -0.0593 0.9964 -0.0604
vn -0.0938 0.9945 -0.0476
vn -0.1006 0.9945 0.0281
vn -0.0749 0.9956 0.0568
vn -0.0654 0.9962 0.0582
vn -0.0610 0.9954 0.0744
vn -0.0020 0.9965 0.0840
vn 0.0573 0.9952 0.0789
vn 0.0359 0.9974 0.0619
vn 0.0515 0.9934 0.1024
vn -0.7333 -0.6626 -0.1525
vn -0.6761 -0.6128 -0.4090
vn -0.0026 -1.0000 0.0013
vn -0.4897 -0.6556 -0.5748
vn -0.4380 -0.6434 -0.6278
vn -0.1386 -0.4947 -0.8580
vn 0.4771 -0.5119 -0.7143
vn 0.5599 -0.6886 -0.4608
vn 0.6923 -0.6128 -0.3811
vn 0.7165 -0.6725 -0.1854
vn 0.0000 -1.0000 -0.0000
vn 0.1581 -0.6758 0.7199
vn 0.0218 -0.6223 0.7825
vn -0.3296 -0.6080 0.7223
vn -0.0079 -0.9999 0.0089
vn -0.9066 -0.2989 0.2979
vn -0.7839 -0.6054 -0.1376
vn -0.0626 0.9933 0.0971
vn -0.3209 0.7847 0.5305
vn -0.3208 0.7897 0.5230
vn 0.5910 0.6678 0.4525
vn 0.1428 -0.5450 0.8262
vn -0.7825 0.4818 0.3944
vn 0.8369 -0.5205 -0.1691
vn 0.6942 0.5553 0.4580
vn 0.5606 -0.4712 0.6810
vn 0.7552 -0.6309 -0.1777
vn 0.1026 -0.5539 0.8262
vn -0.4646 -0.6042 0.6474
# 81 vertex normals

vt 0.7500 0.0000 1.0000
vt 0.7083 0.0000 1.0000
vt 0.6667 0.5000 1.0000
vt 0.7500 0.5000 1.0000
vt 0.6667 0.0000 1.0000
vt 0.6250 0.0000 1.0000
vt 0.5833 0.0000 1.0000
vt 0.5417 0.0000 1.0000
vt 0.5417 0.5000 1.0000
vt 0.5833 0.5000 1.0000
vt 0.5000 0.0000 1.0000
vt 0.4583 0.0000 1.0000
vt 0.4583 0.5000 1.0000
vt 0.5000 0.5000 1.0000
vt 0.4167 0.0000 1.0000
vt 0.3333 0.0000 1.0000
vt 0.3333 0.5000 1.0000
vt 0.4167 0.5000 1.0000
vt 0.2500 0.0000 1.0000
vt 0.2500 0.5000 1.0000
vt 0.2083 0.0000 1.0000
vt 0.1667 0.0000 1.0000
vt 0.0833 0.0000 1.0000
vt 0.0833 0.5000 1.0000
vt 0.1667 0.5000 1.0000
vt 0.0000 0.0000 1.0000
vt 0.0000 0.5000 1.0000
vt -0.0383 0.0000 1.0000
vt 0.9167 0.2574 1.0000
vt 0.8333 0.5000 1.0000
vt 0.9167 0.6287 1.0000
vt 0.8333 0.0000 1.0000
vt 0.3047 0.0000 0.9777
vt -0.0104 0.0000 0.7321
vt -0.0439 0.0000 0.8551
vt 0.0253 0.0000 0.9937
vt 0.7500 1.0000 1.0000
vt 0.6667 1.0000 1.0000
vt 0.3750 1.0000 1.0000
vt 0.5833 1.0000 1.0000
vt 0.5417 1.0000 1.0000
vt 0.5000 1.0000 1.0000
vt 0.4583 1.0000 1.0000
vt 0.4167 1.0000 1.0000
vt 0.3333 1.0000 1.0000
vt 0.2500 1.0000 1.0000
vt 0.2751 1.0000 1.0000
vt 0.0833 1.0000 1.0000
vt 0.0000 1.0000 1.0000
vt -0.0833 1.0000 1.0000
vt 0.6042 1.0000 1.0000
vt 0.8333 1.0000 1.0000
vt 0.7917 1.0000 1.0000
vt 0.0009 0.5343 1.0000
vt -0.3497 0.0861 1.0000
vt -0.0600 0.0385 1.0000
vt -0.1676 -0.5343 1.0000
vt 0.1741 0.0000 1.0000
vt 0.2111 0.7665 1.0000
vt 0.1801 1.0000 1.0000
vt -0.0833 0.6287 1.0000
vt 0.8333 0.7500 1.0000
vt -0.0833 0.2574 1.0000
vt 0.8716 0.0000 1.0000
vt 0.8750 1.0000 1.0000
vt 0.9167 1.0000 1.0000
# 66 texture coords

o Cylinder008
g Cylinder008
usemtl wire_115115115
s 8
f 1/1/1 2/2/2 3/3/3 4/4/4 
f 5/5/5 6/6/6 3/3/3 
f 7/7/7 8/8/8 9/9/9 10/10/10 
f 11/11/11 12/12/12 13/13/13 14/14/14 
f 15/15/15 16/16/16 17/17/17 18/18/18 
f 16/16/16 19/19/19 20/20/20 17/17/17 
f 19/19/19 21/21/21 20/20/20 
f 22/22/22 23/23/23 24/24/24 25/25/25 
f 23/23/23 26/26/26 27/27/27 24/24/24 
f 26/26/26 28/28/28 27/27/27 
f 29/29/29 30/30/30 31/31/31 
f 32/32/32 1/1/1 4/4/4 30/30/30 
s off
f 33/5/33 34/2/34 35/33/35 
f 36/1/36 37/34/37 35/33/35 
f 37/34/37 38/35/38 35/33/35 
f 39/36/39 40/28/40 35/33/35 
f 41/26/41 42/23/42 35/33/35 
f 42/23/42 43/22/43 35/33/35 
f 43/22/43 44/21/44 35/33/35 
f 45/19/45 46/16/46 35/33/35 
f 46/16/46 47/15/47 35/33/35 
f 47/15/47 48/12/48 35/33/35 
f 49/11/49 50/8/50 35/33/35 
f 51/7/51 52/6/52 35/33/35 
f 53/37/53 54/38/54 55/39/55 
f 54/38/54 56/40/56 55/39/55 
f 56/40/56 57/41/57 55/39/55 
f 58/42/58 59/43/59 55/39/55 
f 60/44/60 61/45/61 55/39/55 
f 61/45/61 62/46/62 55/39/55 
f 62/46/62 63/47/63 55/39/55 
f 63/47/63 64/48/64 55/39/55 
f 64/48/64 65/49/65 55/39/55 
f 65/49/65 66/50/66 55/39/55 
f 66/50/66 67/51/67 55/39/55 
f 68/52/68 69/53/69 67/51/67 
f 28/54/28 70/55/70 71/56/71 
f 70/55/70 72/57/72 71/56/71 
f 72/57/72 29/58/29 71/56/71 
f 71/56/71 29/58/29 28/54/28 
s 8
f 8/8/8 11/11/11 14/14/14 9/9/9 
f 12/12/12 15/15/15 18/18/18 13/13/13 
s off
f 5/5/5 2/2/2 34/2/34 33/5/33 
f 1/1/1 32/34/32 37/34/37 36/1/36 
f 32/34/32 72/35/72 38/35/38 37/34/37 
f 72/35/72 70/36/70 39/36/39 38/35/38 
f 70/36/70 28/28/28 40/28/40 39/36/39 
f 28/28/28 26/26/26 41/26/41 40/28/40 
f 26/26/26 23/23/23 42/23/42 41/26/41 
f 23/23/23 22/22/22 43/22/43 42/23/42 
f 22/22/22 21/21/21 44/21/44 43/22/43 
f 19/19/19 16/16/16 46/16/46 45/19/45 
f 16/16/16 15/15/15 47/15/47 46/16/46 
f 15/15/15 12/12/12 48/12/48 47/15/47 
f 12/12/12 11/11/11 49/11/49 48/12/48 
f 11/11/11 8/8/8 50/8/50 49/11/49 
f 8/8/8 7/7/7 51/7/51 50/8/50 
f 7/7/7 6/6/6 52/6/52 51/7/51 
s 8
f 3/3/3 54/38/54 53/37/53 4/4/4 
f 10/10/10 56/40/56 54/38/54 3/3/3 
f 9/9/9 57/41/57 56/40/56 10/10/10 
f 13/13/13 59/43/59 58/42/58 14/14/14 
f 17/17/17 61/45/61 60/44/60 18/18/18 
f 20/20/20 62/46/62 61/45/61 17/17/17 
f 25/25/25 73/59/73 20/20/20 
f 24/24/24 64/48/64 74/60/74 73/59/73 25/25/25 
f 27/27/27 65/49/65 64/48/64 24/24/24 
f 31/61/31 66/50/66 65/49/65 27/27/27 
f 30/30/30 75/62/75 31/31/31 
f 4/4/4 75/62/75 30/30/30 
f 14/14/14 58/42/58 57/41/57 9/9/9 
f 18/18/18 60/44/60 59/43/59 13/13/13 
f 29/63/29 31/61/31 27/27/27 
f 28/28/28 29/63/29 27/27/27 
f 72/64/72 32/32/32 30/30/30 
f 29/29/29 72/64/72 30/30/30 
s off
f 2/2/2 1/1/1 36/1/36 34/2/34 
f 6/6/6 5/5/5 33/5/33 52/6/52 
s 8
f 2/2/2 5/5/5 3/3/3 
f 6/6/6 7/7/7 10/10/10 3/3/3 
s off
f 76/46/76 77/59/77 78/47/78 
f 79/46/79 73/59/73 77/59/77 76/46/76 
f 73/59/73 74/60/74 80/60/80 77/59/77 
f 74/60/74 63/47/63 78/47/78 80/60/80 
f 63/47/63 79/46/79 76/46/76 78/47/78 
f 77/59/77 80/60/80 78/47/78 
f 21/21/21 19/19/19 45/19/45 44/21/44 
f 44/21/44 45/19/45 35/33/35 
f 48/12/48 49/11/49 35/33/35 
f 50/8/50 51/7/51 35/33/35 
f 34/2/34 36/1/36 35/33/35 
f 52/6/52 33/5/33 35/33/35 
f 38/35/38 39/36/39 35/33/35 
f 40/28/40 41/26/41 35/33/35 
s 8
f 21/21/21 25/25/25 20/20/20 
f 21/21/21 22/22/22 25/25/25 
f 79/46/79 62/46/62 20/20/20 
f 73/59/73 79/46/79 20/20/20 
s off
f 57/41/57 58/42/58 55/39/55 
f 59/43/59 60/44/60 55/39/55 
f 62/46/62 79/46/79 63/47/63 
f 63/47/63 74/60/74 64/48/64 
f 81/39/81 68/52/68 67/51/67 
f 69/53/69 53/37/53 67/51/67 
s 8
f 75/62/75 68/52/68 81/65/81 
f 69/53/69 68/52/68 75/62/75 
f 4/4/4 53/37/53 69/53/69 
f 4/4/4 69/53/69 75/62/75 
f 81/65/81 66/66/66 31/31/31 
f 75/62/75 81/65/81 31/31/31 
s off
f 66/50/66 81/39/81 67/51/67 
f 53/37/53 55/39/55 67/51/67 
# 45 polygons - 67 triangles

