# 3ds Max Wavefront OBJ Exporter v0.99 - (c)2007 guruware
# File Created: 23.09.2021 23:59:29

mtllib Cloud2.mtl

#
# object Object001
#

v  -0.4784 7.2837 17.5737
v  -2.9322 7.2837 17.8153
v  -3.0833 4.7299 17.0555
v  -0.4784 4.7299 16.7990
v  -5.2916 7.2837 18.5311
v  -5.5881 4.7299 17.8153
v  -7.4661 7.2837 19.6933
v  -7.8965 4.7299 19.0492
v  -9.3720 7.2837 21.2575
v  -9.9198 4.7299 20.7097
v  -10.9362 7.2837 23.1634
v  -11.5803 4.7299 22.7330
v  -12.0984 7.2837 25.3379
v  -12.8142 4.7299 25.0414
v  -12.8142 7.2837 27.6973
v  -13.5740 4.7299 27.5462
v  11.8573 7.2837 32.6048
v  12.6171 4.7299 32.7559
v  11.8573 4.7299 35.2607
v  11.1415 7.2837 34.9642
v  10.6234 4.7299 37.5691
v  9.9793 7.2837 37.1387
v  8.9629 4.7299 39.5924
v  8.4151 7.2837 39.0446
v  6.9396 4.7299 41.2529
v  6.5092 7.2837 40.6087
v  4.6312 4.7299 42.4867
v  4.3347 7.2837 41.7710
v  2.1264 4.7299 43.2465
v  1.9753 7.2837 42.4867
v  -0.4784 4.7299 43.5031
v  -0.4784 7.2837 42.7284
# 32 vertices

vn 0.0938 -0.2890 0.9527
vn 0.1867 -0.2903 0.9386
vn 0.3662 -0.2903 0.8841
vn 0.5316 -0.2903 0.7957
vn 0.6767 -0.2903 0.6767
vn 0.7957 -0.2903 0.5316
vn 0.8841 -0.2903 0.3662
vn 0.9161 -0.2890 0.2779
vn -0.9161 -0.2890 -0.2779
vn -0.8841 -0.2903 -0.3662
vn -0.7957 -0.2903 -0.5316
vn -0.6767 -0.2903 -0.6767
vn -0.5316 -0.2903 -0.7957
vn -0.3662 -0.2903 -0.8841
vn -0.1867 -0.2903 -0.9386
vn -0.0938 -0.2890 -0.9527
# 16 vertex normals

vt 0.7890 0.6013 0.0000
vt 0.8189 0.6013 0.0000
vt 0.8189 0.5415 0.0000
vt 0.7890 0.5415 0.0000
vt 0.8487 0.6013 0.0000
vt 0.8487 0.5415 0.0000
vt 0.8786 0.6013 0.0000
vt 0.8786 0.5415 0.0000
vt 0.9085 0.6013 0.0000
vt 0.9085 0.5415 0.0000
vt 0.9384 0.6013 0.0000
vt 0.9384 0.5415 0.0000
vt 0.9683 0.6013 0.0000
vt 0.9683 0.5415 0.0000
vt 0.9982 0.6013 0.0000
vt 0.9982 0.5415 0.0000
# 16 texture coords

o Object001
g Object001
usemtl 02___Default
s 1
f 1/1/1 2/2/2 3/3/2 4/4/1 
f 2/2/2 5/5/3 6/6/3 3/3/2 
f 5/5/3 7/7/4 8/8/4 6/6/3 
f 7/7/4 9/9/5 10/10/5 8/8/4 
f 9/9/5 11/11/6 12/12/6 10/10/5 
f 11/11/6 13/13/7 14/14/7 12/12/6 
f 13/13/7 15/15/8 16/16/8 14/14/7 
f 17/15/9 18/16/9 19/14/10 20/13/10 
f 20/13/10 19/14/10 21/12/11 22/11/11 
f 22/11/11 21/12/11 23/10/12 24/9/12 
f 24/9/12 23/10/12 25/8/13 26/7/13 
f 26/7/13 25/8/13 27/6/14 28/5/14 
f 28/5/14 27/6/14 29/3/15 30/2/15 
f 30/2/15 29/3/15 31/4/16 32/1/16 
# 14 polygons

