# 3ds Max Wavefront OBJ Exporter v0.99 - (c)2007 guruware
# File Created: 23.09.2021 23:59:23

mtllib Cloud3.mtl

#
# object Object002
#

v  11.8008 7.2837 27.4288
v  11.0338 7.2837 25.0855
v  11.7429 4.7299 24.7735
v  12.5571 4.7299 27.2611
v  9.8243 7.2837 22.9369
v  10.4589 4.7299 22.4926
v  8.2190 7.2837 21.0656
v  8.7547 4.7299 20.5060
v  6.2794 7.2837 19.5434
v  6.6956 4.7299 18.8900
v  4.0801 7.2837 18.4288
v  4.3608 4.7299 17.7068
v  1.7056 7.2837 17.7647
v  1.8401 4.7299 17.0018
v  -2.6625 7.2837 42.5373
v  -2.7970 4.7299 43.3002
v  -5.3177 4.7299 42.5953
v  -5.0370 7.2837 41.8732
v  -7.6525 4.7299 41.4120
v  -7.2363 7.2837 40.7587
v  -9.7116 4.7299 39.7961
v  -9.1759 7.2837 39.2365
v  -11.4158 4.7299 37.8094
v  -10.7812 7.2837 37.3651
v  -12.6997 4.7299 35.5285
v  -11.9907 7.2837 35.2165
v  -13.5140 4.7299 33.0409
v  -12.7577 7.2837 32.8733
# 28 vertices

vn -0.9098 -0.2890 0.2978
vn -0.8759 -0.2903 0.3854
vn -0.7839 -0.2903 0.5489
vn -0.6617 -0.2903 0.6913
vn -0.5142 -0.2903 0.8071
vn -0.3468 -0.2903 0.8919
vn -0.2578 -0.2890 0.9220
vn -0.2578 -0.2890 0.9219
vn 0.2578 -0.2890 -0.9219
vn 0.3468 -0.2903 -0.8919
vn 0.5142 -0.2903 -0.8071
vn 0.6617 -0.2903 -0.6913
vn 0.7839 -0.2903 -0.5489
vn 0.8759 -0.2903 -0.3854
vn 0.9098 -0.2890 -0.2978
# 15 vertex normals

vt 0.6097 0.6013 0.0000
vt 0.6395 0.6013 0.0000
vt 0.6395 0.5415 0.0000
vt 0.6097 0.5415 0.0000
vt 0.6694 0.6013 0.0000
vt 0.6694 0.5415 0.0000
vt 0.6993 0.6013 0.0000
vt 0.6993 0.5415 0.0000
vt 0.7292 0.6013 0.0000
vt 0.7292 0.5415 0.0000
vt 0.7591 0.6013 0.0000
vt 0.7591 0.5415 0.0000
vt 0.7890 0.6013 0.0000
vt 0.7890 0.5415 0.0000
# 14 texture coords

o Object002
g Object002
usemtl 02___Default
s 1
f 1/1/1 2/2/2 3/3/2 4/4/1 
f 2/2/2 5/5/3 6/6/3 3/3/2 
f 5/5/3 7/7/4 8/8/4 6/6/3 
f 7/7/4 9/9/5 10/10/5 8/8/4 
f 9/9/5 11/11/6 12/12/6 10/10/5 
f 11/11/6 13/13/7 14/14/8 12/12/6 
f 15/13/9 16/14/9 17/12/10 18/11/10 
f 18/11/10 17/12/10 19/10/11 20/9/11 
f 20/9/11 19/10/11 21/8/12 22/7/12 
f 22/7/12 21/8/12 23/6/13 24/5/13 
f 24/5/13 23/6/13 25/3/14 26/2/14 
f 26/2/14 25/3/14 27/4/15 28/1/15 
# 12 polygons

