# 3ds Max Wavefront OBJ Exporter v0.99 - (c)2007 guruware
# File Created: 23.09.2021 23:59:06

mtllib Shell4.mtl

#
# object Plane167
#

v  0.4251 0.2309 1.7610
v  0.4251 0.2469 1.9685
v  0.6326 0.2844 1.9685
v  0.6326 0.2469 1.7610
v  0.4251 0.2309 2.1761
v  0.6326 0.2469 2.1761
v  0.8402 0.2469 1.9685
v  0.8402 0.2309 1.7610
v  0.8402 0.2309 2.1761
# 9 vertices

vn -0.0767 0.9941 -0.0767
vn -0.1782 0.9840 -0.0000
vn 0.0000 1.0000 -0.0000
vn 0.0000 0.9840 -0.1782
vn -0.0767 0.9941 0.0767
vn 0.0000 0.9840 0.1782
vn 0.1782 0.9840 -0.0000
vn 0.0767 0.9941 -0.0767
vn 0.0767 0.9941 0.0767
# 9 vertex normals

vt 0.0114 0.8136 0.0000
vt 0.0114 0.7807 0.0000
vt 0.0443 0.7807 0.0000
vt 0.0443 0.8136 0.0000
vt 0.0114 0.7477 0.0000
vt 0.0443 0.7477 0.0000
vt 0.0773 0.7807 0.0000
vt 0.0773 0.8136 0.0000
vt 0.0773 0.7477 0.0000
# 9 texture coords

o Plane167
g Plane167
usemtl 02___Default
s 1
f 1/1/1 2/2/2 3/3/3 4/4/4 
f 2/2/2 5/5/5 6/6/6 3/3/3 
f 3/3/3 7/7/7 8/8/8 4/4/4 
f 6/6/6 9/9/9 7/7/7 3/3/3 
# 4 polygons

